<svg xmlns="http://www.w3.org/2000/svg" viewBox="0 0 845.11 849.49"><defs><style>.cls-1{fill:none;}.cls-1,.cls-2{stroke:#000;stroke-miterlimit:10;stroke-width:3px;}.cls-2{fill:#fff;}.cls-3{font-size:86px;}.cls-3,.cls-5{font-family:HarenosoraMincho-83pv-RKSJ-H, HarenosoraMincho;}.cls-4{font-family:KozGoPr6N-Regular-83pv-RKSJ-H, Kozuka Gothic Pr6N;}.cls-5{font-size:54px;}.cls-6{letter-spacing:0.25em;}</style></defs><title>icon_06</title><g id="レイヤー_2" data-name="レイヤー 2"><g id="レイヤー_1-2" data-name="レイヤー 1"><text></text><polyline class="cls-1" points="232.61 71.38 232.61 2.38 843.61 2.38 843.61 837.38 246.61 837.38 246.61 516.38 243.62 512.45 173.61 420.38 185.61 410.38 259.61 503.38"/><polyline class="cls-1" points="232.61 195.38 232.61 388.38 127.61 388.38 127.61 299.38 127.61 84.38 71.61 84.38 71.61 2.38 232.61 2.38 232.61 100.38"/><line class="cls-2" x1="116.61" y1="520.38" x2="89.61" y2="844.38"/><line class="cls-2" x1="116.61" y1="604.88" x2="246.61" y2="604.88"/><line class="cls-2" x1="116.61" y1="648.34" x2="246.61" y2="648.34"/><line class="cls-2" x1="103.11" y1="682.68" x2="249.29" y2="682.68"/><polyline class="cls-1" points="127.61 388.38 1.61 388.38 34.61 849.38"/><line class="cls-2" x1="27.11" y1="746.15" x2="98.11" y2="746.15"/><line class="cls-2" x1="17.11" y1="604.88" x2="128.61" y2="604.88"/><line class="cls-2" x1="20.11" y1="648.34" x2="128.61" y2="648.34"/><line class="cls-2" x1="24.11" y1="702.68" x2="101.11" y2="702.68"/><line class="cls-2" x1="100.11" y1="722.88" x2="245.61" y2="722.88"/><line class="cls-2" x1="96.11" y1="766.34" x2="245.61" y2="766.34"/><line class="cls-2" x1="93.11" y1="800.68" x2="248.29" y2="800.68"/><line class="cls-2" x1="14.11" y1="561.38" x2="116.11" y2="561.38"/><text class="cls-3" transform="translate(408.47 663.01)">60<tspan class="cls-4" x="127.79" y="0">平米</tspan></text><text class="cls-5" transform="translate(74.69 60.68)"><tspan class="cls-6">5</tspan><tspan x="46.87" y="0">平米</tspan></text></g></g></svg>