<?xml version="1.0" encoding="utf-8"?>
<!-- Generator: Adobe Illustrator 21.0.2, SVG Export Plug-In . SVG Version: 6.00 Build 0)  -->
<svg version="1.1" id="Capa_1" xmlns="http://www.w3.org/2000/svg" xmlns:xlink="http://www.w3.org/1999/xlink" x="0px" y="0px"
	 viewBox="0 0 297 297" style="enable-background:new 0 0 297 297;" xml:space="preserve">
<style type="text/css">
	.st0{fill:#FFFFFF;stroke:#FFFFFF;stroke-miterlimit:10;}
</style>
<path class="st0" d="M290.3,108.3l-59.4-89.1c-0.9-1.4-2.2-2.6-3.8-3.3L197.4,1c-1.4-0.7-2.8-1-4.3-1c0,0-0.1,0-0.1,0H104
	c0,0,0,0-0.1,0c-1.5,0-2.9,0.3-4.3,1L69.9,15.9c-1.5,0.8-2.8,1.9-3.8,3.3L6.7,108.3c-2.1,3.2-2.2,7.4-0.1,10.6
	c0.9,1.4,21.2,32.9,72.7,46.9v121.3c0,5.4,4.4,9.8,9.8,9.8h118.8c5.4,0,9.8-4.4,9.8-9.8V165.9c51.5-14.1,71.8-45.6,72.7-46.9
	C292.5,115.7,292.4,111.5,290.3,108.3z M151.4,43.4l-23.8-23.8h44.2L151.4,43.4z M26.9,113.3L81,32.2L102,21.7l36.6,36.6l-39.3,45.8
	h-0.4V84c0-5.4-4.4-9.8-9.8-9.8s-9.8,4.4-9.8,9.8v61.5C49.9,136.3,33.6,121.1,26.9,113.3z M198.1,164.5H98.9v-41.2h99.2L198.1,164.5
	L198.1,164.5z M98.9,277.4v-93.6h99.2v93.6H98.9z M217.7,145.5V84c0-5.4-4.4-9.8-9.8-9.8s-9.8,4.4-9.8,9.8v20.1h-73L195.5,22
	L216,32.2l54.1,81.1C263.3,121.1,247.1,136.3,217.7,145.5z"/>
</svg>
