<!--?xml version="1.0" encoding="utf-8"?-->
<!-- Generator: Adobe Illustrator 18.1.1, SVG Export Plug-In . SVG Version: 6.00 Build 0)  -->

<svg version="1.1" id="_x32_" xmlns="http://www.w3.org/2000/svg" xmlns:xlink="http://www.w3.org/1999/xlink" x="0px" y="0px" viewBox="0 0 512 512" style="width: 256px; height: 256px; opacity: 1;" xml:space="preserve">
<style type="text/css">
	.st0{fill:#4B4B4B;}
</style>
<g>
	<path class="st0" d="M256,172.865c-3.274,0-5.922,2.654-5.922,5.922c0,3.274,2.648,5.922,5.922,5.922
		c3.274,0,5.922-2.648,5.922-5.922C261.922,175.52,259.274,172.865,256,172.865z" style="fill: rgb(255, 255, 255);"></path>
	<path class="st0" d="M256,223.928c-3.274,0-5.922,2.655-5.922,5.929c0,3.274,2.648,5.915,5.922,5.915
		c3.274,0,5.922-2.641,5.922-5.915C261.922,226.583,259.274,223.928,256,223.928z" style="fill: rgb(255, 255, 255);"></path>
	<path class="st0" d="M256,274.99c-3.274,0-5.922,2.655-5.922,5.929c0,3.268,2.648,5.915,5.922,5.915
		c3.274,0,5.922-2.647,5.922-5.915C261.922,277.645,259.274,274.99,256,274.99z" style="fill: rgb(255, 255, 255);"></path>
	<path class="st0" d="M256,377.115c-3.274,0-5.922,2.648-5.922,5.922c0,3.274,2.648,5.922,5.922,5.922
		c3.274,0,5.922-2.648,5.922-5.922C261.922,379.763,259.274,377.115,256,377.115z" style="fill: rgb(255, 255, 255);"></path>
	<path class="st0" d="M256,326.053c-3.274,0-5.922,2.648-5.922,5.922c0,3.274,2.648,5.922,5.922,5.922
		c3.274,0,5.922-2.648,5.922-5.922C261.922,328.701,259.274,326.053,256,326.053z" style="fill: rgb(255, 255, 255);"></path>
	<path class="st0" d="M442.787,158.263c-0.007-0.034-0.021-0.061-0.028-0.089l-0.014-0.062
		c-5.516-24.018-21.645-44.253-43.861-54.956l-57.789-27.828l-11.397-18.454l-0.158-0.227c-3.068-4.244-7.092-7.593-11.748-9.918
		c-7.016-3.501-15.187-4.938-25.167-5.695c-9.994-0.736-21.927-0.729-36.626-0.729c-19.609,0.014-34.259-0.041-46.028,1.761
		c-5.881,0.915-11.101,2.318-15.764,4.663c-4.656,2.325-8.68,5.675-11.748,9.918l-0.144,0.199l-11.411,18.482l-57.789,27.828
		c-22.216,10.703-38.346,30.938-43.862,54.956l-0.013,0.062c-0.007,0.028-0.021,0.055-0.028,0.089L0,434.849l84.593,22.299
		l39.17-149.143v163.69h105.165L256,437.367l27.065,34.328h105.172v-163.69l39.17,149.143L512,434.849L442.787,158.263z
		 M193.926,64.859c1.802-2.428,3.79-4.106,6.617-5.55c4.25-2.166,10.702-3.57,19.87-4.23c9.148-0.681,20.896-0.695,35.587-0.688
		c19.582-0.014,33.957,0.042,43.868,1.596c4.959,0.764,8.742,1.884,11.59,3.322c2.827,1.444,4.815,3.123,6.617,5.55l10.111,16.377
		l-26.687,69.874l-37.293-30.572l37.554-32.443l0.179-0.193c2.717-2.868,4.168-6.623,4.168-10.448c0-1.995-0.399-4.024-1.218-5.929
		l-0.007-0.028c-2.394-5.544-7.855-9.162-13.921-9.162h-69.922c-6.066,0-11.528,3.618-13.921,9.162
		c-0.825,1.932-1.224,3.962-1.224,5.97c-0.007,3.81,1.444,7.579,4.182,10.454l0.165,0.179l37.554,32.437l-37.293,30.572
		l-26.687-69.887L193.926,64.859z M256,113.666l-38.317-33.104c-0.798-0.866-1.224-1.967-1.224-3.095l0.364-1.788
		c0.736-1.692,2.387-2.779,4.216-2.779h69.922c1.83,0,3.48,1.087,4.223,2.793l0.358,1.761c0,1.128-0.433,2.242-1.231,3.123
		L256,113.666z M74.551,439.939L17.044,424.78l8.33-33.297l57.899,15.262L74.551,439.939z M426.947,399.936L388.12,252.114
		l-2.607-1.774l-5.144-3.514l-6.218,7.078v203.706h-84.249L256,414.621l-5.53,7.016l-28.372,35.972H137.85V253.895l-2.105-2.387
		l-4.112-4.684l-5.578,3.81l-2.174,1.478l-38.82,147.822l-57.975-15.283l55.85-223.198l0.02-0.069
		c4.519-19.905,17.883-36.68,36.268-45.539l56.173-27.051l30.47,79.785L256,127.477l50.134,41.096l30.47-79.778l56.173,27.051
		c18.384,8.859,31.749,25.634,36.268,45.539l0.02,0.076l55.85,223.192L426.947,399.936z M428.735,406.745l57.892-15.262l8.329,33.29
		l-57.507,15.159L428.735,406.745z" style="fill: rgb(255, 255, 255);"></path>
</g>
</svg>
