<svg xmlns="http://www.w3.org/2000/svg" viewBox="0 0 627.01 854.07"><defs><style>.cls-1,.cls-2,.cls-4,.cls-5,.cls-6{fill:none;}.cls-1,.cls-2,.cls-4,.cls-5,.cls-6,.cls-7{stroke:#231815;stroke-miterlimit:10;}.cls-1{stroke-width:5px;}.cls-2{stroke-width:3px;}.cls-3{fill:#231815;}.cls-5{stroke-width:0.87px;}.cls-6{stroke-width:0.95px;}.cls-7{fill:#efefef;}</style></defs><title>space-map</title><g id="レイヤー_2" data-name="レイヤー 2"><g id="レイヤー_1-2" data-name="レイヤー 1"><polyline class="cls-1" points="229.35 265 162.14 265 162.14 381.66 2.5 381.66 2.5 2.5 188.69 2.5 251.08 2.5 271.43 2.5 326.16 2.5 343.08 2.5 540.35 2.5 540.35 810.63 163.41 810.63 163.41 450.14"/><line class="cls-2" x1="160.23" y1="183.23" x2="160.23" y2="2.5"/><path class="cls-3" d="M569,415.25c-2.46,0-5.94-1-6.48-5.7h3a3.2,3.2,0,0,0,3.48,2.94c4.14,0,4.68-4.68,4.86-7.59a6.1,6.1,0,0,1-4.83,2c-2.55,0-6.84-1.5-6.84-7.26,0-4.53,2.82-7.65,7.32-7.65,7.29,0,7.44,7.86,7.44,10.89C577,406.1,576.7,415.25,569,415.25Zm.57-20.58c-1.68,0-4.17.81-4.17,4.86,0,3.21,2,4.56,3.9,4.56,3.72,0,4.26-3,4.26-4.62C573.55,397,572.2,394.67,569.56,394.67Z"/><path class="cls-3" d="M585,414.53h-3.36c.36-4.38,3.09-11.73,8.85-18.9H578.62v-3h15.24v3C589.27,399.74,585.49,408.14,585,414.53Z"/><path class="cls-3" d="M607.66,409.61v4.92h-3.09v-4.92h-9.3v-3.18l9.63-13.8h2.76v14.16h2.94v2.82Zm-3.09-12.12-6.48,9.3h6.48Z"/><path class="cls-3" d="M625.27,412A6.53,6.53,0,0,1,614,412a18.49,18.49,0,0,1-1.74-8.43,18.92,18.92,0,0,1,1.74-8.43,6.56,6.56,0,0,1,11.28,0,18.83,18.83,0,0,1,1.74,8.43A18.51,18.51,0,0,1,625.27,412Zm-5.64-17.34c-3.54,0-4.2,4-4.2,8.91,0,4.53.51,8.91,4.2,8.91,3.51,0,4.2-4,4.2-8.91C623.83,399.05,623.29,394.67,619.63,394.67Z"/><path class="cls-3" d="M331.15,848.43v4.92h-3.09v-4.92h-9.3v-3.17l9.63-13.8h2.76v14.16h2.94v2.81Zm-3.09-12.11-6.48,9.3h6.48Z"/><path class="cls-3" d="M341.86,853.35H338.5c.36-4.38,3.09-11.72,8.85-18.89H335.47v-3h15.24v3C346.12,838.57,342.34,847,341.86,853.35Z"/><path class="cls-3" d="M365.44,850.84a6.54,6.54,0,0,1-11.28,0,18.49,18.49,0,0,1-1.74-8.43,19,19,0,0,1,1.74-8.44,6.57,6.57,0,0,1,11.28,0,18.9,18.9,0,0,1,1.74,8.44A18.53,18.53,0,0,1,365.44,850.84ZM359.8,833.5c-3.54,0-4.2,4-4.2,8.91,0,4.52.51,8.9,4.2,8.9,3.51,0,4.2-4,4.2-8.9C364,837.88,363.46,833.5,359.8,833.5Z"/><path class="cls-3" d="M382.12,850.84a6.54,6.54,0,0,1-11.28,0,18.49,18.49,0,0,1-1.74-8.43,19,19,0,0,1,1.74-8.44,6.57,6.57,0,0,1,11.28,0,18.9,18.9,0,0,1,1.74,8.44A18.53,18.53,0,0,1,382.12,850.84Zm-5.64-17.34c-3.54,0-4.2,4-4.2,8.91,0,4.52.51,8.9,4.2,8.9,3.51,0,4.2-4,4.2-8.9C380.68,837.88,380.14,833.5,376.48,833.5Z"/><path class="cls-3" d="M52.55,415.62c-3.09,2.25-4.41,3.3-5.1,5.34h11v2.91H43.91c.45-5.07,1.38-6.18,6.84-10.41,3.63-2.82,4.56-3.78,4.56-5.73a3.44,3.44,0,0,0-3.81-3.54c-3.69,0-3.81,3.27-3.87,4.92H44.45A9.28,9.28,0,0,1,45.86,404a7,7,0,0,1,5.85-2.76c3.93,0,6.87,2.61,6.87,6.48C58.58,411,56.93,412.41,52.55,415.62Z"/><path class="cls-3" d="M69.23,415.62c-3.09,2.25-4.41,3.3-5.1,5.34h11v2.91H60.59c.45-5.07,1.38-6.18,6.84-10.41,3.63-2.82,4.56-3.78,4.56-5.73a3.44,3.44,0,0,0-3.81-3.54c-3.69,0-3.81,3.27-3.87,4.92H61.13A9.28,9.28,0,0,1,62.54,404a7,7,0,0,1,5.85-2.76c3.93,0,6.87,2.61,6.87,6.48C75.26,411,73.61,412.41,69.23,415.62Z"/><path class="cls-3" d="M90.23,421.35a5.73,5.73,0,0,1-5.64,3.24A5.72,5.72,0,0,1,79,421.35a18.49,18.49,0,0,1-1.74-8.43A18.92,18.92,0,0,1,79,404.49a5.71,5.71,0,0,1,5.64-3.21,5.71,5.71,0,0,1,5.64,3.21A18.83,18.83,0,0,1,92,412.92,18.51,18.51,0,0,1,90.23,421.35ZM84.59,404c-3.54,0-4.2,4-4.2,8.91,0,4.53.51,8.91,4.2,8.91,3.51,0,4.2-4,4.2-8.91C88.79,408.39,88.25,404,84.59,404Z"/><path class="cls-3" d="M106.91,421.35a6.53,6.53,0,0,1-11.28,0,18.49,18.49,0,0,1-1.74-8.43,18.92,18.92,0,0,1,1.74-8.43,6.56,6.56,0,0,1,11.28,0,18.83,18.83,0,0,1,1.74,8.43A18.51,18.51,0,0,1,106.91,421.35ZM101.27,404c-3.54,0-4.2,4-4.2,8.91,0,4.53.51,8.91,4.2,8.91,3.51,0,4.2-4,4.2-8.91C105.47,408.39,104.93,404,101.27,404Z"/><line class="cls-4" x1="2.5" y1="286.14" x2="74.97" y2="286.14"/><polyline class="cls-4" points="2.5 183.23 79.5 183.23 79.5 299.74 115.78 325.81"/><line class="cls-4" x1="79.04" y1="332.84" x2="79.04" y2="381.66"/><rect class="cls-4" x="172.18" y="777.2" width="358.56" height="24.96"/><rect class="cls-3" x="234.87" y="719.33" width="38.91" height="70.35"/><path class="cls-3" d="M17.3,338.87c0-.32.06-.66.09-1a11.59,11.59,0,0,0,.06-1.22v-1.79c0-.75,0-1.43,0-2.05a11.08,11.08,0,0,1,.15-1.7c.11-.62.67-.93,1.69-.93h.23a2,2,0,0,1,1.54.88,2.67,2.67,0,0,1,.61,1.7,2.62,2.62,0,0,1-.58,1.55,4.46,4.46,0,0,1-1.19,1.11,1.31,1.31,0,0,0-.23.15.23.23,0,0,0-.09.18.27.27,0,0,0,.08.19l.25.22.53.44,1.82,1.7c.37.35.69.68,1,1a4.54,4.54,0,0,1,.64.86.3.3,0,0,1,.05.15c0,.25-.26.44-.79.57A17.53,17.53,0,0,1,21,338.75c-.49-.52-.91-1-1.26-1.31s-.65-.64-.89-.85c0,.14,0,.4-.07.77s-.06.86-.11,1.46a11.18,11.18,0,0,1-.29,2.16.54.54,0,0,0-.16.08.54.54,0,0,1-.27.07h-.06a.91.91,0,0,1-.72-1c0-.08,0-.18,0-.3s0-.23,0-.35Zm3.17-6.65a1.3,1.3,0,0,0-.29-.63,1,1,0,0,0-.76-.27c-.26,0-.43.08-.49.24s0,.31-.06.47a3.71,3.71,0,0,0,0,.47c0,.14,0,.5.05,1.09,0,.12,0,.23,0,.33a2.72,2.72,0,0,1,0,.28,2.26,2.26,0,0,1,0,.26c0,.09,0,.17,0,.23a3.43,3.43,0,0,0,1.54-1.95l0-.21c0-.07,0-.13,0-.18Z"/><path class="cls-3" d="M24.5,337.26a5.15,5.15,0,0,1,.15-1.22,3.77,3.77,0,0,1,.47-1.1,2.56,2.56,0,0,1,.77-.8,1.91,1.91,0,0,1,1.07-.3,1.88,1.88,0,0,1,.74.13,1.67,1.67,0,0,1,.53.34,1.51,1.51,0,0,1,.43,1.05,2,2,0,0,1-.14.73,1.94,1.94,0,0,1-1.05,1.08,2.23,2.23,0,0,1-.88.19,1.48,1.48,0,0,1-.37,0l-.38-.1a.78.78,0,0,0,0,.14v.09a2.36,2.36,0,0,0,.2.95,1.55,1.55,0,0,0,.39.51,1,1,0,0,0,.41.22,1,1,0,0,0,.27,0,1.41,1.41,0,0,0,.84-.23l.75-.5.18.07a.52.52,0,0,1,.18.16l0,.15a.81.81,0,0,1,0,.17.78.78,0,0,1-.12.39,1.55,1.55,0,0,1-.24.27,2.12,2.12,0,0,1-.79.46,3.25,3.25,0,0,1-1,.11,2.66,2.66,0,0,1-.65-.11,4.08,4.08,0,0,1-.64-.25,3,3,0,0,1-.62-.59,2.36,2.36,0,0,1-.34-.62,3.22,3.22,0,0,1-.17-.68C24.53,337.77,24.51,337.53,24.5,337.26Zm1.42-.88.21,0h.22a1.2,1.2,0,0,0,.86-.28.87.87,0,0,0,.3-.67.72.72,0,0,0-.13-.42.4.4,0,0,0-.36-.2,1.66,1.66,0,0,0-.32,0,.37.37,0,0,0-.24.17l-.14.16a.71.71,0,0,0-.16.23,1.92,1.92,0,0,0-.14.37A3.11,3.11,0,0,0,25.92,336.38Z"/><path class="cls-3" d="M32,336.77c.22.42.42.83.6,1.26a3.38,3.38,0,0,1,.28,1.41,2,2,0,0,1-.14.77,2,2,0,0,1-.38.64,1.82,1.82,0,0,1-.59.44,1.71,1.71,0,0,1-.74.17.9.9,0,0,1-.63-.27,1,1,0,0,1-.32-.62l.12-.19a.77.77,0,0,1,.26-.1.55.55,0,0,0,.39.19.63.63,0,0,0,.49-.24.87.87,0,0,0,.22-.62.49.49,0,0,0,0-.17,6.92,6.92,0,0,0-.46-1.33c-.18-.4-.37-.78-.55-1.12s-.33-.69-.46-1a2.24,2.24,0,0,1-.2-.94,5.73,5.73,0,0,1,.06-.81,3.21,3.21,0,0,1,.23-.78,1.76,1.76,0,0,1,.44-.59,1,1,0,0,1,.69-.23h.18a.33.33,0,0,1,.28.17,2.59,2.59,0,0,1,.17.3.26.26,0,0,1-.09.21l-.18.16a1.65,1.65,0,0,0-.28.58,2.35,2.35,0,0,0-.09.64v.4a.86.86,0,0,0,.08.32c.05.15.12.3.19.46l.21.44c.07.13.13.24.17.3Z"/><path class="cls-3" d="M35.1,329.56a1.6,1.6,0,0,1,0-.42l.21-.11a.44.44,0,0,1,.21,0,.83.83,0,0,1,.45.1.71.71,0,0,1,.27.24.92.92,0,0,1,.12.34,2.4,2.4,0,0,1,0,.37c0,.23,0,.43,0,.6s0,.33,0,.5v.51c0,.17,0,.34,0,.52s0,.24,0,.37,0,.27,0,.41a.9.9,0,0,0,0,.18c0,.06.06.09.14.09a1.89,1.89,0,0,0,.75-.14,1.73,1.73,0,0,1,.75-.14.32.32,0,0,1,.31.18.94.94,0,0,1,.08.36.48.48,0,0,1-.1.33.53.53,0,0,1-.25.19,1.42,1.42,0,0,1-.31.11l-.34.09-.35.12a3.54,3.54,0,0,0-.39.14,1.41,1.41,0,0,0-.31.21.44.44,0,0,0-.13.33,1.55,1.55,0,0,0,0,.22c0,.06,0,.13,0,.19s0,.14,0,.21a1.55,1.55,0,0,0,0,.22,11.72,11.72,0,0,0,.11,1.53c.07.53.15,1,.23,1.53l.12.46a1.71,1.71,0,0,1,.06.43.53.53,0,0,1-.14.41,1.06,1.06,0,0,1-.33.18l-.2,0a.59.59,0,0,1-.41-.16,1.18,1.18,0,0,1-.32-.38,2.49,2.49,0,0,1-.14-.62c0-.27-.07-.51-.08-.72,0-.54-.05-1.07-.06-1.6s0-1.06,0-1.6v-.12a.43.43,0,0,0,0-.13,2.38,2.38,0,0,0-.49.15,1,1,0,0,1-.46.1.79.79,0,0,1-.55-.21,3.78,3.78,0,0,1-.35-.35,1.59,1.59,0,0,1,.09-.46,2.33,2.33,0,0,1,.39-.11l.35-.07.35-.08a1.75,1.75,0,0,0,.4-.16.26.26,0,0,0,.3-.21,1.56,1.56,0,0,0,0-.35c0-.2,0-.36,0-.5s0-.33,0-.58v-.5c0-.17,0-.34,0-.5Z"/><path class="cls-3" d="M39.37,339.75a.68.68,0,0,0,0-.3c0-.15,0-.33,0-.55s0-.43,0-.67,0-.46,0-.66,0-.38,0-.53,0-.23,0-.25v-.54c0-.24,0-.48,0-.72s0-.48,0-.72v-.07a.62.62,0,0,0-.07-.29.73.73,0,0,1-.06-.3.75.75,0,0,1,.18-.33.59.59,0,0,1,.41-.11.82.82,0,0,1,.44.1.8.8,0,0,1,.25.27,1,1,0,0,1,.1.35c0,.13,0,.26,0,.38l0,.86a1.65,1.65,0,0,0,.35-.38l.37-.55c.13-.2.27-.39.41-.57a2.43,2.43,0,0,1,.44-.46.67.67,0,0,1,.33-.07,1.18,1.18,0,0,1,.63.15,1,1,0,0,1,.37.48.84.84,0,0,1-.18.33q-.15.19-.33.39l-.4.43c-.13.15-.25.29-.35.43a5.08,5.08,0,0,0-.49.64,6.61,6.61,0,0,0-.44.77c-.13.27-.24.51-.33.75a1.62,1.62,0,0,0-.13.56c0,.09,0,.21,0,.37v.37a2.69,2.69,0,0,1,0,.4,1,1,0,0,1-.13.38.87.87,0,0,1-.26.28.78.78,0,0,1-.43.1.7.7,0,0,1-.5-.18.67.67,0,0,1-.19-.47Z"/><path class="cls-3" d="M46.16,340.08a.84.84,0,0,1-.5-.15c-.15-.11-.31-.21-.47-.31a2.21,2.21,0,0,1-.84-.82,2.47,2.47,0,0,1-.29-1.24,3.75,3.75,0,0,1,.12-.86c.08-.34.16-.64.22-.93a3.18,3.18,0,0,1,.23-.5,3.6,3.6,0,0,1,.45-.62,3.16,3.16,0,0,1,.62-.53,1.27,1.27,0,0,1,.7-.23.51.51,0,0,1,.3.1,3,3,0,0,0,.47.24l.5.2c.17.06.34.14.5.21a2,2,0,0,1,.46.3,1.09,1.09,0,0,1,.28.36c.06.14.13.28.2.41a1,1,0,0,1,.09.33c0,.12,0,.24,0,.36v.31a2.63,2.63,0,0,1-.2.94,5.73,5.73,0,0,1-.46.84,4.45,4.45,0,0,1-.34.49,4.69,4.69,0,0,1-.47.53,4.22,4.22,0,0,1-.55.42,1.17,1.17,0,0,1-.58.17h-.46Zm1.6-3.91a.74.74,0,0,0-.34-.69,1.43,1.43,0,0,0-.76-.22.72.72,0,0,0-.55.26,2.28,2.28,0,0,0-.4.62,3.43,3.43,0,0,0-.23.79,4.26,4.26,0,0,0-.08.73,2.23,2.23,0,0,0,0,.26,1.6,1.6,0,0,0,.09.41,1,1,0,0,0,.19.38.39.39,0,0,0,.32.16.83.83,0,0,0,.32-.06l.33-.14a1.48,1.48,0,0,0,.46-.44,2.73,2.73,0,0,0,.32-.61,4.5,4.5,0,0,0,.2-.68,6,6,0,0,0,.1-.69Z"/><path class="cls-3" d="M52.07,340.08a.89.89,0,0,1-.5-.15,5.46,5.46,0,0,0-.47-.31,2.18,2.18,0,0,1-.83-.82,2.37,2.37,0,0,1-.3-1.24,3.82,3.82,0,0,1,.13-.86l.22-.93a2.46,2.46,0,0,1,.23-.5,3.6,3.6,0,0,1,.45-.62,3.1,3.1,0,0,1,.61-.53,1.3,1.3,0,0,1,.71-.23.48.48,0,0,1,.29.1,2.69,2.69,0,0,0,.48.24l.5.2c.17.06.33.14.5.21a2.59,2.59,0,0,1,.46.3,1.07,1.07,0,0,1,.27.36c.07.14.13.28.2.41a1,1,0,0,1,.1.33c0,.12,0,.24,0,.36v.31a2.64,2.64,0,0,1-.21.94,6.78,6.78,0,0,1-.45.84c-.09.14-.2.31-.34.49a6,6,0,0,1-.48.53,3.64,3.64,0,0,1-.55.42,1.14,1.14,0,0,1-.58.17h-.46Zm1.61-3.91a.75.75,0,0,0-.35-.69,1.43,1.43,0,0,0-.75-.22.73.73,0,0,0-.56.26,2.52,2.52,0,0,0-.39.62,3.45,3.45,0,0,0-.24.79,4.14,4.14,0,0,0-.07.73s0,.13,0,.26a3.38,3.38,0,0,0,.09.41,1.5,1.5,0,0,0,.19.38.4.4,0,0,0,.32.16.88.88,0,0,0,.33-.06l.33-.14a1.56,1.56,0,0,0,.45-.44,2.37,2.37,0,0,0,.32-.61,3.58,3.58,0,0,0,.2-.68c0-.24.08-.47.11-.69Z"/><path class="cls-3" d="M64.82,335.66a6.86,6.86,0,0,0,.11,1.23c.08.39.14.81.2,1.24a1.94,1.94,0,0,0,.19.67,1.72,1.72,0,0,1,.15.69.75.75,0,0,1-.22.58.77.77,0,0,1-.53.19.58.58,0,0,1-.53-.32,2.33,2.33,0,0,1-.28-.74,5.87,5.87,0,0,1-.12-.81,3.06,3.06,0,0,0-.09-.57,2.42,2.42,0,0,1-.13-.53c0-.18,0-.36,0-.53s0-.35-.05-.53a4,4,0,0,0-.11-.54l-.32.6-.34.65-.34.66c-.11.21-.2.41-.28.58a3.52,3.52,0,0,0-.2.53c-.05.17-.1.34-.14.5l-.15.49a2.94,2.94,0,0,1-.23.53,1,1,0,0,1-.43.1.59.59,0,0,1-.48-.23,1.73,1.73,0,0,1-.26-.58,5.12,5.12,0,0,1-.13-.72c0-.25-.06-.47-.09-.67s0-.43-.09-.67-.09-.48-.15-.71-.13-.46-.2-.67a2.62,2.62,0,0,0-.23-.5,1.6,1.6,0,0,0-.41.5c-.11.22-.21.45-.31.68s-.17.47-.23.69-.13.4-.18.53a2.43,2.43,0,0,0-.29.77c-.05.25-.1.49-.16.7a1.29,1.29,0,0,1-.28.52.83.83,0,0,1-.63.21.43.43,0,0,1-.26-.09.7.7,0,0,1-.2-.22,1,1,0,0,1-.13-.28.72.72,0,0,1,0-.28c0-.11,0-.22,0-.33s0-.22,0-.34,0-.11,0-.25,0-.27,0-.41,0-.29,0-.42,0-.21,0-.25c0-.61,0-1.05,0-1.32s0-.45,0-.55,0-.15,0-.15,0-.05,0-.14a1,1,0,0,0-.06-.34,1,1,0,0,1-.06-.35.5.5,0,0,1,.2-.39.64.64,0,0,1,.42-.17.65.65,0,0,1,.46.15.85.85,0,0,1,.24.37,1.86,1.86,0,0,1,.09.48c0,.17,0,.32,0,.45a3.29,3.29,0,0,1,0,.41c0,.15,0,.29,0,.42a1.38,1.38,0,0,0,0,.26l.22-.47c.08-.18.17-.35.26-.53s.19-.36.29-.52a4,4,0,0,1,.3-.43q.2-.24.45-.51a.83.83,0,0,1,.59-.27.85.85,0,0,1,.56.16,1.12,1.12,0,0,1,.3.41,3,3,0,0,1,.14.55,4.82,4.82,0,0,0,.1.57,10.18,10.18,0,0,1,.27,1.06c.08.39.16.75.24,1.07a3.07,3.07,0,0,1,.11-.31l.15-.39c.06-.14.11-.26.17-.38s.09-.2.13-.27l.33-.68a6.2,6.2,0,0,1,.44-.69,2.75,2.75,0,0,1,.59-.54,1.62,1.62,0,0,1,.78-.27,2.68,2.68,0,0,0,.36.16.68.68,0,0,1,.28.18.75.75,0,0,1,.18.37,2.55,2.55,0,0,1,.07.7Z"/><path class="cls-3" d="M24.55,131.57a6.4,6.4,0,0,0,.06.88,6.54,6.54,0,0,1,.06.89.63.63,0,0,1-.24.54.89.89,0,0,1-.55.18.94.94,0,0,1-.42-.07.43.43,0,0,1-.22-.2.62.62,0,0,1-.09-.27,1.88,1.88,0,0,1,0-.34c0-.39,0-.81,0-1.25s0-.87,0-1.31v-1.31c0-.42,0-.83,0-1.21,0-.72,0-1.43-.06-2.14s-.05-1.45-.05-2.23a1.05,1.05,0,0,1,.08-.4,1.07,1.07,0,0,1,.37-.27,2.71,2.71,0,0,1,.43-.14.86.86,0,0,1,.6.32,1.43,1.43,0,0,1,.17.76c0,1.26,0,2.35,0,3.28s-.06,1.78-.09,2.54c.22-.18.43-.38.65-.59a4.83,4.83,0,0,0,.56-.65,3.31,3.31,0,0,1,.22-.47,1.66,1.66,0,0,1,.32-.43,1.77,1.77,0,0,1,.41-.31,1,1,0,0,1,.48-.12l.17.06a1.11,1.11,0,0,1,.19.09.79.79,0,0,1,.15.12.32.32,0,0,1,.06.2,1.2,1.2,0,0,1-.23.56,9.41,9.41,0,0,1-.54.8c-.21.29-.42.56-.64.83l-.54.65a3.6,3.6,0,0,0,.79.9c.3.25.6.47.88.66s.53.36.72.5.3.28.3.4a.53.53,0,0,1-.11.34.69.69,0,0,1-.25.2,1.58,1.58,0,0,1-.31.09l-.28,0a1.13,1.13,0,0,1-.61-.28,10,10,0,0,1-.79-.65l-.85-.77a7.18,7.18,0,0,0-.77-.63Z"/><path class="cls-3" d="M31,133a.51.51,0,0,1-.07.26,1.13,1.13,0,0,1-.24.31,2.14,2.14,0,0,1-.52,0,.86.86,0,0,1-.41-.19,1.06,1.06,0,0,1-.27-.43,2.47,2.47,0,0,1-.1-.75,3.53,3.53,0,0,0,0-.56,2.67,2.67,0,0,1-.06-.56,11.7,11.7,0,0,0-.1-1.59,11.45,11.45,0,0,1-.1-1.58.59.59,0,0,1,.28-.53,2,2,0,0,1,.31-.07l.33-.06a.69.69,0,0,1,.34.19l.22.24,0,.32c0,.11,0,.23,0,.35,0,.41,0,.85.07,1.32s.09.92.15,1.35.1.81.15,1.16.09.62.11.8Zm-1.44-9.22a.37.37,0,0,1,.29-.09,1.06,1.06,0,0,1,.34.06,1.09,1.09,0,0,1,.56.4.58.58,0,0,1,.09.28.49.49,0,0,1-.16.42.76.76,0,0,1-.43.11,1.19,1.19,0,0,1-.37-.06,2.18,2.18,0,0,1-.34-.14,1.24,1.24,0,0,1-.24-.17.26.26,0,0,1-.09-.18,1.67,1.67,0,0,1,0-.34A.55.55,0,0,1,29.57,123.78Z"/><path class="cls-3" d="M33.5,123a2.18,2.18,0,0,1,0-.42l.21-.11a.46.46,0,0,1,.21,0,.9.9,0,0,1,.46.1.67.67,0,0,1,.26.24.92.92,0,0,1,.12.34,2.31,2.31,0,0,1,0,.37c0,.23,0,.43,0,.6s0,.33,0,.5,0,.34,0,.51,0,.34,0,.52,0,.24,0,.37,0,.27,0,.41a.9.9,0,0,0,0,.18q0,.09.15.09a1.88,1.88,0,0,0,.74-.14,1.76,1.76,0,0,1,.75-.14.32.32,0,0,1,.31.18.94.94,0,0,1,.08.36.48.48,0,0,1-.1.33.5.5,0,0,1-.24.19,1.73,1.73,0,0,1-.32.11l-.34.09-.35.12a3.54,3.54,0,0,0-.39.14,1.41,1.41,0,0,0-.31.21.49.49,0,0,0-.13.33,1.55,1.55,0,0,0,0,.22,1.21,1.21,0,0,1,0,.19,1.48,1.48,0,0,1,0,.21,1.55,1.55,0,0,0,0,.22,11.72,11.72,0,0,0,.11,1.53q.1.79.24,1.53c0,.15.07.31.11.46a1.75,1.75,0,0,1,.07.43.53.53,0,0,1-.15.41,1.06,1.06,0,0,1-.33.18l-.2,0a.59.59,0,0,1-.41-.16,1.18,1.18,0,0,1-.32-.38,3,3,0,0,1-.14-.62c0-.27-.07-.51-.08-.73q0-.8-.06-1.59l0-1.6s0-.08,0-.12a.93.93,0,0,0,0-.13,2.2,2.2,0,0,0-.49.15,1,1,0,0,1-.46.1.79.79,0,0,1-.56-.21c-.15-.15-.27-.26-.34-.35a1.53,1.53,0,0,1,.08-.46,2.33,2.33,0,0,1,.39-.11l.35-.07.35-.08a2.08,2.08,0,0,0,.4-.16.26.26,0,0,0,.3-.21,1.56,1.56,0,0,0,0-.35c0-.2,0-.36,0-.5v-.58c0-.16,0-.33,0-.5s0-.34,0-.5Z"/><path class="cls-3" d="M40.81,132.54a.42.42,0,0,1,.32.13.48.48,0,0,1,.12.33.36.36,0,0,1-.09.26.49.49,0,0,1-.24.15,1.6,1.6,0,0,1-.33.07l-.37,0-.54-.14a1.85,1.85,0,0,1-.51-.25,9.23,9.23,0,0,1-.8-.74,2.87,2.87,0,0,1-.59-.9.59.59,0,0,1-.14-.26,3.37,3.37,0,0,1-.1-.34,2,2,0,0,1-.06-.32c0-.11,0-.19,0-.26a3.4,3.4,0,0,1,.08-.69,3.55,3.55,0,0,1,.22-.7,3.23,3.23,0,0,1,.36-.63,1.94,1.94,0,0,1,.51-.48l.62-.28.46-.15a1.57,1.57,0,0,1,.49-.08,1.05,1.05,0,0,1,.52.14.82.82,0,0,1,.25.48.69.69,0,0,1-.1.23.4.4,0,0,1-.24.2,1.61,1.61,0,0,1-.36.1,1,1,0,0,0-.33.09,1.87,1.87,0,0,0-.44.27l-.27.22a1,1,0,0,0-.16.23.86.86,0,0,0-.16.41,2.17,2.17,0,0,0,0,.41,2.37,2.37,0,0,0,.11.69,3.42,3.42,0,0,0,.27.65,2.3,2.3,0,0,0,.37.52,1.46,1.46,0,0,0,.38.32.84.84,0,0,0,.59.28Z"/><path class="cls-3" d="M42.31,131.23c0-.62,0-1.27,0-1.93s0-1.33,0-2c0-.39,0-.8,0-1.23s0-.85,0-1.26.05-.79.1-1.15a7.36,7.36,0,0,1,.19-.94,1.65,1.65,0,0,1,.48-.09.57.57,0,0,1,.51.26,1.12,1.12,0,0,1,.16.58,3.23,3.23,0,0,1-.07.73,4.7,4.7,0,0,0-.08.68c0,.48,0,.93-.06,1.33s0,.81,0,1.19,0,.76,0,1.12,0,.75,0,1.13a6.06,6.06,0,0,1,.41-.85,4.61,4.61,0,0,1,.48-.73,2.14,2.14,0,0,1,.54-.51,1,1,0,0,1,.57-.19,1.14,1.14,0,0,1,.73.32,2.12,2.12,0,0,1,.45.68,3.8,3.8,0,0,1,.22.8,3.89,3.89,0,0,1,.07.67,4.77,4.77,0,0,1,.09.6c0,.23,0,.43.06.62a6.34,6.34,0,0,0,.23,1.1,4.9,4.9,0,0,1,.19,1,.59.59,0,0,1-.21.3.56.56,0,0,1-.29.13.74.74,0,0,1-.66-.39,3.55,3.55,0,0,1-.38-.91,7.51,7.51,0,0,1-.17-1c0-.35,0-.61,0-.77a3.31,3.31,0,0,0,0-.5c0-.19-.06-.38-.1-.56s-.08-.33-.12-.46-.09-.19-.13-.19a.89.89,0,0,0-.38.31,4.14,4.14,0,0,0-.34.6c-.1.24-.19.48-.28.75s-.16.51-.22.75-.11.45-.15.64-.06.31-.07.38v.08s0,0,0,0,0,0,0,0v.07c0,.12,0,.24,0,.36a1.59,1.59,0,0,1-.08.33.64.64,0,0,1-.13.26.25.25,0,0,1-.19.09,1.09,1.09,0,0,1-.67-.18,1.15,1.15,0,0,1-.35-.46,1.87,1.87,0,0,1-.13-.64c0-.24,0-.47,0-.71Z"/><path class="cls-3" d="M48.34,130.67a4.7,4.7,0,0,1,.16-1.22,3.52,3.52,0,0,1,.47-1.1,2.46,2.46,0,0,1,.77-.8,1.88,1.88,0,0,1,1.06-.3,2,2,0,0,1,.75.13,1.67,1.67,0,0,1,.53.34,1.45,1.45,0,0,1,.42,1.05,2,2,0,0,1-.13.73,1.91,1.91,0,0,1-.41.63,1.85,1.85,0,0,1-.64.45,2.23,2.23,0,0,1-.88.19,1.57,1.57,0,0,1-.38,0l-.37-.1a.78.78,0,0,0,0,.14v.09a2.2,2.2,0,0,0,.2,1,1.55,1.55,0,0,0,.39.51,1.21,1.21,0,0,0,.67.27,1.44,1.44,0,0,0,.85-.23l.74-.5.18.07a.43.43,0,0,1,.18.15,1.57,1.57,0,0,0,0,.16.72.72,0,0,1,0,.17.78.78,0,0,1-.12.39,1.55,1.55,0,0,1-.24.27,2.2,2.2,0,0,1-.79.46,3.25,3.25,0,0,1-1,.11,2.59,2.59,0,0,1-.65-.11,4.23,4.23,0,0,1-.65-.25,3.14,3.14,0,0,1-.61-.59,2.73,2.73,0,0,1-.35-.62,3.2,3.2,0,0,1-.16-.68C48.37,131.18,48.35,130.94,48.34,130.67Zm1.43-.88.2,0h.22a1.19,1.19,0,0,0,.86-.28.85.85,0,0,0,.31-.67.8.8,0,0,0-.13-.42.4.4,0,0,0-.36-.2,1.66,1.66,0,0,0-.32,0,.33.33,0,0,0-.24.17l-.15.16a.91.91,0,0,0-.15.23,1.92,1.92,0,0,0-.14.37A2.45,2.45,0,0,0,49.77,129.79Z"/><path class="cls-3" d="M55.27,131.07a1.61,1.61,0,0,0,.37-.59c.09-.24.19-.47.27-.69l0-.1a6.12,6.12,0,0,1,.29-.65,4.7,4.7,0,0,1,.46-.73,2.73,2.73,0,0,1,.57-.6,1,1,0,0,1,.64-.25.8.8,0,0,1,.42.26,1.44,1.44,0,0,1,.21.41c.05.14.09.3.13.45a2.18,2.18,0,0,0,.16.45,4.85,4.85,0,0,1,.32,1c.07.36.13.73.18,1.1s.1.74.17,1.1a4.48,4.48,0,0,0,.3,1,.49.49,0,0,1-.29.38,1.08,1.08,0,0,1-.45.12.53.53,0,0,1-.46-.22,1.68,1.68,0,0,1-.25-.54,4.54,4.54,0,0,1-.14-.66,3.63,3.63,0,0,0-.1-.58,3.32,3.32,0,0,1-.13-.63c0-.23-.07-.47-.12-.71a6,6,0,0,0-.15-.67,1.36,1.36,0,0,0-.26-.51,8.81,8.81,0,0,0-.45.83c-.11.26-.22.5-.31.74l-.27.68a5.3,5.3,0,0,1-.33.68,4.59,4.59,0,0,1-.47.74,2,2,0,0,1-.4.39.75.75,0,0,1-.34.14l-.31,0a.77.77,0,0,1-.4-.17.46.46,0,0,1-.24-.39c0-.69,0-1.33,0-1.92s0-1.21,0-1.86c0-.19,0-.38,0-.57s0-.38,0-.56a1.09,1.09,0,0,1,.08-.39.51.51,0,0,1,.25-.27h.38a.45.45,0,0,1,.33.13.58.58,0,0,1,.18.3,1.61,1.61,0,0,1,.08.38c0,.13,0,.24,0,.33a1.27,1.27,0,0,0,.05.34,1.86,1.86,0,0,1,0,.34c0,.41,0,.75,0,1s0,.55,0,.81Z"/><path class="cls-3" d="M55,64.76c0-.56.07-1.06.07-1.51s0-.85.07-1.19a1.55,1.55,0,0,1-.27-.23.47.47,0,0,1-.1-.3.45.45,0,0,1,.19-.34.75.75,0,0,1,.33-.2c0-.52.08-1,.1-1.52s0-1,0-1.48c0-.27,0-.54,0-.81a4.9,4.9,0,0,0-.09-.78,1.16,1.16,0,0,1-1-.69.47.47,0,0,1,.28-.5,1.56,1.56,0,0,1,.59-.12h.41a6.83,6.83,0,0,1,.68.07,4.41,4.41,0,0,1,.81.18,5.15,5.15,0,0,1,.87.33A5.25,5.25,0,0,1,59.71,57a2.12,2.12,0,0,1,.47,1.26.66.66,0,0,1,0,.14,1,1,0,0,1,0,.16,2.28,2.28,0,0,1-.35.78,3.32,3.32,0,0,1-.58.67,5.37,5.37,0,0,1-.73.59l-.8.53-.29.2a.84.84,0,0,0,.31.31,4,4,0,0,0,.42.23l.17.05A2.56,2.56,0,0,1,59.64,64a2.68,2.68,0,0,1-.53,1.61,4.87,4.87,0,0,1-1.53,1.3L56,67.82a.65.65,0,0,1-.39.12.56.56,0,0,1-.62-.45Zm1.57,1.36a4.07,4.07,0,0,1,.34-.29l.33-.25a3.25,3.25,0,0,0,.7-.68,2.58,2.58,0,0,0,.32-.78.88.88,0,0,0,0-.17,1,1,0,0,0,0-.17,1.24,1.24,0,0,0-.34-.87,4.64,4.64,0,0,0-.69-.4,1.39,1.39,0,0,0-.41-.11h-.18a.69.69,0,0,0-.2,0c0,.49,0,1-.06,1.36s0,.83,0,1.25a4.36,4.36,0,0,0,0,.51q0,.26.06.57Zm.25-6L57,60l.26-.15.29-.25a1.65,1.65,0,0,0,.44-.32,2.16,2.16,0,0,0,.37-.44,2.65,2.65,0,0,0,.26-.5,1.64,1.64,0,0,0,.1-.51s0,0,0-.08a.25.25,0,0,1,0-.08c-.06-.41-.4-.72-1-.94l-.13-.06-.2-.12-.24-.11a.59.59,0,0,0-.19,0h-.09l-.12,0a2.46,2.46,0,0,0,0,.28V57q0,.66,0,1.47c0,.54,0,1.1,0,1.69Z"/><path class="cls-3" d="M66.49,65.35c0,.09.06.18.1.27a.86.86,0,0,1,0,.27.29.29,0,0,1-.08.21.46.46,0,0,1-.18.13.83.83,0,0,1-.22.08l-.21,0a.61.61,0,0,1-.54-.37,3.53,3.53,0,0,1-.35-.91c-.08-.37-.16-.76-.22-1.17s-.12-.78-.17-1.1a2.72,2.72,0,0,1-.32.86,5.42,5.42,0,0,1-.68,1,4.7,4.7,0,0,1-.9.83,1.71,1.71,0,0,1-1,.34,1.25,1.25,0,0,1-.65-.15,1.12,1.12,0,0,1-.39-.39,1.92,1.92,0,0,1-.18-.51,3.5,3.5,0,0,1,0-.54,4.28,4.28,0,0,1,.27-1.33,8.13,8.13,0,0,1,.74-1.55,5.69,5.69,0,0,1,1.08-1.29,2,2,0,0,1,1.31-.53,1.47,1.47,0,0,1,.33,0,2.91,2.91,0,0,1,.39.12,2.53,2.53,0,0,1,.37.18c.12.08.23.14.32.21a1.12,1.12,0,0,1,.37.62,5.4,5.4,0,0,1,.15.82c.08.55.14,1,.18,1.48a9.41,9.41,0,0,0,.25,1.4l.09.61Zm-4.62-.85s0,0,0,0v0a.94.94,0,0,0,.5-.29,5.34,5.34,0,0,0,.55-.65,7.18,7.18,0,0,0,.52-.79,4,4,0,0,0,.35-.75c0-.1.1-.21.16-.33l.18-.36a2.4,2.4,0,0,0,.14-.36.83.83,0,0,0,.06-.28l-.15-.06a.32.32,0,0,0-.14,0,.89.89,0,0,0-.64.27,3.33,3.33,0,0,0-.49.63,6.76,6.76,0,0,0-.33.66c-.09.21-.15.35-.18.4a6,6,0,0,0-.39.89,3,3,0,0,0-.15.91Z"/><path class="cls-3" d="M70.83,64.79a.44.44,0,0,1,.32.13.48.48,0,0,1,.12.33.36.36,0,0,1-.09.26.49.49,0,0,1-.24.15,1.47,1.47,0,0,1-.33.07l-.37,0-.53-.14a1.89,1.89,0,0,1-.52-.25,9.12,9.12,0,0,1-.79-.74,2.73,2.73,0,0,1-.6-.9.71.71,0,0,1-.14-.26,3.37,3.37,0,0,1-.1-.34c0-.11,0-.22-.06-.32s0-.19,0-.26a3.27,3.27,0,0,1,.07-.68,3.44,3.44,0,0,1,.22-.71,3.23,3.23,0,0,1,.36-.63,2.11,2.11,0,0,1,.51-.48l.62-.28c.16-.05.31-.09.46-.15a1.62,1.62,0,0,1,.49-.08,1.1,1.1,0,0,1,.53.14.82.82,0,0,1,.24.48.88.88,0,0,1-.09.23.45.45,0,0,1-.25.2,1.69,1.69,0,0,1-.35.1,1,1,0,0,0-.34.09,2.42,2.42,0,0,0-.44.27,1.56,1.56,0,0,0-.26.23.82.82,0,0,0-.17.22,1,1,0,0,0-.16.41,3.29,3.29,0,0,0,0,.41A2.35,2.35,0,0,0,69,63a3.42,3.42,0,0,0,.27.65,2.66,2.66,0,0,0,.37.52,1.48,1.48,0,0,0,.39.32.8.8,0,0,0,.59.28Z"/><path class="cls-3" d="M74,63.82a6.4,6.4,0,0,0,0,.88,6.54,6.54,0,0,1,.06.89.63.63,0,0,1-.24.54.84.84,0,0,1-.55.19,1,1,0,0,1-.42-.08.48.48,0,0,1-.22-.2.62.62,0,0,1-.09-.27c0-.11,0-.22,0-.34,0-.39,0-.81,0-1.24s0-.88,0-1.32V61.56c0-.42,0-.83,0-1.21,0-.72,0-1.43,0-2.14s-.06-1.45-.06-2.23a1.29,1.29,0,0,1,.08-.4,1.07,1.07,0,0,1,.37-.27,3.09,3.09,0,0,1,.43-.14.84.84,0,0,1,.6.32,1.35,1.35,0,0,1,.17.77c0,1.25,0,2.34,0,3.27S74,61.31,74,62.07c.22-.18.44-.38.65-.59a4.83,4.83,0,0,0,.56-.65,3.31,3.31,0,0,1,.22-.47,1.66,1.66,0,0,1,.32-.43,1.77,1.77,0,0,1,.41-.31,1,1,0,0,1,.48-.12l.17.06a.84.84,0,0,1,.19.09.79.79,0,0,1,.15.12.32.32,0,0,1,.06.2,1.2,1.2,0,0,1-.23.56,9.41,9.41,0,0,1-.54.8c-.2.29-.42.56-.64.83s-.39.49-.54.65a3.6,3.6,0,0,0,.79.9c.31.25.6.47.88.66l.73.5c.19.15.29.28.29.4a.53.53,0,0,1-.11.34.69.69,0,0,1-.25.2,1.58,1.58,0,0,1-.31.09l-.28,0a1.16,1.16,0,0,1-.61-.28,10,10,0,0,1-.79-.65l-.84-.77A6.74,6.74,0,0,0,74,63.6Z"/><path class="cls-3" d="M78.71,65.41a.88.88,0,0,0,0-.3c0-.15,0-.33,0-.55s0-.43,0-.67,0-.46,0-.66,0-.38,0-.53,0-.23,0-.25v-.54c0-.24,0-.48,0-.72s0-.48,0-.72V60.4a.75.75,0,0,0-.06-.29.73.73,0,0,1-.07-.3,1,1,0,0,1,.18-.33.63.63,0,0,1,.41-.11.83.83,0,0,1,.45.1.77.77,0,0,1,.24.27,1,1,0,0,1,.11.35c0,.13,0,.26,0,.38l0,.86a1.64,1.64,0,0,0,.34-.38c.12-.17.25-.35.38-.55s.27-.39.41-.57a2.43,2.43,0,0,1,.44-.46.67.67,0,0,1,.33-.07,1.18,1.18,0,0,1,.63.15,1,1,0,0,1,.37.48.84.84,0,0,1-.18.33,4,4,0,0,1-.34.39l-.39.43a4.14,4.14,0,0,0-.35.43,4.29,4.29,0,0,0-.49.64,6.71,6.71,0,0,0-.45.77,6.47,6.47,0,0,0-.32.75,1.67,1.67,0,0,0-.14.56c0,.09,0,.21,0,.37s0,.28,0,.37a2.69,2.69,0,0,1,0,.4,1.22,1.22,0,0,1-.13.38.9.9,0,0,1-.27.28.75.75,0,0,1-.42.1.68.68,0,0,1-.5-.18.63.63,0,0,1-.19-.47Z"/><path class="cls-3" d="M85.49,65.74a.89.89,0,0,1-.5-.15,5.27,5.27,0,0,0-.46-.31,2.21,2.21,0,0,1-.84-.82,2.37,2.37,0,0,1-.29-1.24,3.75,3.75,0,0,1,.12-.86l.22-.93a2.46,2.46,0,0,1,.23-.5,3.6,3.6,0,0,1,.45-.62,3.41,3.41,0,0,1,.61-.53,1.3,1.3,0,0,1,.71-.23.46.46,0,0,1,.29.1,3.58,3.58,0,0,0,.48.24l.5.2c.17.06.33.14.5.21a2.27,2.27,0,0,1,.46.3,1.09,1.09,0,0,1,.28.36c.06.14.13.28.19.41a.84.84,0,0,1,.1.33c0,.12,0,.24,0,.36v.31a2.44,2.44,0,0,1-.21.94,4.87,4.87,0,0,1-.45.84c-.09.14-.2.31-.34.49a4,4,0,0,1-.48.53,3.64,3.64,0,0,1-.55.42,1.14,1.14,0,0,1-.58.17h-.46Zm1.61-3.91a.75.75,0,0,0-.35-.69,1.4,1.4,0,0,0-.75-.22.74.74,0,0,0-.56.26,2.52,2.52,0,0,0-.39.62,3.45,3.45,0,0,0-.24.79,4.14,4.14,0,0,0-.07.73s0,.13,0,.26a3.38,3.38,0,0,0,.09.41,1.5,1.5,0,0,0,.19.38.4.4,0,0,0,.32.16.88.88,0,0,0,.33-.06l.33-.14a1.59,1.59,0,0,0,.46-.44,3.21,3.21,0,0,0,.32-.61A4.5,4.5,0,0,0,87,62.6a6.15,6.15,0,0,0,.11-.69Z"/><path class="cls-3" d="M91.41,65.74a.87.87,0,0,1-.5-.15c-.15-.11-.31-.21-.47-.31a2.11,2.11,0,0,1-.83-.82,2.37,2.37,0,0,1-.3-1.24,3.75,3.75,0,0,1,.12-.86c.09-.33.16-.64.22-.93a3.18,3.18,0,0,1,.23-.5,3.6,3.6,0,0,1,.45-.62,3.16,3.16,0,0,1,.62-.53,1.27,1.27,0,0,1,.7-.23.51.51,0,0,1,.3.1,3,3,0,0,0,.47.24l.5.2c.17.06.34.14.5.21a2,2,0,0,1,.46.3,1.09,1.09,0,0,1,.28.36c.07.14.13.28.2.41a1.39,1.39,0,0,1,.1.33c0,.12,0,.24,0,.36v.31a2.63,2.63,0,0,1-.2.94,6.78,6.78,0,0,1-.45.84c-.09.14-.21.31-.35.49a4.69,4.69,0,0,1-.47.53,4.22,4.22,0,0,1-.55.42,1.17,1.17,0,0,1-.58.17h-.46ZM93,61.83a.74.74,0,0,0-.34-.69,1.43,1.43,0,0,0-.75-.22.73.73,0,0,0-.56.26,2.26,2.26,0,0,0-.39.62,3.45,3.45,0,0,0-.24.79,4.26,4.26,0,0,0-.08.73,2.23,2.23,0,0,0,0,.26,2.17,2.17,0,0,0,.09.41,1,1,0,0,0,.19.38.4.4,0,0,0,.32.16.79.79,0,0,0,.32-.06l.33-.14a1.48,1.48,0,0,0,.46-.44,2.73,2.73,0,0,0,.32-.61,4.5,4.5,0,0,0,.2-.68,6,6,0,0,0,.1-.69Z"/><path class="cls-3" d="M104.15,61.32a6,6,0,0,0,.12,1.23c.08.39.14.81.2,1.24a2.16,2.16,0,0,0,.18.67,1.58,1.58,0,0,1,.16.69.75.75,0,0,1-.22.58.78.78,0,0,1-.53.19.59.59,0,0,1-.54-.32,2.32,2.32,0,0,1-.27-.74,4.7,4.7,0,0,1-.13-.81,3.3,3.3,0,0,0-.08-.57,2,2,0,0,1-.13-.53l-.06-.53c0-.18,0-.35,0-.53a2.82,2.82,0,0,0-.1-.54l-.32.6c-.12.21-.23.43-.35.65l-.33.66c-.11.21-.21.41-.28.58a3.63,3.63,0,0,0-.21.53c0,.17-.09.34-.14.5s-.09.33-.14.49a3.87,3.87,0,0,1-.23.53,1,1,0,0,1-.43.1.56.56,0,0,1-.48-.23,1.55,1.55,0,0,1-.26-.58,4.84,4.84,0,0,1-.14-.72,5.74,5.74,0,0,0-.09-.67c0-.21,0-.43-.09-.67a5.57,5.57,0,0,0-.14-.71c-.06-.24-.13-.46-.2-.67a2.12,2.12,0,0,0-.24-.5,1.72,1.72,0,0,0-.4.5c-.11.22-.22.45-.31.68s-.17.47-.24.69a3.2,3.2,0,0,1-.18.53,2.4,2.4,0,0,0-.28.77c0,.25-.11.49-.17.7a1.18,1.18,0,0,1-.28.52.8.8,0,0,1-.63.21.43.43,0,0,1-.25-.09.88.88,0,0,1-.21-.22,2.39,2.39,0,0,1-.13-.28,1,1,0,0,1,0-.28,1.24,1.24,0,0,0,0-.33c0-.11,0-.22,0-.34s0-.11,0-.25l0-.41,0-.42a1.52,1.52,0,0,0,0-.25c0-.61,0-1,0-1.32s0-.45,0-.55,0-.15,0-.15,0-.05,0-.14a1.27,1.27,0,0,0,0-.34,1,1,0,0,1-.06-.35.49.49,0,0,1,.19-.39.69.69,0,0,1,.43-.17.65.65,0,0,1,.46.15.85.85,0,0,1,.24.37,1.86,1.86,0,0,1,.09.48c0,.17,0,.32,0,.45a3.1,3.1,0,0,1,0,.41,3.19,3.19,0,0,0,0,.42,1.51,1.51,0,0,0,0,.26c.06-.14.14-.3.22-.47s.17-.35.26-.53.19-.36.29-.52.19-.3.29-.43.29-.33.46-.51a.81.81,0,0,1,.59-.27.85.85,0,0,1,.56.16,1,1,0,0,1,.29.41,2.33,2.33,0,0,1,.14.55,4.8,4.8,0,0,0,.11.57,10.18,10.18,0,0,1,.27,1.06c.08.39.16.75.24,1.07a2.64,2.64,0,0,1,.1-.31l.16-.39c0-.14.11-.26.16-.38s.1-.2.13-.27.21-.43.34-.68a4.23,4.23,0,0,1,.44-.69,2.75,2.75,0,0,1,.59-.54,1.55,1.55,0,0,1,.78-.27,2.68,2.68,0,0,0,.36.16.75.75,0,0,1,.28.18,1,1,0,0,1,.18.37,3.12,3.12,0,0,1,.06.7Z"/><rect class="cls-5" x="2.5" y="151.32" width="77.01" height="31.91"/><polyline class="cls-5" points="2.5 144.6 74.97 144.6 79.5 151.32"/><rect class="cls-5" x="9.7" y="155.47" width="23.03" height="23.03"/><rect class="cls-6" x="48.29" y="155.47" width="27.96" height="23.03"/><circle class="cls-5" cx="21.22" cy="169.25" r="6.73"/><circle class="cls-3" cx="15.34" cy="158.87" r="1.5"/><circle class="cls-3" cx="21.22" cy="158.87" r="1.5"/><circle class="cls-3" cx="27.1" cy="158.87" r="1.5"/><path class="cls-3" d="M327.28,262.11c.4.76.77,1.53,1.11,2.3a6.35,6.35,0,0,1,.51,2.6,3.81,3.81,0,0,1-1,2.58,3.34,3.34,0,0,1-1.08.81,3.1,3.1,0,0,1-1.35.3,1.67,1.67,0,0,1-1.16-.5,1.73,1.73,0,0,1-.58-1.12,1.42,1.42,0,0,1,.22-.35,1.13,1.13,0,0,1,.47-.19,1,1,0,0,0,.72.36,1.16,1.16,0,0,0,.9-.45,1.68,1.68,0,0,0,.39-1.14.88.88,0,0,0,0-.3,13,13,0,0,0-.84-2.45c-.34-.73-.68-1.42-1-2.06s-.61-1.24-.85-1.81a4.43,4.43,0,0,1-.36-1.73,9.74,9.74,0,0,1,.12-1.49,5.44,5.44,0,0,1,.42-1.42,3,3,0,0,1,.79-1.08,1.92,1.92,0,0,1,1.28-.42h.17l.16,0a.6.6,0,0,1,.51.31,2.85,2.85,0,0,1,.3.56.43.43,0,0,1-.17.37l-.31.29a3.2,3.2,0,0,0-.53,1.06,4.38,4.38,0,0,0-.16,1.19v.72a1.84,1.84,0,0,0,.15.6c.1.26.21.54.35.83s.25.56.38.81.24.43.32.55Z"/><path class="cls-3" d="M333,248.9a3.74,3.74,0,0,1,.09-.78l.39-.19a.87.87,0,0,1,.39-.08,1.67,1.67,0,0,1,.83.18,1.31,1.31,0,0,1,.48.45,1.76,1.76,0,0,1,.22.62,4,4,0,0,1,.06.68c0,.42,0,.78,0,1.09s0,.62,0,.92,0,.63,0,.94,0,.63,0,1,0,.45,0,.69,0,.49,0,.75a1.69,1.69,0,0,0,0,.33q0,.15.27.15a3.42,3.42,0,0,0,1.37-.26,3.42,3.42,0,0,1,1.37-.25.57.57,0,0,1,.57.33,1.58,1.58,0,0,1,.15.66.94.94,0,0,1-.18.61,1.19,1.19,0,0,1-.45.35,3.4,3.4,0,0,1-.59.19l-.61.17a4.9,4.9,0,0,1-.65.22,6.55,6.55,0,0,0-.71.26,1.92,1.92,0,0,0-.57.39.81.81,0,0,0-.24.6c0,.14,0,.27,0,.39s0,.24,0,.36,0,.25,0,.38,0,.26,0,.4a21.23,21.23,0,0,0,.2,2.81c.13,1,.27,1.9.44,2.8a8.11,8.11,0,0,0,.21.85,3.29,3.29,0,0,1,.12.78.92.92,0,0,1-.28.75,1.42,1.42,0,0,1-.6.33l-.36.06a1.17,1.17,0,0,1-.76-.29,2.52,2.52,0,0,1-.59-.7,6.21,6.21,0,0,1-.25-1.14c-.07-.49-.12-.93-.14-1.33-.06-1-.1-1.95-.12-2.92l-.06-2.93a1.55,1.55,0,0,0,0-.22A.79.79,0,0,0,333,259a3.2,3.2,0,0,0-.9.27,1.86,1.86,0,0,1-.84.18,1.44,1.44,0,0,1-1-.39q-.42-.39-.63-.63a3.11,3.11,0,0,1,.15-.84,4,4,0,0,1,.72-.21l.65-.12.64-.15a3.47,3.47,0,0,0,.72-.3c.32,0,.51-.13.56-.38a3.27,3.27,0,0,0,.07-.64c0-.36,0-.67,0-.92s0-.6,0-1.06c0-.3,0-.61,0-.92s0-.61,0-.91Z"/><path class="cls-3" d="M340.7,259.59q0-.81.06-1.56a6.19,6.19,0,0,1,.3-1.47.38.38,0,0,1,.16-.14,1.93,1.93,0,0,1,.32-.13l.19-.06.26-.06a2.36,2.36,0,0,1,1,.36,1,1,0,0,1,.48.87,3.72,3.72,0,0,1-.09.86,3.78,3.78,0,0,0-.09.88,9.16,9.16,0,0,1-.08,1.35,5.81,5.81,0,0,0-.07.9c0,1,0,1.85.09,2.66s.11,1.42.15,1.84a1.82,1.82,0,0,0,1.06-.82,13.22,13.22,0,0,0,1.16-1.85,23.89,23.89,0,0,0,1.05-2.28q.48-1.2.78-2.13a2.34,2.34,0,0,0,.11-.78,2.28,2.28,0,0,1,.07-.71.94.94,0,0,1,.41-.52,2,2,0,0,1,1.06-.21h.06l.06,0a1,1,0,0,1,.57.24,1.81,1.81,0,0,1,.48.48c0,1.18,0,2.11-.1,2.78a17,17,0,0,0-.11,1.72,13.59,13.59,0,0,0,.2,2.48,4.15,4.15,0,0,0,.64,1.66l.33.41a2.08,2.08,0,0,1,.27.47,1,1,0,0,1-.19.46.82.82,0,0,1-.32.24,1.6,1.6,0,0,1-.39.11l-.42.09a2.18,2.18,0,0,1-1.06-.54,3.1,3.1,0,0,1-.66-1A5.06,5.06,0,0,1,348,265c-.08-.45-.15-.92-.21-1.4l-.12.24-.64,1.35a12.9,12.9,0,0,1-.95,1.64,6.35,6.35,0,0,1-1.25,1.38,2.32,2.32,0,0,1-1.51.59,2.52,2.52,0,0,1-1.4-.35,2.17,2.17,0,0,1-.81-1.12,8,8,0,0,1-.39-2c-.07-.82-.1-1.83-.1-3a5.93,5.93,0,0,0,.06-.84v-1.89Z"/><path class="cls-3" d="M362,262.38a3.3,3.3,0,0,0,.1.57c.07.3.17.62.27,1s.22.67.32,1a5.1,5.1,0,0,0,.24.66,2.91,2.91,0,0,1,.27.69,5.19,5.19,0,0,0,.24.73,1,1,0,0,1-.3.84,1,1,0,0,1-.6.24h-.38a1.22,1.22,0,0,1-.37,0,5,5,0,0,1-.57-.27,1.79,1.79,0,0,1-.57-.84,2.64,2.64,0,0,1-.3-.77c-.1-.37-.2-.77-.29-1.19s-.18-.81-.27-1.18a4.28,4.28,0,0,0-.25-.8,8.82,8.82,0,0,1-.72,2.21,7.14,7.14,0,0,1-1.11,1.67,4.84,4.84,0,0,1-1.32,1.05,2.91,2.91,0,0,1-1.35.36,2.48,2.48,0,0,1-2.2-1,4.32,4.32,0,0,1-.69-2.51,8.22,8.22,0,0,1,.26-1.92,11.56,11.56,0,0,1,.72-2.07,10.29,10.29,0,0,1,1.13-1.92,6,6,0,0,1,1.44-1.44,3,3,0,0,0,.42-.3,1.42,1.42,0,0,1,.9-.24,2.86,2.86,0,0,1,.82.12l.8.24q0-1.05-.09-2.07t-.09-2c0-.06,0-.32,0-.77s0-1,0-1.57v-.62c0-.21,0-.42,0-.64a1.53,1.53,0,0,0,0-.53.59.59,0,0,1,.18-.5,1.34,1.34,0,0,1,.61-.43,2.2,2.2,0,0,1,.74-.14,1,1,0,0,1,.84.41,1.47,1.47,0,0,1,.3.89c0,.68,0,1.32-.08,1.93s-.07,1.29-.07,2c0,.46,0,1,.09,1.63s.12,1.21.18,1.73.08.88.12,1.38.09,1,.15,1.52.13,1,.21,1.48a9.48,9.48,0,0,0,.3,1.29Zm-7.14,3.6a1.47,1.47,0,0,0,1.08-.45,4.4,4.4,0,0,0,.78-1.08,9.73,9.73,0,0,0,.57-1.32,12.45,12.45,0,0,1,.48-1.2q.12-.45.27-.9a3,3,0,0,0,.15-1c0-.06,0-.09-.11-.1l-.25,0-.3-.05a.27.27,0,0,1-.21-.18c0-.1,0-.2,0-.3s0-.2,0-.3h-.17l-.19,0a10.83,10.83,0,0,1-1,1.22,3.88,3.88,0,0,0-.79,1.39l-.32.95a6.78,6.78,0,0,0-.21.76c-.05.24-.09.49-.12.74a6.93,6.93,0,0,0,0,.82,1.26,1.26,0,0,0,.12.51A4.5,4.5,0,0,1,354.84,266Z"/><path class="cls-3" d="M368.73,267.28a1.07,1.07,0,0,1-.12.48,2.39,2.39,0,0,1-.45.57,4.62,4.62,0,0,1-.94-.09,1.64,1.64,0,0,1-.75-.36,1.79,1.79,0,0,1-.5-.78,4.3,4.3,0,0,1-.18-1.39,5,5,0,0,0-.1-1,5.05,5.05,0,0,1-.11-1,22.51,22.51,0,0,0-.18-2.91,22.51,22.51,0,0,1-.18-2.91,1.07,1.07,0,0,1,.51-1,4.71,4.71,0,0,1,.57-.14l.6-.1a1.35,1.35,0,0,1,.63.34l.39.44c0,.2,0,.4,0,.6s0,.41,0,.63q0,1.14.12,2.43t.27,2.46c.1.78.2,1.49.29,2.13s.15,1.14.19,1.48Zm-2.64-16.9a.76.76,0,0,1,.54-.15,2,2,0,0,1,.62.1,2.13,2.13,0,0,1,.58.3,1.84,1.84,0,0,1,.44.44.88.88,0,0,1,.16.51.86.86,0,0,1-.28.76,1.41,1.41,0,0,1-.8.2,2.29,2.29,0,0,1-.67-.11,3.21,3.21,0,0,1-.62-.25,1.92,1.92,0,0,1-.43-.32.46.46,0,0,1-.17-.31,2.35,2.35,0,0,1,.08-.63C365.59,250.74,365.77,250.56,366.09,250.38Z"/><path class="cls-3" d="M374.47,268.18a1.57,1.57,0,0,1-.92-.29c-.27-.19-.55-.37-.85-.55a4.06,4.06,0,0,1-1.54-1.51,4.47,4.47,0,0,1-.54-2.28,6.75,6.75,0,0,1,.23-1.57c.15-.61.28-1.18.4-1.7a4.41,4.41,0,0,1,.42-.91,6.6,6.6,0,0,1,.83-1.14,5.9,5.9,0,0,1,1.13-1,2.3,2.3,0,0,1,1.29-.42,1,1,0,0,1,.54.18,5.13,5.13,0,0,0,.87.45l.91.36c.31.12.62.25.92.39a3.75,3.75,0,0,1,.84.54,1.84,1.84,0,0,1,.51.66l.36.75a1.76,1.76,0,0,1,.18.62c0,.21,0,.42,0,.64V262a4.7,4.7,0,0,1-.38,1.73,10.86,10.86,0,0,1-.82,1.54q-.24.39-.63.9a7.94,7.94,0,0,1-.87,1,5.94,5.94,0,0,1-1,.76,2,2,0,0,1-1.06.32l-.32,0h-.52Zm2.94-7.18a1.37,1.37,0,0,0-.63-1.26,2.57,2.57,0,0,0-1.38-.39,1.33,1.33,0,0,0-1,.47,4.27,4.27,0,0,0-.72,1.14,6.18,6.18,0,0,0-.44,1.44,7.82,7.82,0,0,0-.14,1.33c0,.08,0,.24.05.48a3.65,3.65,0,0,0,.17.75,2,2,0,0,0,.34.69.71.71,0,0,0,.59.3,1.64,1.64,0,0,0,.6-.1c.18-.07.38-.15.6-.26a2.93,2.93,0,0,0,.84-.81,4.88,4.88,0,0,0,.58-1.11,8.35,8.35,0,0,0,.36-1.26,12.58,12.58,0,0,0,.2-1.26Z"/><path class="cls-3" d="M345.5,299.33a.07.07,0,0,1,0-.05.05.05,0,0,0,0,0c.08-.34.2-.77.36-1.28a7.13,7.13,0,0,1,.93-1.78l1.38-2.05a14,14,0,0,1-1.11-2.7,9.49,9.49,0,0,1-.39-2.64,7.13,7.13,0,0,1,.09-1.17,5.13,5.13,0,0,1,.47-1.32,5.51,5.51,0,0,1,.88-1.28,4.94,4.94,0,0,1,1.25-1,3.12,3.12,0,0,1,1.54-.39h.33l.33.05a1.68,1.68,0,0,1,1,.75,3,3,0,0,1,.48,1.8c0,.12,0,.24,0,.36s0,.25,0,.39a16,16,0,0,1-1.06,3.5c-.49,1.13-1,2.24-1.58,3.34q0,.39.63.78l1.77,1.69a6,6,0,0,0,.71-1.52,9.32,9.32,0,0,0,.31-1.52.39.39,0,0,0-.21-.28c-.12-.07-.24-.14-.37-.2a2.12,2.12,0,0,1-.36-.21.45.45,0,0,1-.17-.39q.09-.66,1-.81l2.2-.15.55,0,.5,0q1.5,0,1.83,1.08a1.58,1.58,0,0,1-1.5.9l-.63.09-.3.06-.11.05-.1,0-.06.24a6.9,6.9,0,0,1-.24,1c-.12.37-.27.8-.43,1.28-.22.32-.42.63-.61.93s-.4.61-.62.93c.46.4.92.84,1.39,1.32s1,1.05,1.59,1.71a.41.41,0,0,1,.12.3.31.31,0,0,1,0,.18.64.64,0,0,1-.21.43.67.67,0,0,1-.39.11l-.23,0-.25,0a3.34,3.34,0,0,1-.78-.23,2.41,2.41,0,0,1-.62-.4q-.31-.27-.72-.69c-.27-.28-.65-.65-1.13-1.11a11.81,11.81,0,0,1-.9.87q-.42.36-.9.72a8,8,0,0,1-1.57,1,3.76,3.76,0,0,1-1.55.36,1.94,1.94,0,0,1-.45,0,3.17,3.17,0,0,1-1.47-.63,1.77,1.77,0,0,1-.6-1.47v-.24a1.39,1.39,0,0,1,0-.27Zm3.12-2a4.51,4.51,0,0,0-.63,1.65.88.88,0,0,0,0,.3,1.9,1.9,0,0,0,.09.58c.06.19.16.29.3.29a1.8,1.8,0,0,0,1-.36,7.11,7.11,0,0,0,.93-.78,10.93,10.93,0,0,0,.93-1.14.8.8,0,0,0-.25-.47,8.16,8.16,0,0,0-.59-.58l-.61-.56a2.86,2.86,0,0,1-.35-.34Zm.69-5.08a4.49,4.49,0,0,1,.27-.75l.53-1.24c.19-.45.36-.9.52-1.34a6.27,6.27,0,0,0,.3-1,2.8,2.8,0,0,0,0-.4v-.8a2.19,2.19,0,0,0,0-.36l-.16-.15a.55.55,0,0,0-.23-.09h-.1a.2.2,0,0,0-.11,0,1.11,1.11,0,0,0-1,.62,4.14,4.14,0,0,0-.53,1.39c0,.16,0,.34,0,.53s0,.38,0,.58a10.23,10.23,0,0,0,.12,1.52A6.89,6.89,0,0,0,349.31,292.21Z"/><path class="cls-3" d="M297.41,321.59a9.12,9.12,0,0,1,.29-2.24,6.9,6.9,0,0,1,.85-2,4.8,4.8,0,0,1,1.41-1.46,3.46,3.46,0,0,1,2-.55,3.55,3.55,0,0,1,1.36.24,3,3,0,0,1,1,.63,2.55,2.55,0,0,1,.58.88,2.83,2.83,0,0,1,.2,1,3.72,3.72,0,0,1-1,2.49,3.66,3.66,0,0,1-1.19.82,4.23,4.23,0,0,1-1.61.35,2.47,2.47,0,0,1-.68,0,6.6,6.6,0,0,1-.7-.18,1.29,1.29,0,0,0,0,.25V322a3.88,3.88,0,0,0,.37,1.74,2.84,2.84,0,0,0,.71.95,2,2,0,0,0,.76.4,2.52,2.52,0,0,0,.48.09,2.66,2.66,0,0,0,1.54-.42l1.37-.93.33.14a.78.78,0,0,1,.33.28,2.84,2.84,0,0,0,.06.29,1.19,1.19,0,0,1,0,.31,1.42,1.42,0,0,1-.23.71,2.56,2.56,0,0,1-.43.49,4.14,4.14,0,0,1-1.46.86,6.48,6.48,0,0,1-1.75.19,4.27,4.27,0,0,1-1.19-.21,7.49,7.49,0,0,1-1.19-.45,5.53,5.53,0,0,1-1.12-1.08,4.57,4.57,0,0,1-.63-1.14,5.19,5.19,0,0,1-.3-1.25C297.47,322.52,297.43,322.07,297.41,321.59ZM300,320a2.44,2.44,0,0,0,.38,0l.4,0a2.24,2.24,0,0,0,1.58-.51,1.62,1.62,0,0,0,.56-1.23,1.38,1.38,0,0,0-.24-.78.75.75,0,0,0-.66-.36,2.88,2.88,0,0,0-.59.06.64.64,0,0,0-.43.3l-.27.3a1.41,1.41,0,0,0-.29.42,3.38,3.38,0,0,0-.25.67A4.94,4.94,0,0,0,300,320Z"/><path class="cls-3" d="M309.3,326a6.17,6.17,0,0,1-.63-1.26,13.63,13.63,0,0,1-.47-1.49c-.13-.51-.23-1-.31-1.48a11.77,11.77,0,0,1-.15-1.26,7.9,7.9,0,0,0-.47-2,5.79,5.79,0,0,1-.37-2,.56.56,0,0,1,.45-.62,3.69,3.69,0,0,1,.84-.1,1.77,1.77,0,0,1,.34,0,2,2,0,0,1,.45.15,2.26,2.26,0,0,1,.42.26.65.65,0,0,1,.26.36,9.2,9.2,0,0,0,.12,1.38c.08.52.18,1,.29,1.54s.21,1,.31,1.44.17.82.21,1.1a6.7,6.7,0,0,0,1-1.73q.43-1.09.9-2.16a11.29,11.29,0,0,1,1-1.87,1.87,1.87,0,0,1,1.33-.9,5.17,5.17,0,0,1,1,.07,1.24,1.24,0,0,1,.54.23.72.72,0,0,1,.24.39q.06.24.12.57a12.77,12.77,0,0,0-.88,1.09c-.25.35-.49.71-.71,1.07s-.43.74-.63,1.14l-.66,1.29-.13.31a3.24,3.24,0,0,1-.17.32,4.73,4.73,0,0,0-.67,1.37c-.17.53-.36,1-.57,1.54a5.65,5.65,0,0,1-.77,1.32,1.78,1.78,0,0,1-1.26.66Z"/><path class="cls-3" d="M317.55,321.59a9.12,9.12,0,0,1,.29-2.24,6.9,6.9,0,0,1,.85-2,4.72,4.72,0,0,1,1.42-1.46,3.43,3.43,0,0,1,1.95-.55,3.55,3.55,0,0,1,1.36.24,3,3,0,0,1,1,.63,2.55,2.55,0,0,1,.58.88,2.83,2.83,0,0,1,.2,1,3.72,3.72,0,0,1-1,2.49,3.66,3.66,0,0,1-1.19.82,4.22,4.22,0,0,1-1.6.35,2.54,2.54,0,0,1-.69,0,6.48,6.48,0,0,1-.69-.18,1.29,1.29,0,0,0,0,.25V322a3.76,3.76,0,0,0,.36,1.74,3,3,0,0,0,.72.95,2,2,0,0,0,.75.4,2.52,2.52,0,0,0,.48.09,2.66,2.66,0,0,0,1.54-.42l1.37-.93.33.14a.78.78,0,0,1,.33.28,2.84,2.84,0,0,0,.06.29,1.19,1.19,0,0,1,0,.31,1.42,1.42,0,0,1-.23.71,2.56,2.56,0,0,1-.43.49,4.14,4.14,0,0,1-1.46.86,6.48,6.48,0,0,1-1.75.19,4.33,4.33,0,0,1-1.19-.21,7.88,7.88,0,0,1-1.19-.45,5.53,5.53,0,0,1-1.12-1.08,4.57,4.57,0,0,1-.63-1.14,5.19,5.19,0,0,1-.3-1.25C317.61,322.52,317.57,322.07,317.55,321.59Zm2.61-1.62a2.6,2.6,0,0,0,.38,0l.41,0a2.23,2.23,0,0,0,1.57-.51,1.62,1.62,0,0,0,.56-1.23,1.38,1.38,0,0,0-.24-.78.75.75,0,0,0-.66-.36,2.88,2.88,0,0,0-.59.06.64.64,0,0,0-.43.3,3.65,3.65,0,0,1-.27.3,1.62,1.62,0,0,0-.29.42,3.38,3.38,0,0,0-.25.67A6.57,6.57,0,0,0,320.16,320Z"/><path class="cls-3" d="M330.25,322.31a3.07,3.07,0,0,0,.68-1.08c.17-.44.33-.86.49-1.26l.06-.18a11.91,11.91,0,0,1,.54-1.19,9.48,9.48,0,0,1,.84-1.35,5.74,5.74,0,0,1,1.05-1.09,1.87,1.87,0,0,1,1.17-.45,1.46,1.46,0,0,1,.77.48,2.44,2.44,0,0,1,.39.73q.13.4.24.84a4.5,4.5,0,0,0,.28.83,8.6,8.6,0,0,1,.59,1.86q.19,1,.33,2c.09.68.19,1.35.32,2a8,8,0,0,0,.54,1.83.88.88,0,0,1-.53.71,1.94,1.94,0,0,1-.83.22,1,1,0,0,1-.84-.4,3,3,0,0,1-.46-1,8,8,0,0,1-.24-1.22,6.79,6.79,0,0,0-.2-1.05,8.14,8.14,0,0,1-.24-1.16c-.06-.43-.13-.86-.21-1.3a12.46,12.46,0,0,0-.28-1.23,2.54,2.54,0,0,0-.47-.93,12.15,12.15,0,0,0-.82,1.51q-.32.71-.57,1.35l-.5,1.26a8.9,8.9,0,0,1-.6,1.25,9.4,9.4,0,0,1-.87,1.35,3.64,3.64,0,0,1-.72.71,1.54,1.54,0,0,1-.63.27,3.82,3.82,0,0,1-.57,0,1.4,1.4,0,0,1-.74-.3.86.86,0,0,1-.43-.72c0-1.26,0-2.43,0-3.51s0-2.22,0-3.42c0-.34,0-.69,0-1s0-.69,0-1a1.94,1.94,0,0,1,.13-.71.87.87,0,0,1,.47-.49l.36,0h.33a.8.8,0,0,1,.61.22,1.28,1.28,0,0,1,.34.56,3.12,3.12,0,0,1,.13.69q0,.36,0,.6a2.59,2.59,0,0,0,.08.63,2.59,2.59,0,0,1,.07.63q0,1.11,0,1.89t0,1.5Z"/><path class="cls-3" d="M342.5,307.48a3.74,3.74,0,0,1,.09-.78l.39-.19a.87.87,0,0,1,.39-.08,1.63,1.63,0,0,1,.82.18,1.31,1.31,0,0,1,.48.45,1.77,1.77,0,0,1,.23.62,3.88,3.88,0,0,1,.06.67c0,.42,0,.79,0,1.1s0,.61,0,.91,0,.64,0,.95,0,.62,0,.94,0,.45,0,.69,0,.49,0,.75a1.69,1.69,0,0,0,0,.33c0,.11.11.15.27.15a3.37,3.37,0,0,0,1.36-.25,3.45,3.45,0,0,1,1.37-.26.57.57,0,0,1,.57.33,1.65,1.65,0,0,1,.15.66,1,1,0,0,1-.18.62,1.19,1.19,0,0,1-.45.35,3.29,3.29,0,0,1-.58.19l-.62.17a4.9,4.9,0,0,1-.65.22,4.82,4.82,0,0,0-.7.26,1.92,1.92,0,0,0-.57.39.81.81,0,0,0-.24.6c0,.14,0,.27,0,.39s0,.24,0,.36,0,.24,0,.37,0,.27,0,.41a21,21,0,0,0,.19,2.8c.13,1,.28,1.91.44,2.81q.09.42.21.84a2.85,2.85,0,0,1,.12.78,1,1,0,0,1-.27.75,1.48,1.48,0,0,1-.6.33l-.36.06a1.18,1.18,0,0,1-.77-.28,2.54,2.54,0,0,1-.58-.71,6.11,6.11,0,0,1-.26-1.14c-.07-.48-.11-.92-.13-1.32-.06-1-.1-2-.12-2.93l-.06-2.92a1.64,1.64,0,0,0,0-.23.7.7,0,0,0-.07-.22,3.2,3.2,0,0,0-.9.27,1.86,1.86,0,0,1-.84.18,1.44,1.44,0,0,1-1-.39q-.42-.39-.63-.63a3.11,3.11,0,0,1,.15-.84,4,4,0,0,1,.72-.21l.64-.12.65-.15a3.47,3.47,0,0,0,.72-.3c.32,0,.5-.13.55-.38a3.37,3.37,0,0,0,.08-.65c0-.36,0-.66,0-.91s0-.61,0-1.07c0-.3,0-.6,0-.91s0-.62,0-.92Z"/><path class="cls-3" d="M357.84,326.15a1.91,1.91,0,0,0,.07-.55c0-.27,0-.61,0-1s0-.79,0-1.23,0-.85,0-1.22,0-.69,0-1,0-.42,0-.46v-1c0-.44,0-.88,0-1.32s-.05-.88-.07-1.32V317a1.24,1.24,0,0,0-.12-.53,1.26,1.26,0,0,1-.12-.55,1.43,1.43,0,0,1,.33-.6,1.05,1.05,0,0,1,.75-.21,1.47,1.47,0,0,1,.81.19,1.29,1.29,0,0,1,.45.48,1.9,1.9,0,0,1,.19.65c0,.24.06.47.08.69l.09,1.59a3.53,3.53,0,0,0,.63-.71c.22-.31.45-.64.69-1s.49-.71.75-1.05a4.65,4.65,0,0,1,.81-.84,1.34,1.34,0,0,1,.6-.12,2.15,2.15,0,0,1,1.15.27,1.75,1.75,0,0,1,.68.87,1.61,1.61,0,0,1-.33.61c-.18.23-.39.47-.62.72l-.72.78a7.23,7.23,0,0,0-.64.8,8.5,8.5,0,0,0-.9,1.17,14.23,14.23,0,0,0-.81,1.41,13.88,13.88,0,0,0-.6,1.36,3.24,3.24,0,0,0-.24,1c0,.16,0,.39,0,.68s0,.51,0,.67a4.71,4.71,0,0,1-.06.74,2,2,0,0,1-.24.69,1.47,1.47,0,0,1-.48.51,1.41,1.41,0,0,1-.78.19,1.25,1.25,0,0,1-.92-.34,1.17,1.17,0,0,1-.34-.86Z"/><path class="cls-3" d="M370.26,326.75a1.53,1.53,0,0,1-.91-.28c-.27-.19-.56-.38-.86-.56a4.08,4.08,0,0,1-1.53-1.5,4.47,4.47,0,0,1-.54-2.28,6.82,6.82,0,0,1,.23-1.58c.15-.61.28-1.17.4-1.69a4.44,4.44,0,0,1,.42-.92,6.6,6.6,0,0,1,.83-1.14,5.79,5.79,0,0,1,1.12-1,2.3,2.3,0,0,1,1.29-.42,1,1,0,0,1,.54.18,5.13,5.13,0,0,0,.87.45l.92.36c.31.12.62.25.92.39a4,4,0,0,1,.84.54,1.84,1.84,0,0,1,.51.66l.36.75a1.71,1.71,0,0,1,.18.61c0,.21,0,.43,0,.65v.57a4.65,4.65,0,0,1-.38,1.72,11,11,0,0,1-.82,1.55c-.17.26-.38.56-.64.9a7.12,7.12,0,0,1-.87,1,5.94,5.94,0,0,1-1,.77,2.06,2.06,0,0,1-1.07.31h-.31l-.35,0Zm2.95-7.17a1.38,1.38,0,0,0-.64-1.26,2.57,2.57,0,0,0-1.38-.39,1.32,1.32,0,0,0-1,.46,4.27,4.27,0,0,0-.72,1.14A6.16,6.16,0,0,0,369,321a7.93,7.93,0,0,0-.14,1.34c0,.08,0,.24.05.48a4.39,4.39,0,0,0,.16.75,2.24,2.24,0,0,0,.35.69.69.69,0,0,0,.58.3,1.64,1.64,0,0,0,.6-.1l.6-.26a2.93,2.93,0,0,0,.84-.81,4.91,4.91,0,0,0,.59-1.11A8.35,8.35,0,0,0,373,321c.09-.44.15-.86.2-1.26Z"/><path class="cls-3" d="M381.1,326.75a1.56,1.56,0,0,1-.92-.28c-.27-.19-.55-.38-.85-.56a4.08,4.08,0,0,1-1.53-1.5,4.47,4.47,0,0,1-.54-2.28,6.75,6.75,0,0,1,.22-1.58c.15-.61.29-1.17.41-1.69a4.44,4.44,0,0,1,.42-.92,6.52,6.52,0,0,1,.82-1.14,5.85,5.85,0,0,1,1.13-1,2.3,2.3,0,0,1,1.29-.42,1,1,0,0,1,.54.18,5.13,5.13,0,0,0,.87.45l.92.36c.31.12.61.25.91.39a3.75,3.75,0,0,1,.84.54,1.84,1.84,0,0,1,.51.66l.36.75a1.71,1.71,0,0,1,.18.61c0,.21,0,.43,0,.65v.57a4.64,4.64,0,0,1-.37,1.72,11,11,0,0,1-.83,1.55q-.24.39-.63.9a7.86,7.86,0,0,1-.87,1,6,6,0,0,1-1,.77,2,2,0,0,1-1.06.31h-.32l-.34,0Zm2.94-7.17a1.37,1.37,0,0,0-.63-1.26,2.57,2.57,0,0,0-1.38-.39,1.32,1.32,0,0,0-1,.46,4.27,4.27,0,0,0-.72,1.14,6.18,6.18,0,0,0-.44,1.44,7.81,7.81,0,0,0-.13,1.34,4.36,4.36,0,0,0,0,.48,4.45,4.45,0,0,0,.17.75,2.22,2.22,0,0,0,.34.69.71.71,0,0,0,.59.3,1.64,1.64,0,0,0,.6-.1l.6-.26a2.93,2.93,0,0,0,.84-.81,5.35,5.35,0,0,0,.59-1.11,8.35,8.35,0,0,0,.36-1.26,12.45,12.45,0,0,0,.19-1.26Z"/><path class="cls-3" d="M404.45,318.65a11.64,11.64,0,0,0,.21,2.26c.14.71.26,1.47.36,2.27a4,4,0,0,0,.35,1.23,3,3,0,0,1,.28,1.26,1.33,1.33,0,0,1-.4,1.05,1.43,1.43,0,0,1-1,.36,1.07,1.07,0,0,1-1-.58,4.51,4.51,0,0,1-.51-1.35,11.61,11.61,0,0,1-.23-1.5,5.63,5.63,0,0,0-.15-1,4.25,4.25,0,0,1-.24-1c0-.33-.07-.65-.1-1l-.09-1a5.27,5.27,0,0,0-.2-1l-.58,1.09-.64,1.2-.61,1.2c-.2.39-.37.75-.51,1.07a6.77,6.77,0,0,0-.38,1c-.09.31-.17.61-.25.91s-.17.6-.27.9a6.39,6.39,0,0,1-.42,1,1.72,1.72,0,0,1-.78.18,1.05,1.05,0,0,1-.89-.42,3,3,0,0,1-.48-1,9.08,9.08,0,0,1-.24-1.32c-.05-.46-.1-.87-.16-1.23s-.1-.79-.17-1.23-.16-.88-.27-1.31-.23-.83-.36-1.21a4.06,4.06,0,0,0-.43-.93,2.84,2.84,0,0,0-.74.93,12.71,12.71,0,0,0-.57,1.24,11.74,11.74,0,0,0-.43,1.26,7.65,7.65,0,0,1-.34,1,4.59,4.59,0,0,0-.52,1.4q-.14.7-.3,1.29a2.32,2.32,0,0,1-.51,1,1.52,1.52,0,0,1-1.16.37.76.76,0,0,1-.46-.16,1.49,1.49,0,0,1-.38-.41,2.38,2.38,0,0,1-.24-.51,1.61,1.61,0,0,1-.09-.51,4.11,4.11,0,0,0,.08-.6c0-.2,0-.41,0-.63q0-.09,0-.45c0-.24,0-.49.06-.77s0-.52.06-.76,0-.39,0-.45c0-1.12,0-1.93,0-2.42s0-.82-.06-1a.71.71,0,0,0-.06-.29s0-.09,0-.25a1.89,1.89,0,0,0-.1-.63,1.9,1.9,0,0,1-.11-.63.91.91,0,0,1,.36-.72,1.19,1.19,0,0,1,.78-.3,1.21,1.21,0,0,1,.84.27,1.54,1.54,0,0,1,.44.67,3.44,3.44,0,0,1,.16.87c0,.31,0,.59,0,.83a7,7,0,0,1,0,.75,7.43,7.43,0,0,0-.05.78,2.58,2.58,0,0,0,.06.48l.41-.87c.15-.32.31-.65.48-1s.34-.64.53-.94a5.58,5.58,0,0,1,.54-.78c.24-.3.52-.62.84-.95a1.47,1.47,0,0,1,1.08-.49,1.55,1.55,0,0,1,1,.3,1.86,1.86,0,0,1,.54.75,4.18,4.18,0,0,1,.25,1,9.61,9.61,0,0,0,.2,1c.18.58.34,1.23.49,1.95s.3,1.37.44,1.95c0-.14.1-.33.19-.56l.29-.72q.15-.37.3-.69l.24-.49c.18-.38.38-.8.61-1.25a7.52,7.52,0,0,1,.81-1.26,4.93,4.93,0,0,1,1.09-1,2.83,2.83,0,0,1,1.42-.48,5.62,5.62,0,0,0,.66.28,1.25,1.25,0,0,1,.51.33,1.6,1.6,0,0,1,.33.68,5.3,5.3,0,0,1,.12,1.29Z"/><rect class="cls-7" x="272.86" y="397.37" width="157.19" height="172.83"/><path class="cls-3" d="M291.36,426.36c0-.48.08-1,.14-1.58a18.11,18.11,0,0,0,.09-1.86V420.2c0-1.15,0-2.19,0-3.12a18.76,18.76,0,0,1,.23-2.6c.17-1,1-1.42,2.57-1.42h.35a3.05,3.05,0,0,1,2.35,1.35,4,4,0,0,1,.92,2.59,3.94,3.94,0,0,1-.87,2.35,6.67,6.67,0,0,1-1.82,1.7,1.92,1.92,0,0,0-.35.23.35.35,0,0,0-.13.26.37.37,0,0,0,.12.29,4,4,0,0,0,.38.34l.8.67,2.77,2.6c.57.53,1.06,1,1.48,1.48a7.36,7.36,0,0,1,1,1.32.4.4,0,0,1,.07.22c0,.38-.4.67-1.19.87a25.34,25.34,0,0,1-3.3-3.14q-1.12-1.2-1.92-2t-1.35-1.29c0,.22-.07.61-.11,1.18s-.1,1.3-.16,2.22a18.49,18.49,0,0,1-.45,3.29.7.7,0,0,0-.25.12.89.89,0,0,1-.4.11h0l-.05,0a1.39,1.39,0,0,1-1.1-1.52c0-.13,0-.29,0-.46s0-.35.08-.54Zm4.82-10.13a1.77,1.77,0,0,0-.44-1,1.44,1.44,0,0,0-1.16-.42c-.4,0-.65.12-.74.37s-.07.47-.09.71a5.74,5.74,0,0,0,0,.71c0,.22,0,.78.08,1.67,0,.19,0,.35,0,.5s0,.3,0,.43,0,.27,0,.4,0,.25,0,.35a5.31,5.31,0,0,0,2.34-3c0-.12,0-.23,0-.33a2.62,2.62,0,0,0,0-.27Z"/><path class="cls-3" d="M302.32,423.92a7.42,7.42,0,0,1,.24-1.86,5.69,5.69,0,0,1,.71-1.69,4.1,4.1,0,0,1,1.17-1.21,2.88,2.88,0,0,1,1.63-.46,3,3,0,0,1,1.13.2,2.36,2.36,0,0,1,.81.52,2.22,2.22,0,0,1,.49.74,2.27,2.27,0,0,1,.16.86,3,3,0,0,1-.82,2.07,3.08,3.08,0,0,1-1,.69,3.66,3.66,0,0,1-1.33.29,2.64,2.64,0,0,1-.58,0,4.91,4.91,0,0,1-.57-.15,1,1,0,0,0,0,.21v.14a3.45,3.45,0,0,0,.3,1.45,2.76,2.76,0,0,0,.6.79,1.75,1.75,0,0,0,.63.33,2.21,2.21,0,0,0,.4.08,2.24,2.24,0,0,0,1.28-.35l1.14-.78.27.12a.73.73,0,0,1,.28.23,1.11,1.11,0,0,0,.05.24,1.61,1.61,0,0,1,0,.26,1.18,1.18,0,0,1-.19.59,1.77,1.77,0,0,1-.36.41,3.31,3.31,0,0,1-1.21.71,5.26,5.26,0,0,1-1.46.17,3.47,3.47,0,0,1-1-.18,6.75,6.75,0,0,1-1-.37,4.8,4.8,0,0,1-.94-.9,3.85,3.85,0,0,1-.52-1,4.05,4.05,0,0,1-.25-1C302.37,424.7,302.34,424.32,302.32,423.92Zm2.17-1.35a1.69,1.69,0,0,0,.32,0h.33a1.82,1.82,0,0,0,1.31-.43,1.33,1.33,0,0,0,.47-1,1.18,1.18,0,0,0-.2-.65.64.64,0,0,0-.55-.3,2.63,2.63,0,0,0-.49,0,.56.56,0,0,0-.36.25,1.79,1.79,0,0,1-.23.25,1.41,1.41,0,0,0-.23.35,3.44,3.44,0,0,0-.22.56A6.25,6.25,0,0,0,304.49,422.57Z"/><path class="cls-3" d="M312.88,424.52a2.7,2.7,0,0,0,.56-.9c.14-.37.28-.72.41-1.05l.06-.15a7.48,7.48,0,0,1,.44-1,8.72,8.72,0,0,1,.7-1.12,4.77,4.77,0,0,1,.88-.91,1.55,1.55,0,0,1,1-.38,1.28,1.28,0,0,1,.64.4,2.1,2.1,0,0,1,.32.61c.08.23.14.46.2.7a3.74,3.74,0,0,0,.24.69,7.58,7.58,0,0,1,.49,1.55c.1.55.2,1.1.27,1.67s.16,1.12.26,1.67a7.17,7.17,0,0,0,.45,1.53.71.71,0,0,1-.44.58,1.5,1.5,0,0,1-.68.19.81.81,0,0,1-.7-.34,2.4,2.4,0,0,1-.39-.82,6.69,6.69,0,0,1-.2-1,5.39,5.39,0,0,0-.16-.88,7,7,0,0,1-.2-1c-.05-.36-.11-.72-.17-1.08s-.15-.71-.24-1a2.07,2.07,0,0,0-.39-.77,10,10,0,0,0-.68,1.26c-.18.39-.34.77-.48,1.12l-.41,1a7.56,7.56,0,0,1-.5,1,8.51,8.51,0,0,1-.72,1.12,3.26,3.26,0,0,1-.6.59,1.3,1.3,0,0,1-.53.22,2.56,2.56,0,0,1-.47,0,1.11,1.11,0,0,1-.61-.25.74.74,0,0,1-.37-.6c0-1.05,0-2,0-2.92s0-1.85,0-2.85c0-.28,0-.56,0-.86s0-.57,0-.86a1.66,1.66,0,0,1,.11-.58.77.77,0,0,1,.39-.42h.57a.66.66,0,0,1,.51.19,1.08,1.08,0,0,1,.28.46,2.13,2.13,0,0,1,.11.57c0,.2,0,.37,0,.5a2.33,2.33,0,0,0,.06.53,2.18,2.18,0,0,1,.06.52c0,.62,0,1.14,0,1.57s0,.85,0,1.25Z"/><path class="cls-3" d="M323.07,412.18a3.14,3.14,0,0,1,.07-.65l.33-.16a.73.73,0,0,1,.32-.06,1.41,1.41,0,0,1,.69.15,1.3,1.3,0,0,1,.4.37,1.39,1.39,0,0,1,.18.52,2.71,2.71,0,0,1,.05.56c0,.35,0,.65,0,.91s0,.51,0,.76,0,.53,0,.79,0,.52,0,.78,0,.38,0,.58,0,.41,0,.62a1.27,1.27,0,0,0,0,.28c0,.08.09.12.22.12a2.9,2.9,0,0,0,1.14-.21,2.81,2.81,0,0,1,1.13-.21.47.47,0,0,1,.48.27,1.37,1.37,0,0,1,.12.55.78.78,0,0,1-.15.51,1,1,0,0,1-.37.29,2.35,2.35,0,0,1-.49.16l-.51.14a3.71,3.71,0,0,1-.54.19,3.63,3.63,0,0,0-.58.21,1.61,1.61,0,0,0-.48.32.7.7,0,0,0-.2.5,3.25,3.25,0,0,0,0,.33c0,.1,0,.2,0,.3s0,.2,0,.31,0,.22,0,.33a17.43,17.43,0,0,0,.17,2.34c.1.81.22,1.58.36,2.33.05.24.11.47.17.7a2.29,2.29,0,0,1,.1.65.78.78,0,0,1-.22.62,1.19,1.19,0,0,1-.5.28l-.3,0a1,1,0,0,1-.64-.24,2.1,2.1,0,0,1-.48-.58,4.8,4.8,0,0,1-.22-.95c-.06-.4-.09-.77-.11-1.1-.05-.82-.08-1.63-.1-2.44s0-1.61-.05-2.43a1.15,1.15,0,0,0,0-.19.76.76,0,0,0-.06-.18,2.67,2.67,0,0,0-.75.22,1.57,1.57,0,0,1-.7.15,1.23,1.23,0,0,1-.85-.32,6.08,6.08,0,0,1-.52-.53,2.76,2.76,0,0,1,.12-.7,3.48,3.48,0,0,1,.6-.17l.54-.1c.17,0,.35-.08.53-.13a2.48,2.48,0,0,0,.6-.25c.27,0,.42-.1.46-.31a3.1,3.1,0,0,0,.07-.53c0-.3,0-.56,0-.77s0-.5,0-.88,0-.5,0-.76,0-.52,0-.76Z"/><path class="cls-3" d="M337.89,427.61l.15.41a1.24,1.24,0,0,1,.08.41.49.49,0,0,1-.11.33,1,1,0,0,1-.28.2,1.35,1.35,0,0,1-.34.11,1.22,1.22,0,0,1-.32,0,1,1,0,0,1-.82-.56,5.39,5.39,0,0,1-.53-1.4c-.13-.56-.24-1.15-.34-1.77s-.17-1.19-.26-1.69a4.48,4.48,0,0,1-.48,1.32,8,8,0,0,1-1,1.54,7.37,7.37,0,0,1-1.37,1.26,2.6,2.6,0,0,1-1.5.52,1.86,1.86,0,0,1-1-.23,1.72,1.72,0,0,1-.58-.59,2.18,2.18,0,0,1-.28-.79,4.75,4.75,0,0,1-.07-.81,6.66,6.66,0,0,1,.41-2,11.53,11.53,0,0,1,1.12-2.36,8.62,8.62,0,0,1,1.65-2,3,3,0,0,1,2-.81,2.13,2.13,0,0,1,.52.07c.19.05.38.12.58.19a4.41,4.41,0,0,1,.58.28,3.83,3.83,0,0,1,.47.31,1.75,1.75,0,0,1,.58.95,9.71,9.71,0,0,1,.22,1.24c.12.84.21,1.59.28,2.26a14.79,14.79,0,0,0,.37,2.14l.15.92Zm-7-1.3a.05.05,0,0,0,0,0s0,0,0,0a1.34,1.34,0,0,0,.75-.44,8,8,0,0,0,.85-1,11.39,11.39,0,0,0,.78-1.21,7.49,7.49,0,0,0,.54-1.13l.24-.5.27-.56a5.81,5.81,0,0,0,.23-.54,1.52,1.52,0,0,0,.08-.42l-.22-.1a.43.43,0,0,0-.23-.05,1.34,1.34,0,0,0-1,.42,4.94,4.94,0,0,0-.74.95,10.65,10.65,0,0,0-.51,1,5.69,5.69,0,0,1-.27.61,8.22,8.22,0,0,0-.59,1.35,4.43,4.43,0,0,0-.24,1.4Z"/><path class="cls-3" d="M342.66,427.79a.22.22,0,0,0,0,.1.3.3,0,0,1,0,.1.61.61,0,0,1-.34.58,1.32,1.32,0,0,1-.68.19,1.12,1.12,0,0,1-1-.69,6,6,0,0,1-.57-1.59,11.65,11.65,0,0,1-.27-1.81q-.06-.9-.06-1.35c0-.82,0-1.55,0-2.19s0-1.31,0-2a26.15,26.15,0,0,1,.13-2.68,24.09,24.09,0,0,0,.14-2.73.88.88,0,0,1,.15-.53,2.51,2.51,0,0,1,.4-.4l.49,0a1.79,1.79,0,0,1,.53.12,1.28,1.28,0,0,1,.43.28.69.69,0,0,1,.17.5,7.34,7.34,0,0,1-.12,1.31,6.54,6.54,0,0,0-.13,1.31c0,.63,0,1.2,0,1.71s0,1,0,1.51,0,.84,0,1.23,0,.79,0,1.19,0,.55,0,.81,0,.5,0,.74a12.67,12.67,0,0,0,.21,2.17C342.37,426.49,342.51,427.19,342.66,427.79Z"/><path class="cls-3" d="M292.52,451.42a2,2,0,0,1-1.45-.77,4.08,4.08,0,0,1-.82-2.67,9,9,0,0,1,.68-3.31,3.53,3.53,0,0,1,.95-1.53,2.59,2.59,0,0,1,1.73-.62,1.75,1.75,0,0,1,1.13.38,3.51,3.51,0,0,1,.86,1,2.61,2.61,0,0,1,.34.93c.06.33.11.65.16,1a6,6,0,0,1,0,.73,5.42,5.42,0,0,1-1.41,3.65,2.88,2.88,0,0,1-2.1,1.23Zm1.88-6.67a1.09,1.09,0,0,0-.48-.71.89.89,0,0,0-.38-.15.58.58,0,0,0-.35.2,5.05,5.05,0,0,0-1.39,3.64,4,4,0,0,0,.62,2.24.27.27,0,0,0,.22.15c.13,0,.34-.17.64-.51a4.54,4.54,0,0,0,1.41-3.07,4,4,0,0,0-.11-.91C294.51,445.34,294.45,445,294.4,444.75Z"/><path class="cls-3" d="M299.44,452c0,.25-.11.38-.33.38-.74,0-1.15-.16-1.22-.49a7.12,7.12,0,0,1-.19-1.11c0-.39-.05-.82-.05-1.29s.05-1.54.16-2.81.17-2.19.17-2.81a6.9,6.9,0,0,0-.09-1.13,6.1,6.1,0,0,1-.09-1,.44.44,0,0,1,.11-.28.45.45,0,0,1,.25-.21,2,2,0,0,1,.46-.1c.66,0,1,.72,1,2.14v.46c0,.82,0,1.87-.11,3.16-.05.85-.09,1.58-.11,2.18s0,1.09,0,1.44,0,.48,0,.72l0,.69Z"/><path class="cls-3" d="M303.41,450.92a1.06,1.06,0,0,1-.7-.33.88.88,0,0,1-.33-.65.54.54,0,0,1,.18-.41.56.56,0,0,1,.39-.18l.69.06a.59.59,0,0,1,.5.44,2.26,2.26,0,0,1,.07.45.59.59,0,0,1-.18.49.8.8,0,0,1-.48.13Z"/><path class="cls-3" d="M307.24,450.47c.05-.62.08-1.18.08-1.68a12.68,12.68,0,0,1,.09-1.34,1.13,1.13,0,0,1-.31-.25.57.57,0,0,1-.11-.33.53.53,0,0,1,.21-.39,1,1,0,0,1,.37-.22c.05-.58.09-1.15.11-1.7s0-1.09,0-1.64c0-.3,0-.61,0-.9a6.1,6.1,0,0,0-.09-.87,1.33,1.33,0,0,1-1.08-.77.56.56,0,0,1,.32-.57,1.82,1.82,0,0,1,.65-.12H308a5.64,5.64,0,0,1,.76.07,7.32,7.32,0,0,1,.92.2,6.31,6.31,0,0,1,1,.37,5.9,5.9,0,0,1,1.91,1.43,2.26,2.26,0,0,1,.53,1.41.81.81,0,0,1,0,.15,1.24,1.24,0,0,1,0,.18,2.62,2.62,0,0,1-.39.87,4.17,4.17,0,0,1-.65.75,6.58,6.58,0,0,1-.81.65l-.89.59-.33.22a1,1,0,0,0,.34.36l.48.25.18.05a2.86,2.86,0,0,1,1.5,2.36,3,3,0,0,1-.59,1.8,5.55,5.55,0,0,1-1.71,1.45l-1.76,1a.69.69,0,0,1-.43.13.64.64,0,0,1-.7-.49ZM309,452c.13-.12.26-.22.38-.32l.37-.28a3.45,3.45,0,0,0,.77-.76,2.71,2.71,0,0,0,.36-.87l0-.19v-.19a1.38,1.38,0,0,0-.38-1,5.1,5.1,0,0,0-.77-.44,1.43,1.43,0,0,0-.45-.12h-.2a.78.78,0,0,0-.22,0c0,.55-.05,1.06-.08,1.52s0,.92,0,1.39c0,.19,0,.38,0,.57s0,.4.07.63Zm.27-6.67.26-.11.29-.18.33-.27a2.28,2.28,0,0,0,.49-.36,2.67,2.67,0,0,0,.41-.49,2.44,2.44,0,0,0,.28-.56,1.44,1.44,0,0,0,.11-.57.34.34,0,0,0,0-.09v-.09c-.07-.45-.45-.8-1.16-1l-.13-.07-.23-.13-.27-.13a.52.52,0,0,0-.21-.05h-.1l-.13,0a1.56,1.56,0,0,0,0,.31v.35c0,.49,0,1,0,1.64s0,1.23,0,1.89Z"/><path class="cls-3" d="M320.07,451.12c0,.1.07.2.11.31a1,1,0,0,1,.05.3.35.35,0,0,1-.08.24.6.6,0,0,1-.2.14,1,1,0,0,1-.25.08l-.23,0a.7.7,0,0,1-.61-.41,3.89,3.89,0,0,1-.38-1c-.1-.41-.18-.84-.25-1.3s-.13-.87-.19-1.23a3.44,3.44,0,0,1-.36,1,6.15,6.15,0,0,1-.75,1.13,5.46,5.46,0,0,1-1,.92,1.86,1.86,0,0,1-1.1.38,1.33,1.33,0,0,1-.72-.17,1.18,1.18,0,0,1-.43-.43,2,2,0,0,1-.2-.57,4.54,4.54,0,0,1-.05-.6,4.83,4.83,0,0,1,.3-1.49,8.19,8.19,0,0,1,.82-1.72,6.33,6.33,0,0,1,1.21-1.44,2.2,2.2,0,0,1,1.45-.59,1.8,1.8,0,0,1,.37.05l.43.14a2,2,0,0,1,.42.2c.14.08.25.16.35.23a1.23,1.23,0,0,1,.42.69,8.81,8.81,0,0,1,.17.92c.08.61.15,1.16.2,1.65a12.18,12.18,0,0,0,.27,1.56l.11.68Zm-5.15-.95v0a0,0,0,0,1,0,0,1,1,0,0,0,.55-.32,5,5,0,0,0,.62-.72,9.07,9.07,0,0,0,.58-.89,4.59,4.59,0,0,0,.39-.83l.18-.37.2-.41c.06-.14.12-.27.16-.39a1,1,0,0,0,.06-.31l-.16-.07a.29.29,0,0,0-.16,0,1,1,0,0,0-.72.31,4.2,4.2,0,0,0-.54.7,5.67,5.67,0,0,0-.37.74,4.57,4.57,0,0,1-.2.44,6.29,6.29,0,0,0-.43,1,3.12,3.12,0,0,0-.17,1Z"/><path class="cls-3" d="M324.91,450.5a.48.48,0,0,1,.36.15.52.52,0,0,1,.13.36.42.42,0,0,1-.1.3.61.61,0,0,1-.26.16,1.42,1.42,0,0,1-.38.08l-.41.05-.59-.17a1.59,1.59,0,0,1-.58-.27,11.25,11.25,0,0,1-.88-.82,3.13,3.13,0,0,1-.67-1,1.11,1.11,0,0,1-.16-.29c0-.12-.08-.24-.11-.37a2.58,2.58,0,0,1-.06-.37c0-.11,0-.21,0-.28a3.86,3.86,0,0,1,.33-1.55,3.26,3.26,0,0,1,.4-.71,2.44,2.44,0,0,1,.57-.54l.69-.31.52-.16a1.61,1.61,0,0,1,.54-.09,1.21,1.21,0,0,1,.59.15,1,1,0,0,1,.27.54,1,1,0,0,1-.11.26.46.46,0,0,1-.27.22,1.53,1.53,0,0,1-.39.11.87.87,0,0,0-.38.11,2,2,0,0,0-.49.29,2.77,2.77,0,0,0-.29.25.86.86,0,0,0-.19.26,1.11,1.11,0,0,0-.18.46,4.14,4.14,0,0,0,0,.45,2.58,2.58,0,0,0,.12.77,3.89,3.89,0,0,0,.3.72,3,3,0,0,0,.42.59,1.76,1.76,0,0,0,.42.35.93.93,0,0,0,.66.31Z"/><path class="cls-3" d="M328.42,449.42a7.93,7.93,0,0,0,.06,1,8.26,8.26,0,0,1,.07,1,.69.69,0,0,1-.27.6,1,1,0,0,1-.61.2,1.19,1.19,0,0,1-.48-.08.52.52,0,0,1-.24-.22.63.63,0,0,1-.1-.31,2.23,2.23,0,0,1,0-.37c0-.44,0-.91,0-1.39s0-1,0-1.47,0-1,0-1.46,0-.92,0-1.35c0-.8,0-1.6-.07-2.38s-.06-1.62-.06-2.5a1.28,1.28,0,0,1,.09-.44,1.31,1.31,0,0,1,.41-.3,2.44,2.44,0,0,1,.48-.15,1,1,0,0,1,.67.35,1.53,1.53,0,0,1,.19.85c0,1.4,0,2.62,0,3.66s-.07,2-.1,2.83l.72-.66a4.78,4.78,0,0,0,.63-.73,3.41,3.41,0,0,1,.24-.52,1.8,1.8,0,0,1,.35-.47,1.93,1.93,0,0,1,.46-.35,1.09,1.09,0,0,1,.54-.14.69.69,0,0,0,.19.07,1,1,0,0,1,.21.1.51.51,0,0,1,.16.13.34.34,0,0,1,.08.23,1.42,1.42,0,0,1-.26.62q-.25.42-.6.9c-.23.32-.47.62-.71.92l-.61.72a4.29,4.29,0,0,0,.88,1c.34.28.67.52,1,.74l.8.55c.22.16.33.31.33.44a.61.61,0,0,1-.12.39.85.85,0,0,1-.28.22,2,2,0,0,1-.35.1,1.78,1.78,0,0,1-.31,0,1.26,1.26,0,0,1-.68-.31,10.26,10.26,0,0,1-.88-.73c-.31-.28-.63-.56-.94-.86a8.08,8.08,0,0,0-.86-.69Z"/><path class="cls-3" d="M339.93,454.29a7.32,7.32,0,0,0,.06,1,5.07,5.07,0,0,1,.07.83,2.38,2.38,0,0,1-.05.41,1.83,1.83,0,0,1-.15.45,1.09,1.09,0,0,1-.3.37.72.72,0,0,1-.47.15.85.85,0,0,1-.54-.23.69.69,0,0,1-.27-.52c0-.07,0-.14,0-.21l0-.25c0-.21,0-.42,0-.62V455c0-.64,0-1.27,0-1.91s0-1.31,0-2c0-.52,0-1,0-1.55s0-1.09,0-1.71,0-1-.06-1.49-.07-1-.07-1.48a.78.78,0,0,1,.14-.5.81.81,0,0,1,.61-.16.82.82,0,0,1,.69.24,2,2,0,0,1,.28.58l.36-.13a1.08,1.08,0,0,1,.36-.07h.12a2.79,2.79,0,0,1,.75.08,2.87,2.87,0,0,1,.51.23l.06,0h.05a2.61,2.61,0,0,1,.65.52,3.45,3.45,0,0,1,.52.73,4.39,4.39,0,0,1,.35.84,2.82,2.82,0,0,1,.13.84,3.07,3.07,0,0,1-.21,1.06,3.3,3.3,0,0,1-.63,1,3.19,3.19,0,0,1-1.07.78,3.45,3.45,0,0,1-1.53.32h-.16a.58.58,0,0,1-.18,0,.41.41,0,0,0,0,.21v2.79Zm1.55-4.7a2.21,2.21,0,0,0,.5-2.17,1.91,1.91,0,0,0-.29-.59,2.18,2.18,0,0,0-.45-.46,1.45,1.45,0,0,0-.62-.23l-.23.09a1.09,1.09,0,0,0-.27.13l-.19.14,0,0,0,0a.75.75,0,0,0,0,.35c0,.23,0,.5,0,.82s0,.52,0,.64V449c0,.26,0,.51,0,.73s.09.32.18.32a2.71,2.71,0,0,0,.51,0,2.59,2.59,0,0,0,.52-.19Z"/><path class="cls-3" d="M351.15,451.12c0,.1.07.2.11.31a1,1,0,0,1,.05.3.41.41,0,0,1-.08.24.72.72,0,0,1-.2.14,1,1,0,0,1-.25.08l-.24,0a.7.7,0,0,1-.6-.41,3.89,3.89,0,0,1-.38-1c-.1-.41-.18-.84-.25-1.3s-.13-.87-.19-1.23a3.44,3.44,0,0,1-.36,1,5.74,5.74,0,0,1-.76,1.13,5.11,5.11,0,0,1-1,.92,1.88,1.88,0,0,1-1.1.38,1.33,1.33,0,0,1-.72-.17,1.18,1.18,0,0,1-.43-.43,2,2,0,0,1-.2-.57,3.3,3.3,0,0,1-.05-.6,4.83,4.83,0,0,1,.3-1.49,8.19,8.19,0,0,1,.82-1.72,6.33,6.33,0,0,1,1.21-1.44,2.2,2.2,0,0,1,1.45-.59,1.8,1.8,0,0,1,.37.05l.43.14a2,2,0,0,1,.42.2c.14.08.25.16.35.23a1.23,1.23,0,0,1,.42.69,6.79,6.79,0,0,1,.16.92q.13.92.21,1.65a10.65,10.65,0,0,0,.27,1.56l.11.68Zm-5.15-.95v0a0,0,0,0,1,0,0,1,1,0,0,0,.55-.32,5,5,0,0,0,.62-.72,9.07,9.07,0,0,0,.58-.89,5.4,5.4,0,0,0,.39-.83l.17-.37.21-.41c.06-.14.12-.27.16-.39a1,1,0,0,0,.06-.31l-.16-.07a.31.31,0,0,0-.17,0,1,1,0,0,0-.71.31,3.73,3.73,0,0,0-.54.7,5.67,5.67,0,0,0-.37.74l-.2.44a5.48,5.48,0,0,0-.43,1,3.12,3.12,0,0,0-.17,1Z"/><path class="cls-3" d="M354.27,454.29a5.9,5.9,0,0,0,.07,1,6.35,6.35,0,0,1,.06.83,2.38,2.38,0,0,1,0,.41,1.83,1.83,0,0,1-.15.45,1.06,1.06,0,0,1-.29.37.74.74,0,0,1-.48.15.85.85,0,0,1-.54-.23.71.71,0,0,1-.26-.52,1.48,1.48,0,0,1,0-.21,2.11,2.11,0,0,1,0-.25c0-.21,0-.42,0-.62V455c0-.64,0-1.27,0-1.91s0-1.31,0-2c0-.52,0-1,0-1.55s0-1.09,0-1.71,0-1-.07-1.49-.06-1-.06-1.48a.73.73,0,0,1,.14-.5c.09-.11.29-.16.61-.16a.79.79,0,0,1,.68.24,2,2,0,0,1,.29.58l.35-.13a1.08,1.08,0,0,1,.36-.07h.13a2.9,2.9,0,0,1,.75.08,2.87,2.87,0,0,1,.51.23l.05,0h.06a2.57,2.57,0,0,1,.64.52,3.5,3.5,0,0,1,.53.73,4.35,4.35,0,0,1,.34.84,2.82,2.82,0,0,1,.13.84,3.07,3.07,0,0,1-.21,1.06,3.3,3.3,0,0,1-.63,1,3.19,3.19,0,0,1-1.07.78,3.44,3.44,0,0,1-1.52.32h-.17a.58.58,0,0,1-.18,0,.41.41,0,0,0,0,.21v2.79Zm1.56-4.7a2.1,2.1,0,0,0,.6-1.52,2.44,2.44,0,0,0-.1-.65,2.49,2.49,0,0,0-.29-.59,2.23,2.23,0,0,0-.46-.46,1.41,1.41,0,0,0-.61-.23l-.24.09a1.58,1.58,0,0,0-.27.13l-.19.14,0,0,0,0a.75.75,0,0,0,0,.35c0,.23,0,.5,0,.82s0,.52,0,.64V449c0,.26,0,.51,0,.73s.09.32.19.32a2,2,0,0,0,1-.23Z"/><path class="cls-3" d="M359.11,448.42a5.35,5.35,0,0,1,.18-1.36,4,4,0,0,1,.52-1.23,2.93,2.93,0,0,1,.86-.89,2,2,0,0,1,1.18-.34,2.17,2.17,0,0,1,.84.15,1.71,1.71,0,0,1,.59.38,1.6,1.6,0,0,1,.36.54,1.9,1.9,0,0,1,.11.63,2.24,2.24,0,0,1-.15.81,2,2,0,0,1-.45.71,2.25,2.25,0,0,1-.72.5,2.52,2.52,0,0,1-1,.21,1.41,1.41,0,0,1-.42,0,3.31,3.31,0,0,1-.42-.11,1,1,0,0,0,0,.16v.1a2.66,2.66,0,0,0,.22,1.06,1.82,1.82,0,0,0,.44.57,1.24,1.24,0,0,0,.46.25,1.13,1.13,0,0,0,.29,0,1.63,1.63,0,0,0,.94-.25l.83-.57.2.08a.43.43,0,0,1,.2.18c0,.07,0,.13,0,.17a.84.84,0,0,1,0,.19.81.81,0,0,1-.14.43,1.56,1.56,0,0,1-.26.3,2.33,2.33,0,0,1-.89.52,3.9,3.9,0,0,1-1.07.12,2.82,2.82,0,0,1-.72-.12,4.34,4.34,0,0,1-.72-.28,3.66,3.66,0,0,1-.69-.66,2.93,2.93,0,0,1-.38-.69,3.24,3.24,0,0,1-.18-.76C359.15,449,359.13,448.71,359.11,448.42Zm1.59-1a.67.67,0,0,0,.23,0h.25a1.37,1.37,0,0,0,1-.31,1,1,0,0,0,.34-.75.8.8,0,0,0-.15-.47.45.45,0,0,0-.4-.22l-.36,0a.42.42,0,0,0-.26.19l-.17.18a.84.84,0,0,0-.17.25,2.18,2.18,0,0,0-.16.42A3.8,3.8,0,0,0,360.7,447.43Z"/><path class="cls-3" d="M365.31,451.2a1.19,1.19,0,0,0,0-.34c0-.16,0-.37,0-.61s0-.48,0-.75,0-.52,0-.74,0-.42,0-.59,0-.25,0-.28v-.6q0-.41,0-.81c0-.26,0-.53,0-.8v-.07a.71.71,0,0,0-.07-.32.8.8,0,0,1-.07-.34.87.87,0,0,1,.2-.37.67.67,0,0,1,.46-.12,1,1,0,0,1,.49.11.77.77,0,0,1,.27.3,1.12,1.12,0,0,1,.12.39c0,.15,0,.29.05.42l.05,1a2.44,2.44,0,0,0,.39-.43l.42-.61A7.33,7.33,0,0,1,368,445a2.7,2.7,0,0,1,.5-.51.77.77,0,0,1,.36-.08,1.36,1.36,0,0,1,.71.17,1.08,1.08,0,0,1,.41.53,1.24,1.24,0,0,1-.2.37c-.11.14-.24.29-.38.44l-.44.47a5.21,5.21,0,0,0-.39.49,4.87,4.87,0,0,0-.55.71,9.64,9.64,0,0,0-.86,1.69,1.81,1.81,0,0,0-.14.63c0,.1,0,.24,0,.41v.41a3.4,3.4,0,0,1,0,.45,1.5,1.5,0,0,1-.15.42.86.86,0,0,1-.29.31.84.84,0,0,1-.47.12.75.75,0,0,1-.56-.21.7.7,0,0,1-.21-.52Z"/><path class="cls-3" d="M292.52,471.47a2,2,0,0,1-1.45-.76,4.08,4.08,0,0,1-.82-2.67,9,9,0,0,1,.68-3.31,3.53,3.53,0,0,1,.95-1.53,2.54,2.54,0,0,1,1.73-.62,1.7,1.7,0,0,1,1.13.38,3.38,3.38,0,0,1,.86,1,2.61,2.61,0,0,1,.34.93c.06.33.11.65.16,1a5.84,5.84,0,0,1,0,.73,5.42,5.42,0,0,1-1.41,3.65,2.87,2.87,0,0,1-2.1,1.22Zm1.88-6.66a1.11,1.11,0,0,0-.48-.72,1,1,0,0,0-.38-.14.53.53,0,0,0-.35.2,5,5,0,0,0-1.39,3.63,4,4,0,0,0,.62,2.25.27.27,0,0,0,.22.15c.13,0,.34-.17.64-.51a4.56,4.56,0,0,0,1.41-3.07,4,4,0,0,0-.11-.91C294.51,465.39,294.45,465.1,294.4,464.81Z"/><path class="cls-3" d="M296.72,471.46q.19-.51.57-1.26c.25-.49.55-1.06.91-1.72s.67-1.25.93-1.75.45-.89.58-1.21.17-.39.26-.58l.27-.57a2.89,2.89,0,0,0,.3-1.17c0-.51-.13-.77-.39-.77s-.33.17-.53.51c-.09.17-.19.33-.28.49s-.18.3-.26.46a.81.81,0,0,0,0,.17,1.09,1.09,0,0,0,.1.34,1.14,1.14,0,0,1,.1.41.46.46,0,0,1-.15.33.43.43,0,0,1-.34.16c-.16,0-.49-.23-1-.7a.74.74,0,0,1-.24-.58,2.25,2.25,0,0,1,.33-1,3.64,3.64,0,0,1,2.41-1.9,1.23,1.23,0,0,1,.39-.06,1,1,0,0,1,1.09.77,3.75,3.75,0,0,1,.17,1.12,6.12,6.12,0,0,1-.44,2.08c-.15.33-.29.66-.44,1s-.29.66-.42,1-.2.42-.36.72-.34.66-.57,1.07a8.7,8.7,0,0,0-.88,1.83c.1,0,.28,0,.56,0h1.09a6.7,6.7,0,0,1,1.62.16.66.66,0,0,1,.51.71.6.6,0,0,1-.05.24c-.1.22-.39.36-.86.42-.21,0-.43,0-.68.06l-.78,0H298.8l-.44,0h-.24A1.31,1.31,0,0,1,296.72,471.46Z"/><path class="cls-3" d="M305.45,471a1.06,1.06,0,0,1-.69-.33.88.88,0,0,1-.33-.66.6.6,0,0,1,.56-.58l.7.06a.58.58,0,0,1,.49.43,1.93,1.93,0,0,1,.08.46.57.57,0,0,1-.19.48.71.71,0,0,1-.47.14Z"/><path class="cls-3" d="M308.94,471.47v-.4c0-.52,0-1.12.05-1.8s.08-1.43.15-2.27c.18-2,.28-3.49.28-4.41,0-.31,0-.61,0-.9s0-.57-.06-.85a.82.82,0,0,1,.61-.24c.46,0,.73.17.8.51,0,.13,0,.25,0,.39s0,.28,0,.44c0,.47,0,1,0,1.61s-.06,1.29-.11,2.06-.1,1.59-.12,2.25,0,1.23,0,1.71v.52a8.08,8.08,0,0,0,1.33-.77l.78-.52a3.45,3.45,0,0,1,.52-.3l.32,0,.33,0a.55.55,0,0,1,.53.3.73.73,0,0,1,.11.36.42.42,0,0,1-.11.31l-2.13,1.52c-.42.29-.8.55-1.16.76a8.53,8.53,0,0,1-1,.54.54.54,0,0,1-.22.05.59.59,0,0,1-.47-.33Z"/><path class="cls-3" d="M317.33,471.07a.6.6,0,0,1-.08.29,1.22,1.22,0,0,1-.27.35,3.27,3.27,0,0,1-.57,0,1,1,0,0,1-.76-.7,2.37,2.37,0,0,1-.11-.84,2.68,2.68,0,0,0-.07-.62,3.26,3.26,0,0,1-.06-.62,14.25,14.25,0,0,0-.11-1.77,14.25,14.25,0,0,1-.11-1.77.65.65,0,0,1,.31-.59,2.49,2.49,0,0,1,.35-.08l.36-.07a.9.9,0,0,1,.39.21l.23.27c0,.12,0,.24,0,.36s0,.25,0,.39c0,.46,0,1,.07,1.48s.1,1,.17,1.5.11.9.17,1.29.09.69.12.9Zm-1.61-10.28a.42.42,0,0,1,.33-.1,1.41,1.41,0,0,1,.73.25,1,1,0,0,1,.26.27.59.59,0,0,1-.07.77.83.83,0,0,1-.48.12,1.45,1.45,0,0,1-.41-.06,2.72,2.72,0,0,1-.38-.16.92.92,0,0,1-.26-.19.27.27,0,0,1-.1-.19,1.51,1.51,0,0,1,0-.39A.66.66,0,0,1,315.72,460.79Z"/><path class="cls-3" d="M322.63,465.24l.17-.05.17-.06a1.93,1.93,0,0,0,.36.06,2.23,2.23,0,0,1,.45.09,6.47,6.47,0,0,0,.1.8,5.53,5.53,0,0,1,.06.84c0,.87,0,1.78.08,2.73s.09,2,.09,3.25a12.62,12.62,0,0,1-.13,1.74,4.78,4.78,0,0,1-.57,1.64,1.82,1.82,0,0,0-.27.41,2.22,2.22,0,0,1-.35.49,2.1,2.1,0,0,1-.56.44,2.24,2.24,0,0,1-.88.25l-.46-.16c-.12,0-.21-.19-.27-.44a1.3,1.3,0,0,1,.46-.56,3.06,3.06,0,0,0,.65-.65,3.9,3.9,0,0,0,.58-1.21,8.32,8.32,0,0,0,.24-2.28v-.78c0-.25,0-.49,0-.74s0-.49-.05-.75-.05-.53-.08-.83c-.12.25-.26.49-.4.72a3,3,0,0,1-.51.61,2.71,2.71,0,0,1-.71.46,3.25,3.25,0,0,1-1,.27l-.52-.29a2.56,2.56,0,0,1-.48-.39,1.72,1.72,0,0,1-.36-.49,1.38,1.38,0,0,1-.14-.62.72.72,0,0,1,0-.17c.09-.29.23-.7.42-1.22a12.14,12.14,0,0,1,.73-1.56,5.67,5.67,0,0,1,1-1.35,2,2,0,0,1,1.37-.56,1,1,0,0,1,.29,0,1.61,1.61,0,0,1,.29.09Zm-2.49,4.9a1,1,0,0,0,.56-.33,3.73,3.73,0,0,0,.55-.76,9.64,9.64,0,0,0,.5-1.06c.16-.39.3-.81.44-1.25a2.63,2.63,0,0,1,.06-.39,1.74,1.74,0,0,0,.05-.39,1.23,1.23,0,0,0-.5.12,1.6,1.6,0,0,0-.35.28,2.54,2.54,0,0,0-.29.36,4.33,4.33,0,0,1-.27.37c-.1.21-.21.42-.34.65s-.25.45-.36.68a5.26,5.26,0,0,0-.3.7,2.29,2.29,0,0,0-.11.67C319.78,470,319.9,470.1,320.14,470.14Z"/><path class="cls-3" d="M325.68,469.1c0-.7,0-1.41-.05-2.16s0-1.48,0-2.21c0-.44,0-.9,0-1.38s0-.94.06-1.39a12.58,12.58,0,0,1,.12-1.29,6.07,6.07,0,0,1,.21-1.05,2,2,0,0,1,.53-.1.62.62,0,0,1,.56.29,1.11,1.11,0,0,1,.19.65,4,4,0,0,1-.08.81,5.86,5.86,0,0,0-.09.76c0,.53,0,1-.06,1.49s0,.9,0,1.32,0,.85,0,1.25,0,.83,0,1.25c.14-.32.29-.64.46-.95a6.33,6.33,0,0,1,.54-.81,2.6,2.6,0,0,1,.6-.56,1.18,1.18,0,0,1,.63-.21,1.26,1.26,0,0,1,.82.35,2.45,2.45,0,0,1,.5.76,4,4,0,0,1,.26.9,6.17,6.17,0,0,1,.07.74,4.13,4.13,0,0,1,.1.67q0,.38.06.69a8.2,8.2,0,0,0,.26,1.23,6.16,6.16,0,0,1,.22,1.16.74.74,0,0,1-.24.33.54.54,0,0,1-.33.15.84.84,0,0,1-.73-.44,3.76,3.76,0,0,1-.42-1,6.53,6.53,0,0,1-.19-1.16c0-.39-.05-.67-.05-.86a4.16,4.16,0,0,0,0-.55c0-.21-.07-.42-.11-.63s-.09-.37-.14-.51-.1-.21-.15-.21a1,1,0,0,0-.42.35,3.47,3.47,0,0,0-.37.67c-.12.26-.22.54-.32.83s-.18.57-.25.84-.12.5-.16.71-.07.35-.08.42v.09a.2.2,0,0,1,0,.05s0,0,0,0v.08c0,.13,0,.27-.05.4a2,2,0,0,1-.08.37,1,1,0,0,1-.15.29.28.28,0,0,1-.22.11,1.25,1.25,0,0,1-.74-.2,1.35,1.35,0,0,1-.39-.52,2.36,2.36,0,0,1-.14-.72c0-.26,0-.52,0-.79Z"/><path class="cls-3" d="M333.9,459.89a2.69,2.69,0,0,1,.05-.47l.24-.12a.54.54,0,0,1,.24-.05,1,1,0,0,1,.5.11.69.69,0,0,1,.29.27,1,1,0,0,1,.14.38,2,2,0,0,1,0,.41c0,.26,0,.48,0,.67s0,.37,0,.55,0,.39,0,.58v.58c0,.13,0,.27,0,.42s0,.29,0,.45a.62.62,0,0,0,0,.2c0,.06.06.1.16.1a2.12,2.12,0,0,0,.83-.16,2.15,2.15,0,0,1,.83-.16.35.35,0,0,1,.35.21.93.93,0,0,1,.09.4.53.53,0,0,1-.11.37.71.71,0,0,1-.27.21,1.9,1.9,0,0,1-.36.12l-.37.1a2.3,2.3,0,0,1-.4.14,2.6,2.6,0,0,0-.42.15,1.09,1.09,0,0,0-.35.24.5.5,0,0,0-.15.37,1.69,1.69,0,0,0,0,.23,1.7,1.7,0,0,1,0,.22,1.77,1.77,0,0,1,0,.23,2,2,0,0,0,0,.25,12.73,12.73,0,0,0,.12,1.71c.08.59.17,1.16.27,1.7a4.37,4.37,0,0,0,.12.52,1.71,1.71,0,0,1,.08.47.59.59,0,0,1-.17.46.92.92,0,0,1-.36.2l-.22,0a.71.71,0,0,1-.47-.18,1.53,1.53,0,0,1-.36-.43,3.65,3.65,0,0,1-.15-.69c0-.29-.07-.56-.08-.81,0-.59-.06-1.19-.08-1.78l0-1.78c0-.05,0-.09,0-.14a.43.43,0,0,0-.05-.13,1.89,1.89,0,0,0-.55.16,1,1,0,0,1-.51.11.88.88,0,0,1-.62-.24,3.34,3.34,0,0,1-.38-.38,2,2,0,0,1,.09-.51,3,3,0,0,1,.44-.13l.39-.07.39-.09a2,2,0,0,0,.44-.19c.2,0,.31-.07.34-.22a2.28,2.28,0,0,0,.05-.4c0-.22,0-.4,0-.55s0-.37,0-.65,0-.37,0-.56,0-.37,0-.56Z"/><path class="cls-3" d="M292.52,491.53a2,2,0,0,1-1.45-.76,4.08,4.08,0,0,1-.82-2.67,9,9,0,0,1,.68-3.31,3.47,3.47,0,0,1,.95-1.53,2.54,2.54,0,0,1,1.73-.63,1.71,1.71,0,0,1,1.13.39,3.48,3.48,0,0,1,.86,1,2.73,2.73,0,0,1,.34.94c.06.32.11.65.16,1a6.11,6.11,0,0,1,0,.73,5.44,5.44,0,0,1-1.41,3.66,2.87,2.87,0,0,1-2.1,1.22Zm1.88-6.67a1.11,1.11,0,0,0-.48-.71.84.84,0,0,0-.38-.14.53.53,0,0,0-.35.2,5,5,0,0,0-1.39,3.63,4,4,0,0,0,.62,2.25.27.27,0,0,0,.22.15c.13,0,.34-.17.64-.52a4.53,4.53,0,0,0,1.41-3.07,4,4,0,0,0-.11-.9C294.51,485.45,294.45,485.16,294.4,484.86Z"/><path class="cls-3" d="M301.1,492.23a9.75,9.75,0,0,1-.85,1.37,15.8,15.8,0,0,1-1.36,1.62,1.64,1.64,0,0,1-1.13.68,1,1,0,0,1-.33-.09l-.05,0s0,0,0,0a3,3,0,0,1-.38-.24.51.51,0,0,1-.21-.34,1.09,1.09,0,0,1,.63-.92,5,5,0,0,0,1.09-.76,21.48,21.48,0,0,0,1.72-2.36,5.58,5.58,0,0,0,.66-2.69c0-.07,0-.15,0-.23s0-.19,0-.31v-.22c0-.42-.23-.64-.58-.68h-.13a4.86,4.86,0,0,0-.78.09c-.33.06-.76.15-1.27.27a2.54,2.54,0,0,0-.55-.47c-.23-.16-.34-.32-.34-.47a.69.69,0,0,1,.16-.41c.32-.39.7-.87,1.13-1.45l1.54-2h-.11a3.7,3.7,0,0,0-.79.11,5.16,5.16,0,0,1-.93.17,1.13,1.13,0,0,1-.89-.42.59.59,0,0,1-.13-.37v-.4l2.36-.55a6,6,0,0,1,1.2-.14c.76,0,1.17.23,1.24.69a.83.83,0,0,1,0,.27,3,3,0,0,1-.93,1.92L300,485.08c-.24.3-.39.47-.44.53l1.15.19a1.61,1.61,0,0,1,1,.67,3.8,3.8,0,0,1,.73,2.14,4.86,4.86,0,0,1-.42,1.77Z"/><path class="cls-3" d="M305.41,491a1.06,1.06,0,0,1-.69-.33.92.92,0,0,1-.33-.66.55.55,0,0,1,.18-.41.59.59,0,0,1,.39-.17l.69,0a.62.62,0,0,1,.5.44,2.34,2.34,0,0,1,.07.46.56.56,0,0,1-.18.48.8.8,0,0,1-.48.14Z"/><path class="cls-3" d="M312.14,490.62a.5.5,0,0,1,.49.51.39.39,0,0,1-.1.29.59.59,0,0,1-.26.17l-.38.08-.41.05-.59-.17a2,2,0,0,1-.58-.27c-.3-.26-.6-.53-.88-.82a3.24,3.24,0,0,1-.67-1,1.11,1.11,0,0,1-.16-.29c0-.12-.08-.25-.11-.38a2.46,2.46,0,0,1-.06-.36c0-.12,0-.21,0-.29a4.09,4.09,0,0,1,.08-.76,4.52,4.52,0,0,1,.25-.79,3.44,3.44,0,0,1,.4-.7,2.44,2.44,0,0,1,.57-.54l.69-.31.51-.17a1.67,1.67,0,0,1,.55-.09,1.32,1.32,0,0,1,.59.16,1,1,0,0,1,.27.54.94.94,0,0,1-.11.25.42.42,0,0,1-.27.22,1.27,1.27,0,0,1-.4.11,1,1,0,0,0-.37.11,2.88,2.88,0,0,0-.49.29c-.13.1-.22.19-.3.26a1,1,0,0,0-.18.26.9.9,0,0,0-.18.45,2.68,2.68,0,0,0,0,.46,2.63,2.63,0,0,0,.12.77,4.55,4.55,0,0,0,.3.72,2.85,2.85,0,0,0,.41.58,1.81,1.81,0,0,0,.43.36.93.93,0,0,0,.66.31Z"/><path class="cls-3" d="M313.82,489.16c0-.7,0-1.41-.05-2.16s0-1.48,0-2.21c0-.44,0-.9,0-1.38s0-1,.05-1.4.07-.88.12-1.28a6.4,6.4,0,0,1,.21-1.06,2,2,0,0,1,.53-.09.64.64,0,0,1,.57.29,1.18,1.18,0,0,1,.18.65,4.89,4.89,0,0,1-.07.81,5.82,5.82,0,0,0-.1.76c0,.53,0,1-.06,1.49s0,.89,0,1.32,0,.84,0,1.25,0,.83,0,1.25a8.25,8.25,0,0,1,.45-.95,6.33,6.33,0,0,1,.54-.81,2.5,2.5,0,0,1,.61-.57,1.13,1.13,0,0,1,.63-.21,1.29,1.29,0,0,1,.81.36,2.34,2.34,0,0,1,.5.76,4.11,4.11,0,0,1,.26.89,4.83,4.83,0,0,1,.07.75,4.13,4.13,0,0,1,.1.67c0,.25,0,.48.07.68a7,7,0,0,0,.25,1.24,5.45,5.45,0,0,1,.22,1.16.74.74,0,0,1-.24.33.52.52,0,0,1-.33.14.84.84,0,0,1-.73-.43,3.9,3.9,0,0,1-.42-1,6.53,6.53,0,0,1-.19-1.16c0-.39-.05-.68-.05-.86a4.16,4.16,0,0,0,0-.55c0-.22-.07-.43-.11-.63a3.63,3.63,0,0,0-.14-.51c-.05-.14-.09-.21-.14-.21a.9.9,0,0,0-.42.35,3.2,3.2,0,0,0-.38.67c-.11.26-.22.53-.32.83s-.18.57-.25.84-.12.5-.16.71-.07.35-.08.42v.09a.2.2,0,0,1,0,.05s0,0,0,0v.08c0,.13,0,.26-.05.4a1.43,1.43,0,0,1-.08.37.78.78,0,0,1-.14.29.31.31,0,0,1-.22.11,1.14,1.14,0,0,1-.74-.21,1.16,1.16,0,0,1-.4-.52,2.24,2.24,0,0,1-.14-.71c0-.26,0-.52,0-.79Z"/><path class="cls-3" d="M326.92,491.24l.11.3a.86.86,0,0,1,.05.3.32.32,0,0,1-.08.24.62.62,0,0,1-.2.15l-.25.08-.23,0a.7.7,0,0,1-.61-.41,4.37,4.37,0,0,1-.38-1c-.1-.41-.18-.84-.25-1.29s-.13-.87-.19-1.24a3,3,0,0,1-.35,1,6.7,6.7,0,0,1-.76,1.12,5.52,5.52,0,0,1-1,.93,1.92,1.92,0,0,1-1.09.38,1.43,1.43,0,0,1-.73-.17,1.23,1.23,0,0,1-.42-.43,1.82,1.82,0,0,1-.21-.58,4.27,4.27,0,0,1-.05-.59,4.83,4.83,0,0,1,.3-1.49,8.79,8.79,0,0,1,.82-1.73,6.07,6.07,0,0,1,1.21-1.43,2.18,2.18,0,0,1,1.45-.6,1.42,1.42,0,0,1,.38.06,4.28,4.28,0,0,1,.43.14,2.67,2.67,0,0,1,.42.2,2.5,2.5,0,0,1,.34.23,1.23,1.23,0,0,1,.42.69,6.65,6.65,0,0,1,.17.91c.08.61.15,1.16.2,1.66a12.18,12.18,0,0,0,.27,1.56l.11.68Zm-5.15-.95a0,0,0,0,0,0,0v0a.93.93,0,0,0,.54-.31,6.77,6.77,0,0,0,.63-.73c.2-.28.39-.57.57-.88a4.59,4.59,0,0,0,.39-.83c.05-.11.11-.24.18-.37l.2-.41a2.93,2.93,0,0,0,.16-.39,1.11,1.11,0,0,0,.07-.31l-.17-.08a.41.41,0,0,0-.16,0,1,1,0,0,0-.71.31,3.29,3.29,0,0,0-.54.69,5.21,5.21,0,0,0-.38.74,4.06,4.06,0,0,1-.2.45,5.58,5.58,0,0,0-.43,1,3.4,3.4,0,0,0-.17,1Z"/><path class="cls-3" d="M330.3,491.13a.59.59,0,0,1-.07.29,1.29,1.29,0,0,1-.28.35,3.36,3.36,0,0,1-.57,0,1,1,0,0,1-.76-.7,2.71,2.71,0,0,1-.11-.84,3.26,3.26,0,0,0-.06-.62,2.62,2.62,0,0,1-.07-.62,14.25,14.25,0,0,0-.11-1.77,14.42,14.42,0,0,1-.11-1.78.66.66,0,0,1,.31-.58,2.49,2.49,0,0,1,.35-.08l.37-.07a.86.86,0,0,1,.38.21l.24.27c0,.12,0,.24,0,.36s0,.25,0,.39c0,.46,0,.95.07,1.48s.11,1,.17,1.5.12.9.17,1.29.1.69.12.9Zm-1.61-10.29a.47.47,0,0,1,.33-.09,1.06,1.06,0,0,1,.38.07,1.29,1.29,0,0,1,.35.18,1.34,1.34,0,0,1,.27.26.63.63,0,0,1,.1.32.51.51,0,0,1-.18.46.81.81,0,0,1-.48.12,1.51,1.51,0,0,1-.41-.06,2.72,2.72,0,0,1-.38-.16,1.09,1.09,0,0,1-.26-.19.27.27,0,0,1-.1-.19,1.51,1.51,0,0,1,0-.39C328.38,481.06,328.5,481,328.69,480.84Z"/><path class="cls-3" d="M331.87,491.31a1,1,0,0,0,.05-.33c0-.17,0-.37,0-.62s0-.48,0-.75,0-.51,0-.74,0-.42,0-.58,0-.26,0-.28v-.61c0-.26,0-.53,0-.8s0-.54,0-.8v-.08a.92.92,0,0,0-.07-.32.74.74,0,0,1-.08-.34,1,1,0,0,1,.2-.36.63.63,0,0,1,.46-.13.87.87,0,0,1,.49.12.86.86,0,0,1,.28.29,1.25,1.25,0,0,1,.12.4c0,.14,0,.28,0,.42l.06,1a2,2,0,0,0,.38-.42l.42-.62c.15-.22.3-.43.46-.64a3.42,3.42,0,0,1,.49-.51.82.82,0,0,1,.37-.07,1.32,1.32,0,0,1,.7.16,1.07,1.07,0,0,1,.41.53.94.94,0,0,1-.2.38L336,486c-.15.15-.29.31-.44.47a4.11,4.11,0,0,0-.4.49,4.86,4.86,0,0,0-.54.71,7.4,7.4,0,0,0-.5.86,8,8,0,0,0-.36.83,1.86,1.86,0,0,0-.15.63c0,.1,0,.23,0,.41s0,.31,0,.41a2.28,2.28,0,0,1,0,.45,1.23,1.23,0,0,1-.14.42.89.89,0,0,1-.3.31.84.84,0,0,1-.47.12.76.76,0,0,1-.56-.21.72.72,0,0,1-.21-.52Z"/><path class="cls-3" d="M292.52,511.59a2,2,0,0,1-1.45-.77,4.07,4.07,0,0,1-.82-2.66,8.91,8.91,0,0,1,.68-3.31,3.51,3.51,0,0,1,.95-1.54,2.59,2.59,0,0,1,1.73-.62,1.71,1.71,0,0,1,1.13.39,3.48,3.48,0,0,1,.86,1,2.61,2.61,0,0,1,.34.93c.06.33.11.65.16,1a6,6,0,0,1,0,.73,5.46,5.46,0,0,1-1.41,3.66,2.9,2.9,0,0,1-2.1,1.22Zm1.88-6.67a1.09,1.09,0,0,0-.48-.71.89.89,0,0,0-.38-.15.58.58,0,0,0-.35.2,5.08,5.08,0,0,0-1.39,3.64,4.08,4.08,0,0,0,.62,2.25.28.28,0,0,0,.22.14c.13,0,.34-.17.64-.51a4.53,4.53,0,0,0,1.41-3.07,4,4,0,0,0-.11-.9C294.51,505.51,294.45,505.21,294.4,504.92Z"/><path class="cls-3" d="M300.94,501.67a.8.8,0,0,1,.75-.46q.62,0,.66.42c0,.14,0,.27,0,.41s0,.28,0,.42c0,.35,0,.78-.07,1.28s-.12,1.1-.22,1.77a24,24,0,0,0-.27,3V509l0,.42c.77,0,1.25.15,1.45.45a.53.53,0,0,1,.09.3.88.88,0,0,1,0,.2.53.53,0,0,1-.49.29h-.3l-.31,0c-.26,0-.42.1-.45.27a8.31,8.31,0,0,0-.14,1q0,.59-.06,1.35,0,2-.06,2.37c0,.23-.16.37-.46.42s-.72-.12-.82-.36a3.07,3.07,0,0,1-.16-1c0-.14,0-.31,0-.53a6,6,0,0,1,.1-.75c0-.28.08-.53.1-.75s0-.41,0-.57,0-.29,0-.43,0-.27-.07-.41l-.17,0h-.17a6.34,6.34,0,0,0-1.17.17,6.5,6.5,0,0,1-1.15.16,1.69,1.69,0,0,1-.66-.11q-.42-.16-.42-.45a3.23,3.23,0,0,1,.4-.88c.22-.4.48-.91.78-1.54s.63-1.35,1-2.21.72-1.59,1-2.23.58-1.16.81-1.59Zm-.68,7.91c0-.17,0-.39,0-.65s0-.57,0-.92c0-.71.05-1.21.05-1.52-.15.28-.31.57-.45.85l-.44.85c-.17.34-.32.66-.43.95a7,7,0,0,0-.27.81,3.91,3.91,0,0,0,.79-.17l.47-.14Z"/><path class="cls-3" d="M306.26,511.1a1.06,1.06,0,0,1-.7-.33.92.92,0,0,1-.33-.66.55.55,0,0,1,.18-.41.55.55,0,0,1,.39-.17l.69.05a.6.6,0,0,1,.5.44,2.24,2.24,0,0,1,.07.46.56.56,0,0,1-.18.48.8.8,0,0,1-.48.14Z"/><path class="cls-3" d="M310.8,500a2.1,2.1,0,0,1,.06-.48l.24-.12a.53.53,0,0,1,.23,0,1,1,0,0,1,.51.11.84.84,0,0,1,.29.27,1.15,1.15,0,0,1,.14.38,2.83,2.83,0,0,1,0,.41c0,.25,0,.47,0,.66s0,.38,0,.56,0,.39,0,.58,0,.38,0,.57,0,.28,0,.42,0,.3,0,.46a1.23,1.23,0,0,0,0,.2c0,.06.07.09.17.09a2.16,2.16,0,0,0,.83-.15,1.92,1.92,0,0,1,.83-.16.36.36,0,0,1,.35.2,1,1,0,0,1,.09.4.61.61,0,0,1-.11.38.83.83,0,0,1-.28.21,2.06,2.06,0,0,1-.35.12l-.38.1a2.54,2.54,0,0,1-.39.13,4.29,4.29,0,0,0-.43.16,1.21,1.21,0,0,0-.35.24.51.51,0,0,0-.14.36,1.77,1.77,0,0,0,0,.24v.45a1.93,1.93,0,0,0,0,.24,12.73,12.73,0,0,0,.12,1.71c.07.59.16,1.16.26,1.71,0,.17.08.34.13.51a1.69,1.69,0,0,1,.07.48.55.55,0,0,1-.16.45.91.91,0,0,1-.37.21l-.22,0a.73.73,0,0,1-.46-.17,1.68,1.68,0,0,1-.36-.43,4.37,4.37,0,0,1-.16-.7c0-.29-.07-.56-.08-.8,0-.6-.06-1.19-.07-1.78s0-1.18,0-1.78a.61.61,0,0,0,0-.14.43.43,0,0,0,0-.14,2.24,2.24,0,0,0-.55.17,1.19,1.19,0,0,1-.51.11.86.86,0,0,1-.62-.24l-.39-.38a2,2,0,0,1,.09-.52,2.25,2.25,0,0,1,.44-.12l.4-.08L310,505a1.7,1.7,0,0,0,.44-.18.31.31,0,0,0,.34-.23,2,2,0,0,0,0-.39c0-.22,0-.41,0-.56s0-.37,0-.65,0-.37,0-.55,0-.38,0-.56Z"/><path class="cls-3" d="M321.66,511.3c0,.1.07.2.11.3a1,1,0,0,1,.05.3.36.36,0,0,1-.08.24.62.62,0,0,1-.2.15l-.25.08-.24,0a.68.68,0,0,1-.6-.41,3.76,3.76,0,0,1-.38-1c-.1-.41-.18-.84-.25-1.3s-.13-.86-.19-1.23a3.37,3.37,0,0,1-.36,1,6.09,6.09,0,0,1-.75,1.12,5.13,5.13,0,0,1-1,.92,1.89,1.89,0,0,1-1.1.39,1.33,1.33,0,0,1-.72-.18,1.11,1.11,0,0,1-.43-.43,1.75,1.75,0,0,1-.2-.57,3.13,3.13,0,0,1-.05-.59,4.77,4.77,0,0,1,.3-1.49,8.26,8.26,0,0,1,.82-1.73,6.07,6.07,0,0,1,1.21-1.43,2.16,2.16,0,0,1,1.45-.6,1.35,1.35,0,0,1,.37.06,3.52,3.52,0,0,1,.43.13,2.74,2.74,0,0,1,.42.21,2.67,2.67,0,0,1,.35.22,1.26,1.26,0,0,1,.42.7,8.17,8.17,0,0,1,.17.91c.08.61.15,1.16.2,1.65a10.55,10.55,0,0,0,.27,1.57l.11.67Zm-5.16-.95v0s0,0,0,0a1,1,0,0,0,.55-.32,5,5,0,0,0,.62-.72,8.92,8.92,0,0,0,.58-.88,4.65,4.65,0,0,0,.39-.84l.17-.36.21-.41a4.16,4.16,0,0,0,.16-.4,1,1,0,0,0,.06-.31l-.16-.07a.42.42,0,0,0-.16,0,1,1,0,0,0-.72.32,3.75,3.75,0,0,0-.54.69,5.67,5.67,0,0,0-.37.74c-.1.24-.17.39-.2.45a5.1,5.1,0,0,0-.43,1,3.24,3.24,0,0,0-.18,1Z"/><path class="cls-3" d="M324.45,506v.57c0,.14,0,.27,0,.4s0,.2,0,.23a7.3,7.3,0,0,1,.38-.65c.14-.22.36-.53.68-.94l.17-.14a2.87,2.87,0,0,1,.33-.24,2.67,2.67,0,0,1,.48-.22,1.73,1.73,0,0,1,.56-.09,1.27,1.27,0,0,1,.88.3,2.09,2.09,0,0,1,.53.74,3.6,3.6,0,0,1,.27.95,6.33,6.33,0,0,1,.07.91,5.83,5.83,0,0,1,0,.63,6.12,6.12,0,0,1-.14.86,7.91,7.91,0,0,1-.3.9,2.22,2.22,0,0,1-.51.74,2.93,2.93,0,0,1-1,.58,3,3,0,0,1-1,.21,5.47,5.47,0,0,1-.9-.08,6.12,6.12,0,0,1-.87-.2.69.69,0,0,1-.21-.21,2.9,2.9,0,0,1-.2-.36,1.94,1.94,0,0,1-.17-.42,3.38,3.38,0,0,1-.13-.42s-.07-.15-.11-.35-.07-.44-.1-.71-.06-.56-.07-.86,0-.57,0-.8c0-1,0-2,.05-3.06s.13-2.12.28-3.32c0-.23,0-.45,0-.67a5.2,5.2,0,0,1,.15-.7.49.49,0,0,1,.41-.33,2.35,2.35,0,0,1,.54-.07.68.68,0,0,1,.31.08.3.3,0,0,1,.18.25c-.06.78-.14,1.52-.25,2.21a17,17,0,0,0-.2,2.21Zm.93,2.19c-.06.18-.11.35-.17.5s-.1.31-.14.47a4,4,0,0,0-.11.5,3.53,3.53,0,0,0-.07.59.72.72,0,0,0,.39.26,2.05,2.05,0,0,0,.47,0,1.2,1.2,0,0,0,.74-.35,2.05,2.05,0,0,0,.45-.71,3.67,3.67,0,0,0,.22-.91c0-.32,0-.62,0-.9,0-.11,0-.24,0-.39a2,2,0,0,0-.05-.42,1.5,1.5,0,0,0-.12-.34q-.07-.15-.18-.15a.58.58,0,0,0-.32.18,4.67,4.67,0,0,0-.43.45,4.46,4.46,0,0,0-.41.56,2.13,2.13,0,0,0-.27.51Z"/><path class="cls-3" d="M332.38,511.43a.25.25,0,0,0,0,.07.19.19,0,0,1,0,.07.45.45,0,0,1-.25.43,1,1,0,0,1-.5.14.83.83,0,0,1-.73-.5,4.73,4.73,0,0,1-.42-1.17,8.88,8.88,0,0,1-.19-1.33c0-.44-.05-.76-.05-1,0-.6,0-1.13,0-1.6s0-1,0-1.47c0-.67,0-1.33.1-2a18.34,18.34,0,0,0,.1-2,.63.63,0,0,1,.11-.38,1.39,1.39,0,0,1,.3-.29h.35a2.59,2.59,0,0,1,.4.09,1,1,0,0,1,.31.21.49.49,0,0,1,.12.36,5.2,5.2,0,0,1-.09,1,5.2,5.2,0,0,0-.09,1c0,.46,0,.88,0,1.25s0,.74,0,1.11,0,.61,0,.9,0,.58,0,.87,0,.4,0,.59,0,.37,0,.54a9.42,9.42,0,0,0,.15,1.59C332.17,510.48,332.27,511,332.38,511.43Z"/><path class="cls-3" d="M333.73,508.59a5.35,5.35,0,0,1,.18-1.36,4.22,4.22,0,0,1,.52-1.23,2.93,2.93,0,0,1,.86-.89,2.13,2.13,0,0,1,1.19-.33,2.16,2.16,0,0,1,.83.14,2.07,2.07,0,0,1,.59.38,1.6,1.6,0,0,1,.36.54,1.76,1.76,0,0,1,.12.63,2.26,2.26,0,0,1-.16.82,2.1,2.1,0,0,1-.45.7,2,2,0,0,1-.72.5,2.52,2.52,0,0,1-1,.21,1.44,1.44,0,0,1-.42,0l-.42-.11a1,1,0,0,0,0,.15v.1a2.62,2.62,0,0,0,.22,1.06,1.87,1.87,0,0,0,.44.58,1.2,1.2,0,0,0,.46.24,1.44,1.44,0,0,0,.29.06,1.63,1.63,0,0,0,.94-.26l.83-.56.2.08a.55.55,0,0,1,.21.17l0,.18a.78.78,0,0,1,0,.19.84.84,0,0,1-.14.43,1.87,1.87,0,0,1-.26.3,2.47,2.47,0,0,1-.89.52,3.9,3.9,0,0,1-1.07.12,2.9,2.9,0,0,1-.72-.13,7,7,0,0,1-.72-.27,3.31,3.31,0,0,1-.68-.66,2.55,2.55,0,0,1-.39-.7,3.13,3.13,0,0,1-.18-.76C333.77,509.16,333.75,508.89,333.73,508.59Zm1.59-1,.23,0h.25a1.37,1.37,0,0,0,1-.31,1,1,0,0,0,.34-.75.82.82,0,0,0-.15-.47.45.45,0,0,0-.4-.22,1.47,1.47,0,0,0-.36,0,.37.37,0,0,0-.26.18l-.17.18a.9.9,0,0,0-.17.26,2.06,2.06,0,0,0-.16.41A3.76,3.76,0,0,0,335.32,507.61Z"/><path class="cls-3" d="M292.52,531.65a2,2,0,0,1-1.45-.77,4.08,4.08,0,0,1-.82-2.67,8.9,8.9,0,0,1,.68-3.3,3.51,3.51,0,0,1,.95-1.54,2.59,2.59,0,0,1,1.73-.62,1.75,1.75,0,0,1,1.13.38,3.51,3.51,0,0,1,.86,1,2.61,2.61,0,0,1,.34.93c.06.33.11.65.16,1a6,6,0,0,1,0,.73,5.42,5.42,0,0,1-1.41,3.65,2.88,2.88,0,0,1-2.1,1.23ZM294.4,525a1.09,1.09,0,0,0-.48-.71.89.89,0,0,0-.38-.15.58.58,0,0,0-.35.2A5.07,5.07,0,0,0,291.8,528a4.08,4.08,0,0,0,.62,2.25.28.28,0,0,0,.22.14c.13,0,.34-.17.64-.51a4.54,4.54,0,0,0,1.41-3.07,3.89,3.89,0,0,0-.11-.9C294.51,525.57,294.45,525.27,294.4,525Z"/><path class="cls-3" d="M298.16,535.38a.57.57,0,0,1,.33-.55,2.05,2.05,0,0,0,.8-.66,6.88,6.88,0,0,0,1.08-3.69,4.31,4.31,0,0,0-.44-2A1,1,0,0,0,299,528c-.66-.05-1-.09-1.1-.11-.51-.2-.77-.44-.77-.72a18.08,18.08,0,0,1,1.54-5.72c.07-.18.25-.27.53-.27s.62.14.69.42a1.22,1.22,0,0,0,.42.09,3.29,3.29,0,0,0,1-.24,4,4,0,0,1,1.07-.25,1.24,1.24,0,0,1,.83.31,1,1,0,0,1,.14.46.39.39,0,0,1,0,.18,4.49,4.49,0,0,1-1.88.8,8.37,8.37,0,0,0-2,.64,11.72,11.72,0,0,0-.82,2.91q2.71.79,3,2.43c0,.27.08.53.1.8s0,.54,0,.81a7.69,7.69,0,0,1-1.93,5.42.9.9,0,0,1-.64.37.54.54,0,0,1-.28-.09,1.41,1.41,0,0,0-.24-.13l-.25-.11a.59.59,0,0,1-.33-.49Z"/><path class="cls-3" d="M305.47,531.15a1.07,1.07,0,0,1-.69-.32.92.92,0,0,1-.33-.66.62.62,0,0,1,.56-.59l.7.06a.59.59,0,0,1,.49.44,1.71,1.71,0,0,1,.07.45.59.59,0,0,1-.18.49.77.77,0,0,1-.47.13Z"/><path class="cls-3" d="M310,520.06a2.79,2.79,0,0,1,.05-.47l.24-.12a.54.54,0,0,1,.24-.05,1,1,0,0,1,.5.11.78.78,0,0,1,.29.28.92.92,0,0,1,.14.37,3,3,0,0,1,0,.41c0,.26,0,.48,0,.67s0,.38,0,.56,0,.39,0,.57V523c0,.13,0,.27,0,.42s0,.3,0,.46a.65.65,0,0,0,0,.2c0,.06.06.09.16.09a2,2,0,0,0,.83-.16,2.16,2.16,0,0,1,.83-.15.35.35,0,0,1,.35.2,1,1,0,0,1,.09.4.63.63,0,0,1-.11.38.71.71,0,0,1-.27.21l-.36.11-.37.1a2.3,2.3,0,0,1-.4.14l-.43.16a1.2,1.2,0,0,0-.34.23.5.5,0,0,0-.15.37,1.77,1.77,0,0,0,0,.24,1.55,1.55,0,0,1,0,.22,1.85,1.85,0,0,1,0,.23,1.85,1.85,0,0,0,0,.24,12.73,12.73,0,0,0,.12,1.71c.08.59.17,1.16.26,1.71,0,.17.08.34.13.51a1.72,1.72,0,0,1,.08.48.58.58,0,0,1-.17.45.81.81,0,0,1-.36.2l-.22,0a.75.75,0,0,1-.47-.17,1.68,1.68,0,0,1-.36-.43,3.78,3.78,0,0,1-.15-.7c0-.29-.07-.56-.08-.8,0-.6-.06-1.19-.08-1.78l0-1.78s0-.1,0-.14a.48.48,0,0,0,0-.14,1.88,1.88,0,0,0-.55.17,1.13,1.13,0,0,1-.51.11.88.88,0,0,1-.62-.24,4.29,4.29,0,0,1-.38-.39,2,2,0,0,1,.09-.51,3,3,0,0,1,.44-.13l.39-.07.39-.09a2.56,2.56,0,0,0,.44-.18c.2,0,.31-.08.34-.23a2.08,2.08,0,0,0,.05-.39c0-.22,0-.41,0-.56s0-.37,0-.65,0-.37,0-.56,0-.37,0-.55Z"/><path class="cls-3" d="M320.87,531.36a2.09,2.09,0,0,1,.11.3.8.8,0,0,1,.06.3.34.34,0,0,1-.09.24.48.48,0,0,1-.2.14.75.75,0,0,1-.24.08l-.24,0a.69.69,0,0,1-.6-.41,3.75,3.75,0,0,1-.39-1,12,12,0,0,1-.24-1.3c-.07-.46-.13-.87-.2-1.23a3.12,3.12,0,0,1-.35,1,6.15,6.15,0,0,1-.76,1.12,5.13,5.13,0,0,1-1,.92,1.87,1.87,0,0,1-1.09.39,1.33,1.33,0,0,1-.72-.18,1.11,1.11,0,0,1-.43-.43,1.55,1.55,0,0,1-.2-.57,3.29,3.29,0,0,1-.06-.6,4.88,4.88,0,0,1,.3-1.49,8.71,8.71,0,0,1,.82-1.72,6.33,6.33,0,0,1,1.21-1.44,2.22,2.22,0,0,1,1.45-.59,1.89,1.89,0,0,1,.38,0l.43.14a4,4,0,0,1,.42.2l.35.23a1.35,1.35,0,0,1,.42.69,8.82,8.82,0,0,1,.16.92c.09.61.15,1.16.2,1.65a11.61,11.61,0,0,0,.27,1.56l.11.68Zm-5.15-1s0,0,0,0,0,0,0,0a1,1,0,0,0,.55-.32,6.73,6.73,0,0,0,.62-.72,9,9,0,0,0,.57-.89,5.12,5.12,0,0,0,.4-.83,2.84,2.84,0,0,1,.17-.36l.2-.42a2.47,2.47,0,0,0,.16-.39.8.8,0,0,0,.07-.31l-.17-.07a.27.27,0,0,0-.16,0,1,1,0,0,0-.71.31,3.35,3.35,0,0,0-.54.7,5.78,5.78,0,0,0-.38.74,2.91,2.91,0,0,1-.2.44,6.29,6.29,0,0,0-.43,1,3.46,3.46,0,0,0-.17,1Z"/><path class="cls-3" d="M323.67,526.08v.57c0,.14,0,.27,0,.39s0,.21,0,.24a7.3,7.3,0,0,1,.37-.66q.21-.33.69-.93l.16-.14a2,2,0,0,1,.34-.24,2.26,2.26,0,0,1,.47-.22,1.73,1.73,0,0,1,.56-.09,1.3,1.3,0,0,1,.89.3,2.22,2.22,0,0,1,.53.74,4,4,0,0,1,.26,1,6.23,6.23,0,0,1,.07.91c0,.15,0,.36,0,.62a7.42,7.42,0,0,1-.15.86,5.1,5.1,0,0,1-.3.91,2.35,2.35,0,0,1-.5.74,2.88,2.88,0,0,1-1,.58,3,3,0,0,1-1,.2,5.49,5.49,0,0,1-.91-.07,7.71,7.71,0,0,1-.86-.2.53.53,0,0,1-.21-.21,3.82,3.82,0,0,1-.21-.36,4.08,4.08,0,0,1-.17-.42c-.05-.14-.09-.28-.13-.42a1.06,1.06,0,0,1-.11-.35c0-.21-.07-.44-.1-.72s0-.56-.07-.86,0-.56,0-.79q0-1.53.06-3.06c0-1,.12-2.12.27-3.32a4.92,4.92,0,0,1,0-.67,3.94,3.94,0,0,1,.14-.7.52.52,0,0,1,.41-.34,3.15,3.15,0,0,1,.54-.06.78.78,0,0,1,.31.07.37.37,0,0,1,.19.26c-.06.78-.15,1.52-.26,2.21a16.8,16.8,0,0,0-.2,2.21Zm.93,2.19-.17.5a3.68,3.68,0,0,0-.15.47c0,.15-.08.32-.11.5a4.89,4.89,0,0,0-.06.59.76.76,0,0,0,.38.26,2.84,2.84,0,0,0,.47,0,1.26,1.26,0,0,0,.75-.35,2.31,2.31,0,0,0,.44-.71,3.79,3.79,0,0,0,.22-.91,7.28,7.28,0,0,0,.06-.9c0-.11,0-.24,0-.39a3,3,0,0,0-.06-.42,1.35,1.35,0,0,0-.12-.34.21.21,0,0,0-.18-.15.62.62,0,0,0-.32.18,3.77,3.77,0,0,0-.43.45c-.14.18-.28.36-.41.56a1.76,1.76,0,0,0-.26.51Z"/><path class="cls-3" d="M331.6,531.48a.12.12,0,0,0,0,.08.17.17,0,0,1,0,.07.46.46,0,0,1-.24.43,1.09,1.09,0,0,1-.51.14.83.83,0,0,1-.73-.51,4.46,4.46,0,0,1-.42-1.17,10,10,0,0,1-.19-1.32c0-.44,0-.77,0-1,0-.59,0-1.13,0-1.6s0-1,0-1.47a18,18,0,0,1,.1-2,18.47,18.47,0,0,0,.1-2,.56.56,0,0,1,.11-.38,1.61,1.61,0,0,1,.29-.3l.36,0a1.24,1.24,0,0,1,.39.09,1.1,1.1,0,0,1,.31.2.49.49,0,0,1,.13.37,5.2,5.2,0,0,1-.09,1,5.2,5.2,0,0,0-.09,1c0,.46,0,.88,0,1.25s0,.74,0,1.1,0,.62,0,.91,0,.57,0,.87,0,.4,0,.59,0,.37,0,.54a8.72,8.72,0,0,0,.16,1.59C331.38,530.53,331.49,531.05,331.6,531.48Z"/><path class="cls-3" d="M333,528.65a5.82,5.82,0,0,1,.17-1.36,4.26,4.26,0,0,1,.52-1.23,2.93,2.93,0,0,1,.86-.89,2.16,2.16,0,0,1,1.19-.34,2.12,2.12,0,0,1,.83.15,1.81,1.81,0,0,1,.6.38,1.73,1.73,0,0,1,.35.54,1.68,1.68,0,0,1,.12.63,2.05,2.05,0,0,1-.16.81,2.17,2.17,0,0,1-.44.71,2.32,2.32,0,0,1-.72.5,2.56,2.56,0,0,1-1,.21,1.41,1.41,0,0,1-.42,0,3.31,3.31,0,0,1-.42-.11,1.15,1.15,0,0,0,0,.16v.1a2.36,2.36,0,0,0,.22,1.06,1.59,1.59,0,0,0,.44.57,1.28,1.28,0,0,0,.45.25l.3.06a1.65,1.65,0,0,0,.94-.26l.83-.57.2.09a.45.45,0,0,1,.2.17.61.61,0,0,0,0,.17,1,1,0,0,1,0,.2.87.87,0,0,1-.14.42,1.63,1.63,0,0,1-.27.31,2.59,2.59,0,0,1-.88.52,4,4,0,0,1-1.07.12,2.75,2.75,0,0,1-.72-.13,4.88,4.88,0,0,1-.73-.28,3.56,3.56,0,0,1-.68-.65,2.51,2.51,0,0,1-.38-.7,2.73,2.73,0,0,1-.19-.76C333,529.22,333,528.94,333,528.65Zm1.59-1,.23,0H335a1.34,1.34,0,0,0,1-.31,1,1,0,0,0,.34-.75.8.8,0,0,0-.15-.47.44.44,0,0,0-.4-.22,2,2,0,0,0-.35,0,.41.41,0,0,0-.27.19l-.16.18a1.17,1.17,0,0,0-.18.26,3.06,3.06,0,0,0-.15.41A3,3,0,0,0,334.54,527.67Z"/><path class="cls-3" d="M344.92,520.06a2,2,0,0,1,.05-.47l.24-.12a.54.54,0,0,1,.24-.05,1.06,1.06,0,0,1,.5.11.87.87,0,0,1,.29.28,1.09,1.09,0,0,1,.14.37,2.93,2.93,0,0,1,0,.41c0,.26,0,.48,0,.67a5.33,5.33,0,0,1,0,.56c0,.19,0,.39,0,.57s0,.38,0,.58,0,.27,0,.42,0,.3,0,.46a1.23,1.23,0,0,0,0,.2c0,.06.07.09.17.09a2,2,0,0,0,.83-.16,2.12,2.12,0,0,1,.83-.15.35.35,0,0,1,.35.2,1,1,0,0,1,.09.4.63.63,0,0,1-.11.38.79.79,0,0,1-.27.21l-.36.11-.38.1a2.49,2.49,0,0,1-.39.14l-.43.16a1.41,1.41,0,0,0-.35.23.53.53,0,0,0-.14.37,1.77,1.77,0,0,0,0,.24c0,.07,0,.14,0,.22s0,.15,0,.23a1.85,1.85,0,0,0,0,.24,12.73,12.73,0,0,0,.12,1.71c.08.59.16,1.16.26,1.71,0,.17.08.34.13.51a1.69,1.69,0,0,1,.07.48.58.58,0,0,1-.16.45.79.79,0,0,1-.37.2l-.22,0a.73.73,0,0,1-.46-.17,1.68,1.68,0,0,1-.36-.43,3.78,3.78,0,0,1-.15-.7c-.05-.29-.07-.56-.09-.8,0-.6-.06-1.19-.07-1.78s0-1.19,0-1.78v-.14a1.21,1.21,0,0,0-.05-.14,1.88,1.88,0,0,0-.55.17,1.16,1.16,0,0,1-.51.11.88.88,0,0,1-.62-.24,4.29,4.29,0,0,1-.38-.39,2,2,0,0,1,.09-.51,2.71,2.71,0,0,1,.44-.13l.39-.07.39-.09a2.93,2.93,0,0,0,.44-.18c.19,0,.31-.08.34-.23a2,2,0,0,0,0-.39c0-.22,0-.41,0-.56s0-.37,0-.65v-.56c0-.19,0-.37,0-.55Z"/><path class="cls-3" d="M349.39,528.65a5.35,5.35,0,0,1,.18-1.36,4,4,0,0,1,.52-1.23,2.82,2.82,0,0,1,.86-.89,2.12,2.12,0,0,1,1.18-.34,2.09,2.09,0,0,1,.83.15,1.81,1.81,0,0,1,.6.38,1.44,1.44,0,0,1,.35.54,1.68,1.68,0,0,1,.12.63,2.24,2.24,0,0,1-.15.81,2,2,0,0,1-.45.71,2.11,2.11,0,0,1-.72.5,2.52,2.52,0,0,1-1,.21,1.41,1.41,0,0,1-.42,0,3.31,3.31,0,0,1-.42-.11,1.15,1.15,0,0,0,0,.16v.1a2.5,2.5,0,0,0,.22,1.06,1.71,1.71,0,0,0,.44.57,1.24,1.24,0,0,0,.46.25,1.32,1.32,0,0,0,.29.06,1.63,1.63,0,0,0,.94-.26l.83-.57.2.09a.4.4,0,0,1,.2.17c0,.07,0,.13,0,.17a1,1,0,0,1,0,.2.78.78,0,0,1-.14.42,2,2,0,0,1-.26.31,2.62,2.62,0,0,1-.89.52,3.9,3.9,0,0,1-1.07.12,2.9,2.9,0,0,1-.72-.13,4.34,4.34,0,0,1-.72-.28,4,4,0,0,1-.69-.65,2.8,2.8,0,0,1-.38-.7,3.13,3.13,0,0,1-.18-.76C349.43,529.22,349.41,528.94,349.39,528.65Zm1.59-1,.23,0h.25a1.37,1.37,0,0,0,1-.31,1,1,0,0,0,.33-.75.79.79,0,0,0-.14-.47.45.45,0,0,0-.4-.22,2.1,2.1,0,0,0-.36,0,.39.39,0,0,0-.26.19l-.17.18a.9.9,0,0,0-.17.26,2.06,2.06,0,0,0-.16.41A3.76,3.76,0,0,0,351,527.67Z"/><path class="cls-3" d="M357.12,529.09a1.81,1.81,0,0,0,.41-.66c.11-.27.21-.52.3-.76l0-.11a5.91,5.91,0,0,1,.33-.73,7,7,0,0,1,.51-.82,4.1,4.1,0,0,1,.64-.67,1.15,1.15,0,0,1,.71-.27.88.88,0,0,1,.47.29,2,2,0,0,1,.24.45c.05.16.1.34.14.51a2.46,2.46,0,0,0,.18.5,6,6,0,0,1,.35,1.14c.08.4.15.81.2,1.22s.12.82.19,1.23a6,6,0,0,0,.33,1.11.51.51,0,0,1-.32.43,1.15,1.15,0,0,1-.5.14.61.61,0,0,1-.51-.25,1.75,1.75,0,0,1-.28-.6,4.62,4.62,0,0,1-.15-.74,3.87,3.87,0,0,0-.12-.64,4.25,4.25,0,0,1-.14-.71c0-.26-.08-.52-.13-.79a6.89,6.89,0,0,0-.18-.75,1.52,1.52,0,0,0-.28-.57,7.2,7.2,0,0,0-.5.93c-.13.28-.24.56-.35.82l-.3.77a6.4,6.4,0,0,1-.36.75,6,6,0,0,1-.54.83,2.48,2.48,0,0,1-.43.43,1,1,0,0,1-.39.16l-.34,0a.82.82,0,0,1-.45-.18.54.54,0,0,1-.27-.44c0-.77,0-1.48,0-2.14s0-1.35,0-2.08c0-.21,0-.42,0-.63s0-.43,0-.63a1.07,1.07,0,0,1,.09-.43.57.57,0,0,1,.28-.31h.42a.53.53,0,0,1,.38.13,1,1,0,0,1,.2.34,2.07,2.07,0,0,1,.08.42c0,.15,0,.27,0,.37a1.58,1.58,0,0,0,0,.38,1.58,1.58,0,0,1,.05.38c0,.45,0,.84,0,1.16s0,.62,0,.91Z"/><path class="cls-3" d="M364.91,529.09a2,2,0,0,0,.41-.66c.1-.27.2-.52.3-.76l0-.11c.08-.2.19-.44.33-.73a6,6,0,0,1,.52-.82,3.67,3.67,0,0,1,.63-.67,1.17,1.17,0,0,1,.72-.27.89.89,0,0,1,.46.29,1.4,1.4,0,0,1,.24.45c.06.16.1.34.15.51a2.45,2.45,0,0,0,.17.5,5.41,5.41,0,0,1,.36,1.14c.08.4.14.81.2,1.22s.12.82.19,1.23a4.78,4.78,0,0,0,.33,1.11.53.53,0,0,1-.32.43,1.23,1.23,0,0,1-.5.14.64.64,0,0,1-.52-.25,2,2,0,0,1-.28-.6,4.62,4.62,0,0,1-.15-.74,5.55,5.55,0,0,0-.11-.64,4.2,4.2,0,0,1-.15-.71c0-.26-.08-.52-.13-.79a7,7,0,0,0-.17-.75,1.53,1.53,0,0,0-.29-.57,8.69,8.69,0,0,0-.5.93c-.12.28-.24.56-.34.82s-.21.52-.31.77a5.12,5.12,0,0,1-.36.75,6.09,6.09,0,0,1-.53.83,2.88,2.88,0,0,1-.44.43.94.94,0,0,1-.38.16l-.35,0a.87.87,0,0,1-.45-.18.55.55,0,0,1-.26-.44c0-.77,0-1.48,0-2.14v-2.08c0-.21,0-.42,0-.63s0-.43,0-.63a1.26,1.26,0,0,1,.08-.43.61.61,0,0,1,.28-.31h.42a.52.52,0,0,1,.38.13.83.83,0,0,1,.2.34,2.07,2.07,0,0,1,.08.42c0,.15,0,.27,0,.37a1.58,1.58,0,0,0,0,.38,1.58,1.58,0,0,1,0,.38c0,.45,0,.84,0,1.16s0,.62,0,.91Z"/><path class="cls-3" d="M373.07,531.25a.65.65,0,0,1-.07.29,1.46,1.46,0,0,1-.28.35,2.62,2.62,0,0,1-.57-.06,1,1,0,0,1-.46-.22,1.06,1.06,0,0,1-.3-.47,2.71,2.71,0,0,1-.11-.84,3.36,3.36,0,0,0-.06-.63,2.56,2.56,0,0,1-.07-.62,12.55,12.55,0,0,0-.11-1.77,14.25,14.25,0,0,1-.11-1.77.67.67,0,0,1,.32-.59l.34-.08.37-.06a.81.81,0,0,1,.38.21l.24.26,0,.37c0,.12,0,.25,0,.38,0,.47,0,1,.08,1.48s.1,1,.16,1.5.12.91.17,1.3.1.69.12.89ZM371.46,521a.48.48,0,0,1,.33-.09,1.31,1.31,0,0,1,.38.06,1.45,1.45,0,0,1,.35.18,1.15,1.15,0,0,1,.27.27.52.52,0,0,1,.1.31.56.56,0,0,1-.17.47.87.87,0,0,1-.49.11,1.51,1.51,0,0,1-.41-.06,1.79,1.79,0,0,1-.37-.15,1.18,1.18,0,0,1-.27-.2.26.26,0,0,1-.1-.19,1.46,1.46,0,0,1,.05-.38A.64.64,0,0,1,371.46,521Z"/><path class="cls-3" d="M376.78,528.1c.24.47.47.93.68,1.4a4,4,0,0,1,.31,1.58,2.23,2.23,0,0,1-.16.86,2,2,0,0,1-.43.71,2.13,2.13,0,0,1-.65.5,1.94,1.94,0,0,1-.83.18,1,1,0,0,1-.7-.3,1.11,1.11,0,0,1-.36-.69,1.08,1.08,0,0,1,.14-.21.75.75,0,0,1,.28-.12.64.64,0,0,0,.44.22.71.71,0,0,0,.55-.27,1,1,0,0,0,.24-.7.62.62,0,0,0,0-.18,8.39,8.39,0,0,0-.51-1.49c-.21-.44-.41-.86-.61-1.25s-.38-.76-.53-1.1a2.82,2.82,0,0,1-.21-1.06,5.63,5.63,0,0,1,.07-.9,3.5,3.5,0,0,1,.25-.87,1.92,1.92,0,0,1,.49-.65,1.12,1.12,0,0,1,.78-.26h.2a.37.37,0,0,1,.31.19,2.3,2.3,0,0,1,.18.34.29.29,0,0,1-.1.23,1.54,1.54,0,0,0-.19.17,1.72,1.72,0,0,0-.32.65,2.55,2.55,0,0,0-.1.72v.44a1.09,1.09,0,0,0,.09.36q.09.24.21.51c.08.17.16.34.24.49a3,3,0,0,0,.19.34Z"/><path class="cls-3" d="M384.84,520.06a2.79,2.79,0,0,1,.05-.47l.24-.12a.54.54,0,0,1,.24-.05,1,1,0,0,1,.5.11.78.78,0,0,1,.29.28.92.92,0,0,1,.14.37,3,3,0,0,1,0,.41c0,.26,0,.48,0,.67a5.33,5.33,0,0,1,0,.56c0,.19,0,.39,0,.57s0,.38,0,.58v.42c0,.15,0,.3,0,.46a1.27,1.27,0,0,0,0,.2c0,.06.07.09.17.09a2,2,0,0,0,.83-.16,2.16,2.16,0,0,1,.83-.15.35.35,0,0,1,.35.2,1,1,0,0,1,.09.4.63.63,0,0,1-.11.38.71.71,0,0,1-.27.21l-.36.11-.37.1a2.3,2.3,0,0,1-.4.14l-.43.16a1.2,1.2,0,0,0-.34.23.5.5,0,0,0-.15.37,1.77,1.77,0,0,0,0,.24,1.55,1.55,0,0,1,0,.22,1.85,1.85,0,0,1,0,.23,1.85,1.85,0,0,0,0,.24,12.73,12.73,0,0,0,.12,1.71c.08.59.17,1.16.26,1.71,0,.17.08.34.13.51a1.72,1.72,0,0,1,.08.48.58.58,0,0,1-.17.45.81.81,0,0,1-.36.2l-.22,0a.75.75,0,0,1-.47-.17,1.68,1.68,0,0,1-.36-.43,3.78,3.78,0,0,1-.15-.7c0-.29-.07-.56-.08-.8,0-.6-.06-1.19-.08-1.78l0-1.78s0-.1,0-.14a.48.48,0,0,0-.05-.14,1.88,1.88,0,0,0-.55.17,1.13,1.13,0,0,1-.51.11.88.88,0,0,1-.62-.24,4.29,4.29,0,0,1-.38-.39,2,2,0,0,1,.09-.51,3,3,0,0,1,.44-.13l.39-.07.39-.09a2.56,2.56,0,0,0,.44-.18c.2,0,.31-.08.34-.23a2,2,0,0,0,0-.39v-.56c0-.15,0-.37,0-.65s0-.37,0-.56,0-.37,0-.55Z"/><path class="cls-3" d="M395.69,531.36c0,.09.07.19.11.3a.8.8,0,0,1,.06.3.34.34,0,0,1-.09.24.48.48,0,0,1-.2.14.75.75,0,0,1-.24.08l-.24,0a.68.68,0,0,1-.6-.41,3.75,3.75,0,0,1-.39-1,12,12,0,0,1-.24-1.3c-.07-.46-.14-.87-.2-1.23a3.12,3.12,0,0,1-.35,1,6.15,6.15,0,0,1-.76,1.12,5.13,5.13,0,0,1-1,.92,1.87,1.87,0,0,1-1.09.39,1.3,1.3,0,0,1-.72-.18,1.11,1.11,0,0,1-.43-.43,1.55,1.55,0,0,1-.2-.57,3.29,3.29,0,0,1-.06-.6,4.88,4.88,0,0,1,.3-1.49,8.71,8.71,0,0,1,.82-1.72,6.33,6.33,0,0,1,1.21-1.44,2.22,2.22,0,0,1,1.45-.59,1.89,1.89,0,0,1,.38,0l.43.14a4,4,0,0,1,.42.2l.34.23a1.23,1.23,0,0,1,.42.69,6.8,6.8,0,0,1,.17.92c.08.61.15,1.16.2,1.65a11.61,11.61,0,0,0,.27,1.56l.11.68Zm-5.15-1s0,0,0,0,0,0,0,0a1,1,0,0,0,.55-.32,6.73,6.73,0,0,0,.62-.72c.2-.28.39-.58.57-.89a5.12,5.12,0,0,0,.4-.83,2.84,2.84,0,0,1,.17-.36l.2-.42a2.47,2.47,0,0,0,.16-.39.8.8,0,0,0,.07-.31l-.17-.07a.29.29,0,0,0-.16,0,1,1,0,0,0-.71.31,3.35,3.35,0,0,0-.54.7,5.78,5.78,0,0,0-.38.74,2.91,2.91,0,0,1-.2.44,6.29,6.29,0,0,0-.43,1,3.46,3.46,0,0,0-.17,1Z"/><path class="cls-3" d="M398.49,526.08v.57c0,.14,0,.27,0,.39v.24c.12-.22.24-.44.38-.66s.37-.53.68-.93l.17-.14a1.66,1.66,0,0,1,.34-.24,2.26,2.26,0,0,1,.47-.22,1.73,1.73,0,0,1,.56-.09,1.31,1.31,0,0,1,.89.3,2.22,2.22,0,0,1,.53.74,4,4,0,0,1,.26,1,6.23,6.23,0,0,1,.07.91c0,.15,0,.36,0,.62a7.42,7.42,0,0,1-.15.86,5.1,5.1,0,0,1-.3.91,2.35,2.35,0,0,1-.5.74,2.88,2.88,0,0,1-1,.58,3,3,0,0,1-1,.2,5.49,5.49,0,0,1-.91-.07,8.44,8.44,0,0,1-.87-.2.69.69,0,0,1-.21-.21c-.06-.11-.13-.22-.2-.36a4.08,4.08,0,0,1-.17-.42c-.05-.14-.09-.28-.13-.42a1.06,1.06,0,0,1-.11-.35c0-.21-.07-.44-.1-.72s-.05-.56-.07-.86,0-.56,0-.79q0-1.53.06-3.06c0-1,.12-2.12.27-3.32a4.92,4.92,0,0,1,0-.67,3.94,3.94,0,0,1,.14-.7.52.52,0,0,1,.41-.34,3.15,3.15,0,0,1,.54-.06.78.78,0,0,1,.31.07.37.37,0,0,1,.19.26c-.06.78-.15,1.52-.26,2.21a16.8,16.8,0,0,0-.2,2.21Zm.93,2.19-.17.5a3.68,3.68,0,0,0-.15.47c0,.15-.08.32-.11.5a4.89,4.89,0,0,0-.06.59.76.76,0,0,0,.38.26,2.84,2.84,0,0,0,.47,0,1.23,1.23,0,0,0,.74-.35,2.15,2.15,0,0,0,.45-.71,3.79,3.79,0,0,0,.22-.91,7.28,7.28,0,0,0,.06-.9c0-.11,0-.24,0-.39a3,3,0,0,0-.06-.42,1.35,1.35,0,0,0-.12-.34q-.07-.15-.18-.15a.62.62,0,0,0-.32.18,3.77,3.77,0,0,0-.43.45c-.14.18-.28.36-.41.56a1.76,1.76,0,0,0-.26.51Z"/><path class="cls-3" d="M406.42,531.48a.22.22,0,0,0,0,.08.1.1,0,0,1,0,.07.46.46,0,0,1-.24.43,1.09,1.09,0,0,1-.51.14.83.83,0,0,1-.73-.51,4.46,4.46,0,0,1-.42-1.17,10,10,0,0,1-.19-1.32c0-.44,0-.77,0-1,0-.59,0-1.13,0-1.6s0-1,0-1.47a18,18,0,0,1,.1-2c.06-.64.1-1.31.1-2a.56.56,0,0,1,.11-.38,1.61,1.61,0,0,1,.29-.3l.36,0a1.24,1.24,0,0,1,.39.09,1.1,1.1,0,0,1,.31.2.54.54,0,0,1,.13.37,5.2,5.2,0,0,1-.09,1,5.2,5.2,0,0,0-.09,1c0,.46,0,.88,0,1.25s0,.74,0,1.1,0,.62,0,.91,0,.57,0,.87,0,.4,0,.59,0,.37,0,.54a8.72,8.72,0,0,0,.16,1.59C406.2,530.53,406.31,531.05,406.42,531.48Z"/><path class="cls-3" d="M407.77,528.65a5.82,5.82,0,0,1,.17-1.36,4.26,4.26,0,0,1,.52-1.23,2.93,2.93,0,0,1,.86-.89,2.16,2.16,0,0,1,1.19-.34,2.12,2.12,0,0,1,.83.15,1.67,1.67,0,0,1,.59.38,1.6,1.6,0,0,1,.36.54,1.68,1.68,0,0,1,.12.63,2.05,2.05,0,0,1-.16.81,2.17,2.17,0,0,1-.44.71,2.25,2.25,0,0,1-.73.5,2.47,2.47,0,0,1-1,.21,1.41,1.41,0,0,1-.42,0,2.93,2.93,0,0,1-.42-.11.5.5,0,0,0,0,.16v.1a2.36,2.36,0,0,0,.22,1.06,1.59,1.59,0,0,0,.44.57,1.2,1.2,0,0,0,.45.25l.3.06a1.65,1.65,0,0,0,.94-.26l.83-.57.2.09a.45.45,0,0,1,.2.17.61.61,0,0,0,0,.17,1.09,1.09,0,0,1,0,.2.77.77,0,0,1-.13.42,1.63,1.63,0,0,1-.27.31,2.59,2.59,0,0,1-.88.52,4,4,0,0,1-1.07.12,2.75,2.75,0,0,1-.72-.13,4.88,4.88,0,0,1-.73-.28,3.56,3.56,0,0,1-.68-.65,2.84,2.84,0,0,1-.39-.7,3.13,3.13,0,0,1-.18-.76C407.8,529.22,407.78,528.94,407.77,528.65Zm1.59-1,.23,0h.24a1.34,1.34,0,0,0,1-.31,1,1,0,0,0,.34-.75.8.8,0,0,0-.15-.47.44.44,0,0,0-.4-.22,2,2,0,0,0-.35,0,.41.41,0,0,0-.27.19l-.16.18a1.17,1.17,0,0,0-.18.26,3.06,3.06,0,0,0-.15.41A3,3,0,0,0,409.36,527.67Z"/><path class="cls-3" d="M383.62,551.62a1.1,1.1,0,0,1-.7-.32.92.92,0,0,1-.33-.66.55.55,0,0,1,.19-.41.54.54,0,0,1,.38-.18l.69.06a.6.6,0,0,1,.5.44,1.71,1.71,0,0,1,.07.45.59.59,0,0,1-.18.49.78.78,0,0,1-.48.13Z"/><path class="cls-3" d="M388.44,551.62a1.1,1.1,0,0,1-.69-.32.92.92,0,0,1-.33-.66.62.62,0,0,1,.56-.59l.7.06a.59.59,0,0,1,.49.44,1.71,1.71,0,0,1,.07.45.59.59,0,0,1-.18.49.77.77,0,0,1-.47.13Z"/><path class="cls-3" d="M393.26,551.62a1.1,1.1,0,0,1-.69-.32.92.92,0,0,1-.33-.66.54.54,0,0,1,.18-.41.54.54,0,0,1,.39-.18l.69.06a.62.62,0,0,1,.5.44,2.26,2.26,0,0,1,.07.45.56.56,0,0,1-.19.49.77.77,0,0,1-.47.13Z"/><path class="cls-3" d="M396.31,549.12a5.35,5.35,0,0,1,.18-1.36,4,4,0,0,1,.52-1.23,2.93,2.93,0,0,1,.86-.89,2.13,2.13,0,0,1,1.19-.34,2.16,2.16,0,0,1,.83.15,1.87,1.87,0,0,1,.59.38,1.6,1.6,0,0,1,.36.54,1.68,1.68,0,0,1,.12.63,2.25,2.25,0,0,1-.16.81,2,2,0,0,1-.45.71,2.11,2.11,0,0,1-.72.5,2.52,2.52,0,0,1-1,.21,1.43,1.43,0,0,1-.42,0,3.31,3.31,0,0,1-.42-.11,1.15,1.15,0,0,0,0,.16v.1a2.66,2.66,0,0,0,.22,1.06,1.82,1.82,0,0,0,.44.57,1.24,1.24,0,0,0,.46.25,1.44,1.44,0,0,0,.29.06,1.63,1.63,0,0,0,.94-.26l.83-.57.2.09a.47.47,0,0,1,.21.17c0,.07,0,.13,0,.17a.92.92,0,0,1,0,.19.79.79,0,0,1-.14.43,1.58,1.58,0,0,1-.26.31,2.62,2.62,0,0,1-.89.52,4.33,4.33,0,0,1-1.07.12,2.9,2.9,0,0,1-.72-.13,5.17,5.17,0,0,1-.72-.28,3.56,3.56,0,0,1-.68-.65,2.55,2.55,0,0,1-.39-.7,3.13,3.13,0,0,1-.18-.76C396.35,549.69,396.33,549.41,396.31,549.12Zm1.59-1a.67.67,0,0,0,.23,0h.25a1.37,1.37,0,0,0,1-.31,1,1,0,0,0,.34-.75.8.8,0,0,0-.15-.47.45.45,0,0,0-.4-.22,2.19,2.19,0,0,0-.36,0,.42.42,0,0,0-.26.19l-.17.18a.9.9,0,0,0-.17.26,1.84,1.84,0,0,0-.16.41A3.8,3.8,0,0,0,397.9,548.13Z"/><path class="cls-3" d="M403.71,540.53a2.09,2.09,0,0,1,.06-.47l.24-.12a.52.52,0,0,1,.23-.05,1.07,1.07,0,0,1,.51.11,1,1,0,0,1,.29.28,1.09,1.09,0,0,1,.14.37,2.93,2.93,0,0,1,0,.41c0,.26,0,.48,0,.67s0,.38,0,.56,0,.38,0,.57,0,.38,0,.58,0,.27,0,.42,0,.3,0,.46a1.23,1.23,0,0,0,0,.2c0,.06.07.09.17.09a2,2,0,0,0,.83-.16,2.09,2.09,0,0,1,.83-.15.36.36,0,0,1,.35.2,1,1,0,0,1,.09.4.63.63,0,0,1-.11.38.83.83,0,0,1-.28.21l-.35.11-.38.1a2.49,2.49,0,0,1-.39.14,2.73,2.73,0,0,0-.43.16,1.41,1.41,0,0,0-.35.23.53.53,0,0,0-.14.37,1.85,1.85,0,0,0,0,.24v.45a1.85,1.85,0,0,0,0,.24,12.73,12.73,0,0,0,.12,1.71c.07.59.16,1.16.26,1.71,0,.17.08.34.13.51a1.67,1.67,0,0,1,.07.47.59.59,0,0,1-.16.46.84.84,0,0,1-.37.2l-.22,0a.73.73,0,0,1-.46-.17,1.68,1.68,0,0,1-.36-.43,4.65,4.65,0,0,1-.16-.7c0-.29-.07-.56-.08-.8,0-.6-.06-1.19-.07-1.78s0-1.19,0-1.78a.61.61,0,0,0,0-.14.43.43,0,0,0,0-.14,1.88,1.88,0,0,0-.55.17,1.19,1.19,0,0,1-.51.11.86.86,0,0,1-.62-.24q-.25-.24-.39-.39a1.67,1.67,0,0,1,.1-.51,2.93,2.93,0,0,1,.43-.13l.4-.07.39-.09a2.93,2.93,0,0,0,.44-.18.31.31,0,0,0,.34-.23,2,2,0,0,0,0-.39c0-.22,0-.41,0-.56s0-.37,0-.65,0-.37,0-.56,0-.37,0-.55Z"/><path class="cls-3" d="M411.86,551.2a.46.46,0,0,1,.36.15.53.53,0,0,1,.14.37.46.46,0,0,1-.1.29.61.61,0,0,1-.27.16,1.82,1.82,0,0,1-.37.09l-.41,0c-.21-.06-.41-.12-.6-.16a1.68,1.68,0,0,1-.57-.28,11.37,11.37,0,0,1-.89-.82,3.19,3.19,0,0,1-.67-1,1.05,1.05,0,0,1-.15-.3c0-.12-.08-.24-.11-.37s-.05-.25-.07-.37,0-.21,0-.28a3.54,3.54,0,0,1,.08-.77,4.15,4.15,0,0,1,.24-.78,3.55,3.55,0,0,1,.41-.71,2.39,2.39,0,0,1,.56-.54l.7-.31.51-.16a1.63,1.63,0,0,1,.55-.09,1.17,1.17,0,0,1,.58.15,1,1,0,0,1,.28.54,1.49,1.49,0,0,1-.11.26.51.51,0,0,1-.28.22,1.43,1.43,0,0,1-.39.11,1.09,1.09,0,0,0-.38.11,2.18,2.18,0,0,0-.49.29l-.29.25a.76.76,0,0,0-.18.26,1,1,0,0,0-.19.46,3.91,3.91,0,0,0,0,.45,2.53,2.53,0,0,0,.12.77,3.89,3.89,0,0,0,.3.72,2.93,2.93,0,0,0,.41.59,1.61,1.61,0,0,0,.43.35.89.89,0,0,0,.66.31Z"/></g></g></svg>